<svg width="110" height="55" viewBox="0 0 110 55" fill="none" xmlns="http://www.w3.org/2000/svg">
<path opacity="0.15" d="M29.0673 39.5747C36.0383 41.7868 43.4756 37.9511 45.6791 31.0073C47.8825 24.0636 44.0177 16.6413 37.0468 14.4292C30.0759 12.2171 22.6385 16.0529 20.4351 22.9966C18.2316 29.9404 22.0964 37.3626 29.0673 39.5747Z" fill="#3EB2CB"/>
<path d="M61.6457 44.7989L61.622 45.2983L61.6224 45.2984L61.6457 44.7989ZM79.1053 42.7893L79.1884 43.2824L79.1885 43.2824L79.1053 42.7893ZM30.6189 27.7522L30.571 27.2545L27.0856 27.5896L30.5255 28.2434L30.6189 27.7522ZM48.0832 26.7468L47.6344 26.5264C47.541 26.7166 47.5777 26.9452 47.726 27.0966C47.8743 27.2481 48.102 27.2895 48.2942 27.2001L48.0832 26.7468ZM54.965 19.9603L55.2821 19.5737L55.2819 19.5735L54.965 19.9603ZM48.3313 30.4145L48.5685 29.9743C48.3817 29.8737 48.1516 29.9019 47.9947 30.0447C47.8378 30.1876 47.7881 30.4139 47.8708 30.6093L48.3313 30.4145ZM54.8262 37.5937L54.5323 37.1892L54.5318 37.1895L54.8262 37.5937ZM13.3845 28.0185L13.7966 28.3015C13.9166 28.1268 13.9134 27.8953 13.7885 27.724C13.6636 27.5526 13.4443 27.4787 13.2411 27.5395L13.3845 28.0185ZM5.59249 33.7403L5.22313 34.0773L5.22319 34.0773L5.59249 33.7403ZM13.6729 24.3532L13.3748 24.7547C13.5451 24.8811 13.7767 24.8863 13.9526 24.7677C14.1284 24.649 14.2102 24.4323 14.1567 24.227L13.6729 24.3532ZM8.28323 16.3179L8.05072 15.8753L8.05064 15.8753L8.28323 16.3179ZM23.1946 43.5546L23.6176 43.2881C23.5046 43.1087 23.2907 43.0201 23.084 43.067C22.8772 43.1139 22.7225 43.2861 22.6979 43.4967L23.1946 43.5546ZM25.3719 52.9709L25.5302 53.4452L25.5319 53.4447L25.3719 52.9709ZM19.8598 41.5756L20.1305 41.996C20.3089 41.8811 20.3954 41.6662 20.3462 41.4598C20.2971 41.2534 20.1231 41.1005 19.9121 41.0783L19.8598 41.5756ZM10.4329 43.7793L10.9287 43.7143L10.9287 43.7142L10.4329 43.7793ZM20.7461 12.7001L20.803 13.1969C21.0139 13.1727 21.1866 13.018 21.2337 12.811C21.2808 12.604 21.192 12.3898 21.0123 12.2768L20.7461 12.7001ZM11.2915 10.5846L11.7881 10.6431L11.7883 10.6409L11.2915 10.5846ZM23.959 10.7295L23.459 10.7333C23.4606 10.9451 23.5956 11.133 23.7958 11.2021C23.9961 11.2712 24.2181 11.2067 24.3501 11.0409L23.959 10.7295ZM27.1463 1.61811L27.3586 1.16542L27.358 1.16512L27.1463 1.61811ZM40.89 41.9647L40.9268 41.466C40.7149 41.4504 40.5163 41.5703 40.4315 41.7651C40.3467 41.9599 40.3943 42.187 40.5501 42.3314L40.89 41.9647ZM49.7882 45.8048L50.2652 45.9548L50.2652 45.9547L49.7882 45.8048ZM37.5739 43.5442L38.0708 43.5996C38.0943 43.389 37.9824 43.1865 37.7917 43.0942C37.601 43.0019 37.3727 43.0398 37.2221 43.1888L37.5739 43.5442ZM33.3323 52.2166L33.5966 51.7921L33.5961 51.7919L33.3323 52.2166ZM39.154 10.5872L38.7088 10.8148C38.8053 11.0036 39.0104 11.111 39.2205 11.0828C39.4306 11.0545 39.6001 10.8969 39.6434 10.6893L39.154 10.5872ZM37.8482 0.993822L37.9694 1.4789L37.9714 1.47841L37.8482 0.993822ZM42.3977 12.5242L42.1838 12.0723C41.992 12.163 41.8784 12.365 41.9004 12.576C41.9224 12.7871 42.0752 12.9613 42.2816 13.0105L42.3977 12.5242ZM52.0333 11.5572L52.5333 11.5576V11.5574L52.0333 11.5572ZM30.5054 27.6938L30.5314 28.1932L34.0285 28.0108L30.6201 27.2072L30.5054 27.6938ZM30.6397 27.7727L30.234 28.0649L32.2745 30.8979L31.1111 27.6061L30.6397 27.7727ZM30.7546 27.7548L31.151 27.45L29.023 24.6833L30.2887 27.9361L30.7546 27.7548ZM31.2612 27.4936L31.7162 27.701L33.1582 24.5367L30.8831 27.1665L31.2612 27.4936ZM31.1856 27.4011L30.7243 27.2083L29.3834 30.4157L31.5738 27.7162L31.1856 27.4011ZM31.8554 29.7201C39.5745 38.1564 50.0804 44.7502 61.622 45.2983L61.6694 44.2995C50.4775 43.768 40.2018 37.3606 32.5931 29.045L31.8554 29.7201ZM61.6224 45.2984C67.5584 45.5752 73.438 44.2518 79.1884 43.2824L79.0222 42.2963C73.1936 43.2788 67.4663 44.5698 61.669 44.2994L61.6224 45.2984ZM79.1885 43.2824C84.3837 42.4052 89.6246 41.7917 94.8312 42.22L94.9132 41.2233C89.581 40.7847 84.2422 41.4149 79.0221 42.2963L79.1885 43.2824ZM94.8312 42.22C100.036 42.6481 105.207 44.1759 109.363 47.2078L109.952 46.3999C105.609 43.2316 100.247 41.6621 94.9132 41.2233L94.8312 42.22ZM30.6189 27.7522C30.6668 28.2499 30.6668 28.2499 30.667 28.2498C30.6672 28.2498 30.6675 28.2498 30.668 28.2498C30.6688 28.2497 30.6701 28.2495 30.6718 28.2494C30.6753 28.2491 30.6805 28.2486 30.6875 28.2479C30.7014 28.2466 30.7223 28.2446 30.7499 28.242C30.8051 28.2368 30.8871 28.2292 30.9943 28.2194C31.2087 28.1998 31.5235 28.1717 31.9244 28.1373C32.7263 28.0685 33.8726 27.975 35.2493 27.8761C38.0034 27.6781 41.676 27.4587 45.3557 27.3722C49.0407 27.2855 52.7119 27.3327 55.4717 27.6627C56.8563 27.8282 57.9774 28.0613 58.7488 28.3678C59.5662 28.6925 59.7813 29.0109 59.7964 29.2235L60.7939 29.1529C60.7336 28.3002 59.9648 27.7748 59.118 27.4385C58.2253 27.0838 57.0021 26.8386 55.5904 26.6698C52.7576 26.331 49.0286 26.2855 45.3322 26.3725C41.6306 26.4595 37.9407 26.6801 35.1776 26.8786C33.7957 26.978 32.6447 27.0718 31.839 27.1409C31.4361 27.1755 31.1195 27.2038 30.9034 27.2236C30.7954 27.2334 30.7125 27.2411 30.6565 27.2464C30.6285 27.249 30.6072 27.251 30.5929 27.2524C30.5857 27.2531 30.5803 27.2536 30.5767 27.2539C30.5748 27.2541 30.5735 27.2542 30.5725 27.2543C30.572 27.2544 30.5717 27.2544 30.5714 27.2544C30.5712 27.2544 30.571 27.2545 30.6189 27.7522ZM59.7964 29.2235C59.8033 29.3218 59.7764 29.4082 59.6676 29.5113C59.5422 29.6301 59.3162 29.7582 58.9547 29.8734C58.234 30.1031 57.146 30.2292 55.7736 30.2615C53.0428 30.3257 49.3531 30.0168 45.6294 29.5715C41.9115 29.127 38.1819 28.5493 35.3804 28.0825C33.98 27.8492 32.8123 27.6437 31.995 27.4965C31.5863 27.423 31.2653 27.364 31.0466 27.3235C30.9373 27.3032 30.8535 27.2875 30.7972 27.277C30.769 27.2717 30.7477 27.2677 30.7334 27.265C30.7263 27.2636 30.721 27.2626 30.7174 27.2619C30.7157 27.2616 30.7144 27.2614 30.7135 27.2612C30.713 27.2611 30.7127 27.261 30.7125 27.261C30.7123 27.261 30.7122 27.261 30.6189 27.7522C30.5255 28.2434 30.5257 28.2434 30.526 28.2435C30.5262 28.2435 30.5266 28.2436 30.527 28.2437C30.528 28.2438 30.5294 28.2441 30.5313 28.2445C30.535 28.2452 30.5405 28.2462 30.5478 28.2476C30.5624 28.2503 30.5841 28.2544 30.6126 28.2598C30.6697 28.2705 30.7542 28.2863 30.8644 28.3067C31.0846 28.3476 31.4074 28.4068 31.8178 28.4807C32.6387 28.6285 33.8107 28.8348 35.216 29.0689C38.0259 29.5371 41.7719 30.1174 45.5107 30.5645C49.2437 31.0108 52.9919 31.3272 55.7971 31.2612C57.1927 31.2284 58.3973 31.1006 59.2583 30.8262C59.6877 30.6894 60.0748 30.503 60.3554 30.2372C60.6526 29.9556 60.8246 29.5872 60.7939 29.1529L59.7964 29.2235ZM48.0832 26.7468C48.532 26.9672 48.532 26.9672 48.532 26.9672C48.532 26.9672 48.532 26.9671 48.5321 26.9671C48.5321 26.9669 48.5323 26.9666 48.5325 26.9661C48.5329 26.9653 48.5336 26.9638 48.5346 26.9619C48.5365 26.9581 48.5395 26.9521 48.5434 26.9442C48.5513 26.9283 48.5633 26.9043 48.5791 26.873C48.6107 26.8103 48.6577 26.718 48.7187 26.6009C48.8406 26.3665 49.018 26.0332 49.2388 25.6393C49.6813 24.8499 50.2941 23.8247 50.9813 22.8676C51.6752 21.9009 52.417 21.0438 53.1104 20.5544C53.4558 20.3107 53.7548 20.183 54.0029 20.1529C54.2313 20.1252 54.4392 20.1759 54.6481 20.347L55.2819 19.5735C54.8581 19.2263 54.3765 19.1003 53.8825 19.1602C53.4083 19.2177 52.9522 19.4421 52.5338 19.7374C51.6997 20.3261 50.8791 21.2952 50.1689 22.2844C49.452 23.283 48.8189 24.3432 48.3665 25.1503C48.1398 25.5547 47.9575 25.8973 47.8315 26.1394C47.7686 26.2604 47.7196 26.3564 47.6863 26.4225C47.6696 26.4556 47.6568 26.4812 47.6481 26.4987C47.6438 26.5074 47.6404 26.5142 47.6381 26.5188C47.637 26.5211 47.6361 26.5229 47.6355 26.5242C47.6352 26.5248 47.6349 26.5253 47.6347 26.5257C47.6347 26.5259 47.6346 26.526 47.6345 26.5261C47.6345 26.5263 47.6344 26.5264 48.0832 26.7468ZM54.6478 20.3468C54.9009 20.5545 54.9681 20.742 54.9693 20.9117C54.9706 21.1086 54.8825 21.3707 54.6541 21.7006C54.1951 22.3638 53.3137 23.0978 52.2873 23.7978C51.2742 24.4887 50.1705 25.113 49.3161 25.5662C48.8898 25.7923 48.5275 25.9747 48.2723 26.1004C48.1447 26.1632 48.044 26.2118 47.9755 26.2445C47.9412 26.2609 47.9151 26.2733 47.8976 26.2815C47.8889 26.2856 47.8824 26.2887 47.8781 26.2907C47.876 26.2917 47.8744 26.2924 47.8734 26.2929C47.8729 26.2931 47.8726 26.2933 47.8724 26.2934C47.8723 26.2934 47.8722 26.2935 47.8722 26.2935C47.8722 26.2935 47.8722 26.2935 48.0832 26.7468C48.2942 27.2001 48.2943 27.2 48.2944 27.2C48.2945 27.1999 48.2947 27.1998 48.2949 27.1997C48.2953 27.1996 48.2958 27.1993 48.2965 27.199C48.2979 27.1984 48.2998 27.1975 48.3023 27.1963C48.3073 27.1939 48.3146 27.1905 48.3241 27.186C48.3431 27.1771 48.3708 27.1639 48.4067 27.1468C48.4785 27.1125 48.5827 27.0622 48.7141 26.9975C48.9767 26.8681 49.348 26.6811 49.7846 26.4496C50.6558 25.9875 51.7951 25.3439 52.8507 24.624C53.8931 23.9131 54.9063 23.0934 55.4764 22.2697C55.7625 21.8563 55.9726 21.3916 55.9693 20.9049C55.9658 20.3908 55.7256 19.9376 55.2821 19.5737L54.6478 20.3468ZM48.3313 30.4145C47.8708 30.6093 47.8709 30.6094 47.8709 30.6096C47.871 30.6097 47.871 30.6099 47.8711 30.61C47.8713 30.6104 47.8715 30.6109 47.8718 30.6116C47.8723 30.6129 47.8731 30.6147 47.8741 30.6171C47.8762 30.6219 47.8791 30.6288 47.883 30.6378C47.8907 30.6558 47.902 30.6821 47.9169 30.7161C47.9465 30.784 47.99 30.8828 48.0462 31.0074C48.1584 31.2565 48.3215 31.6094 48.5253 32.0265C48.9322 32.8589 49.5055 33.9548 50.1659 34.994C50.82 36.0234 51.5854 37.0389 52.3854 37.6752C52.7867 37.9944 53.2295 38.2449 53.6996 38.3298C54.1895 38.4183 54.6777 38.3204 55.1206 37.9978L54.5318 37.1895C54.3142 37.348 54.104 37.3867 53.8774 37.3458C53.6311 37.3012 53.3394 37.1563 53.0079 36.8926C52.3424 36.3632 51.6492 35.4637 51.0099 34.4577C50.3768 33.4615 49.8218 32.4017 49.4238 31.5873C49.2252 31.181 49.0666 30.8377 48.9578 30.5964C48.9035 30.4759 48.8616 30.3809 48.8335 30.3164C48.8195 30.2842 48.8089 30.2596 48.8019 30.2433C48.7984 30.2351 48.7957 30.229 48.7941 30.225C48.7932 30.223 48.7926 30.2216 48.7922 30.2207C48.792 30.2202 48.7919 30.2199 48.7918 30.2197C48.7918 30.2197 48.7918 30.2196 48.7917 30.2196C48.7917 30.2196 48.7918 30.2196 48.3313 30.4145ZM55.1202 37.9981C55.5838 37.6612 55.849 37.2226 55.8808 36.7095C55.9109 36.2241 55.7269 35.7485 55.4643 35.3195C54.9409 34.4645 53.9752 33.5868 52.974 32.8156C51.9602 32.0346 50.8587 31.3247 50.0146 30.8118C49.5916 30.5548 49.2313 30.3461 48.9764 30.2014C48.8488 30.1291 48.7475 30.0727 48.6778 30.0342C48.6429 30.0149 48.6159 30.0001 48.5975 29.9901C48.5883 29.9851 48.5812 29.9812 48.5763 29.9786C48.5739 29.9772 48.572 29.9762 48.5707 29.9755C48.57 29.9752 48.5695 29.9749 48.5692 29.9747C48.569 29.9746 48.5688 29.9745 48.5687 29.9744C48.5686 29.9744 48.5685 29.9743 48.3313 30.4145C48.0941 30.8546 48.0941 30.8546 48.0941 30.8546C48.0941 30.8547 48.0942 30.8547 48.0943 30.8547C48.0945 30.8548 48.0948 30.855 48.0953 30.8553C48.0963 30.8558 48.0978 30.8566 48.0998 30.8578C48.104 30.86 48.1104 30.8635 48.1188 30.8681C48.1358 30.8773 48.1612 30.8913 48.1945 30.9096C48.2611 30.9464 48.359 31.0009 48.4828 31.0712C48.7307 31.2118 49.0822 31.4154 49.4953 31.6664C50.3232 32.1695 51.3905 32.8581 52.3638 33.6078C53.3497 34.3673 54.1894 35.1523 54.6114 35.8415C54.8214 36.1846 54.8949 36.4514 54.8828 36.6476C54.8723 36.816 54.7954 36.9979 54.5323 37.1892L55.1202 37.9981ZM13.3845 28.0185C12.9723 27.7354 12.9723 27.7354 12.9723 27.7354C12.9723 27.7354 12.9723 27.7354 12.9722 27.7355C12.9721 27.7357 12.9719 27.7359 12.9716 27.7363C12.9711 27.7372 12.9702 27.7385 12.969 27.7402C12.9665 27.7438 12.9628 27.7492 12.9577 27.7565C12.9476 27.7711 12.9323 27.793 12.9121 27.8218C12.8717 27.8792 12.8118 27.9637 12.7346 28.0708C12.58 28.2851 12.3562 28.5892 12.0807 28.947C11.5286 29.664 10.7737 30.5897 9.95518 31.4375C9.12855 32.2936 8.27047 33.0347 7.51337 33.419C7.13629 33.6104 6.82183 33.6937 6.57182 33.6878C6.34179 33.6823 6.14348 33.6023 5.96178 33.4032L5.22319 34.0773C5.59243 34.4819 6.05082 34.6757 6.5482 34.6875C7.02561 34.6988 7.50928 34.5425 7.966 34.3107C8.87649 33.8485 9.82868 33.0082 10.6746 32.1321C11.5286 31.2476 12.3085 30.2902 12.873 29.5571C13.1558 29.1898 13.3859 28.8772 13.5455 28.6559C13.6254 28.5452 13.6877 28.4573 13.7302 28.3968C13.7515 28.3665 13.7679 28.343 13.779 28.327C13.7846 28.3189 13.7889 28.3127 13.7918 28.3085C13.7933 28.3064 13.7944 28.3047 13.7952 28.3036C13.7956 28.303 13.7959 28.3025 13.7962 28.3022C13.7963 28.302 13.7964 28.3019 13.7965 28.3018C13.7965 28.3016 13.7966 28.3015 13.3845 28.0185ZM5.96184 33.4033C5.74106 33.1613 5.70162 32.9662 5.72488 32.7985C5.75191 32.6036 5.87683 32.3572 6.15051 32.0637C6.70056 31.4738 7.67911 30.8747 8.7963 30.3301C9.89907 29.7926 11.0819 29.3341 11.9933 29.0089C12.448 28.8467 12.833 28.7184 13.1038 28.6308C13.2392 28.5871 13.3459 28.5535 13.4185 28.531C13.4547 28.5197 13.4824 28.5112 13.5009 28.5056C13.5101 28.5028 13.517 28.5007 13.5215 28.4994C13.5238 28.4987 13.5255 28.4982 13.5265 28.4979C13.527 28.4977 13.5274 28.4976 13.5276 28.4975C13.5277 28.4975 13.5278 28.4975 13.5278 28.4975C13.5278 28.4975 13.5278 28.4975 13.3845 28.0185C13.2411 27.5395 13.241 27.5395 13.2409 27.5395C13.2408 27.5396 13.2406 27.5396 13.2404 27.5397C13.24 27.5398 13.2394 27.54 13.2387 27.5402C13.2373 27.5406 13.2352 27.5412 13.2326 27.542C13.2273 27.5436 13.2196 27.546 13.2095 27.549C13.1894 27.5551 13.1601 27.5641 13.122 27.5759C13.046 27.5995 12.9355 27.6343 12.7962 27.6793C12.5175 27.7694 12.1229 27.9009 11.6572 28.0671C10.728 28.3986 9.50712 28.8712 8.35815 29.4312C7.22359 29.9842 6.10227 30.6491 5.41914 31.3817C5.07623 31.7495 4.80123 32.1789 4.73436 32.6611C4.66373 33.1704 4.83642 33.6535 5.22313 34.0773L5.96184 33.4033ZM13.6729 24.3532C14.1567 24.227 14.1567 24.2269 14.1566 24.2268C14.1566 24.2267 14.1565 24.2265 14.1565 24.2263C14.1564 24.2259 14.1562 24.2254 14.1561 24.2247C14.1557 24.2233 14.1552 24.2214 14.1545 24.2189C14.1532 24.2139 14.1513 24.2066 14.1488 24.1971C14.1437 24.1782 14.1363 24.1506 14.1266 24.1149C14.1071 24.0434 14.0784 23.9395 14.0409 23.8082C13.9659 23.5457 13.8557 23.1732 13.7144 22.7314C13.4323 21.8496 13.0238 20.6833 12.5208 19.5605C12.0224 18.4483 11.4119 17.3336 10.7119 16.589C10.3607 16.2155 9.95858 15.9039 9.50539 15.7522C9.0333 15.594 8.53594 15.6204 8.05072 15.8753L8.51574 16.7606C8.75478 16.635 8.96906 16.6271 9.1878 16.7004C9.42544 16.78 9.69331 16.9655 9.98326 17.2739C10.5654 17.8932 11.1212 18.8825 11.6082 19.9694C12.0904 21.0456 12.486 22.1735 12.7619 23.036C12.8995 23.4664 13.0067 23.8287 13.0793 24.0829C13.1156 24.2099 13.1433 24.3099 13.1617 24.3777C13.171 24.4115 13.1779 24.4374 13.1825 24.4546C13.1848 24.4631 13.1865 24.4696 13.1876 24.4737C13.1881 24.4758 13.1885 24.4773 13.1888 24.4783C13.1889 24.4788 13.189 24.4791 13.189 24.4793C13.189 24.4794 13.189 24.4794 13.1891 24.4794C13.1891 24.4794 13.189 24.4794 13.6729 24.3532ZM8.05064 15.8753C7.54339 16.1419 7.21761 16.5375 7.11201 17.0405C7.01212 17.5163 7.12557 18.0134 7.32348 18.4756C7.71788 19.3966 8.54672 20.4038 9.42597 21.3106C10.3163 22.2289 11.3038 23.0896 12.0649 23.7183C12.4463 24.0333 12.7726 24.2916 13.004 24.4714C13.1198 24.5613 13.2118 24.6317 13.2753 24.6798C13.307 24.7038 13.3316 24.7223 13.3484 24.7349C13.3568 24.7412 13.3632 24.746 13.3677 24.7493C13.3699 24.751 13.3716 24.7523 13.3728 24.7532C13.3734 24.7536 13.3738 24.754 13.3742 24.7542C13.3744 24.7543 13.3745 24.7545 13.3746 24.7545C13.3747 24.7546 13.3748 24.7547 13.6729 24.3532C13.9709 23.9518 13.9709 23.9518 13.9709 23.9518C13.9709 23.9517 13.9708 23.9517 13.9708 23.9517C13.9706 23.9515 13.9703 23.9513 13.9698 23.951C13.969 23.9503 13.9676 23.9493 13.9657 23.9479C13.9619 23.945 13.9561 23.9407 13.9484 23.9349C13.9329 23.9233 13.9098 23.9059 13.8795 23.8829C13.8189 23.837 13.73 23.769 13.6175 23.6817C13.3926 23.507 13.0742 23.255 12.7017 22.9473C11.9552 22.3307 10.9986 21.496 10.1439 20.6145C9.27806 19.7215 8.56063 18.8243 8.24275 18.082C8.08452 17.7125 8.05033 17.4381 8.09068 17.2459C8.12532 17.0809 8.22767 16.9119 8.51582 16.7605L8.05064 15.8753ZM23.1946 43.5546C22.7715 43.8212 22.7715 43.8211 22.7715 43.8211C22.7715 43.8212 22.7716 43.8212 22.7716 43.8213C22.7717 43.8214 22.7719 43.8217 22.7722 43.8221C22.7727 43.823 22.7735 43.8243 22.7747 43.8261C22.777 43.8298 22.7805 43.8354 22.7852 43.843C22.7946 43.8581 22.8087 43.8809 22.8272 43.9109C22.864 43.9708 22.9181 44.0595 22.9861 44.173C23.122 44.4003 23.3133 44.7268 23.5334 45.1221C23.9746 45.9144 24.5275 46.9757 24.9833 48.0639C25.4438 49.163 25.7856 50.2444 25.8391 51.0901C25.8658 51.5114 25.8177 51.8313 25.7137 52.0563C25.6182 52.2626 25.467 52.4111 25.212 52.4972L25.5319 53.4447C26.051 53.2694 26.4124 52.9276 26.6213 52.4761C26.8215 52.0431 26.8694 51.5375 26.8371 51.027C26.7727 50.0092 26.3767 48.8019 25.9057 47.6775C25.4301 46.5423 24.8581 45.4456 24.4071 44.6357C24.1812 44.2299 23.9846 43.8943 23.8442 43.6596C23.774 43.5423 23.7178 43.4501 23.6789 43.3869C23.6595 43.3553 23.6444 43.331 23.634 43.3143C23.6288 43.306 23.6248 43.2996 23.6221 43.2952C23.6207 43.293 23.6197 43.2913 23.6189 43.2901C23.6185 43.2895 23.6182 43.2891 23.618 43.2887C23.6179 43.2886 23.6178 43.2884 23.6178 43.2883C23.6177 43.2882 23.6176 43.2881 23.1946 43.5546ZM25.2137 52.4966C24.9052 52.5996 24.7091 52.5575 24.5616 52.4668C24.3911 52.3621 24.2133 52.1469 24.0518 51.7785C23.7269 51.0381 23.5633 49.9037 23.5046 48.6656C23.4467 47.4432 23.493 46.1798 23.5545 45.2177C23.5852 44.7378 23.6195 44.335 23.6461 44.0528C23.6594 43.9117 23.6708 43.8009 23.6788 43.7257C23.6828 43.6881 23.6859 43.6594 23.6881 43.6403C23.6891 43.6308 23.6899 43.6236 23.6905 43.619C23.6907 43.6166 23.6909 43.6149 23.6911 43.6139C23.6911 43.6133 23.6912 43.6129 23.6912 43.6127C23.6912 43.6126 23.6912 43.6126 23.6912 43.6125C23.6912 43.6125 23.6912 43.6125 23.1946 43.5546C22.6979 43.4967 22.6979 43.4968 22.6979 43.497C22.6979 43.4971 22.6979 43.4973 22.6978 43.4975C22.6978 43.4979 22.6977 43.4985 22.6976 43.4992C22.6975 43.5007 22.6972 43.5028 22.6969 43.5055C22.6963 43.511 22.6954 43.519 22.6942 43.5294C22.6919 43.5502 22.6886 43.5806 22.6844 43.62C22.676 43.6989 22.6642 43.8136 22.6505 43.9589C22.6232 44.2494 22.588 44.6623 22.5565 45.1539C22.4938 46.1351 22.4454 47.439 22.5057 48.7129C22.5654 49.971 22.7331 51.2618 23.136 52.1803C23.3383 52.6414 23.6235 53.0641 24.0381 53.3188C24.4756 53.5877 24.9866 53.6266 25.5302 53.4452L25.2137 52.4966ZM19.8598 41.5756C19.9121 41.0783 19.9119 41.0783 19.9118 41.0783C19.9117 41.0783 19.9115 41.0782 19.9113 41.0782C19.9109 41.0782 19.9103 41.0781 19.9096 41.0781C19.9082 41.0779 19.9062 41.0777 19.9037 41.0774C19.8985 41.0769 19.891 41.0761 19.8812 41.0752C19.8617 41.0732 19.8332 41.0704 19.7962 41.0669C19.7222 41.06 19.6146 41.0503 19.4781 41.0391C19.2052 41.0168 18.8168 40.9886 18.3523 40.9651C17.4253 40.9182 16.1869 40.8893 14.9566 40.9639C13.738 41.0378 12.4781 41.2156 11.5348 41.6069C11.0618 41.8032 10.6285 42.0692 10.3277 42.4397C10.014 42.826 9.86584 43.3011 9.93721 43.8444L10.9287 43.7142C10.8937 43.4479 10.9604 43.2469 11.104 43.07C11.2606 42.8772 11.5273 42.6927 11.918 42.5306C12.7025 42.2051 13.8258 42.0343 15.0171 41.9621C16.1967 41.8906 17.3948 41.918 18.3018 41.9639C18.7543 41.9868 19.1323 42.0141 19.3966 42.0358C19.5287 42.0466 19.6322 42.0559 19.7024 42.0625C19.7375 42.0658 19.7642 42.0685 19.7819 42.0702C19.7908 42.0711 19.7974 42.0718 19.8017 42.0722C19.8039 42.0724 19.8055 42.0726 19.8064 42.0727C19.8069 42.0728 19.8073 42.0728 19.8075 42.0728C19.8076 42.0728 19.8076 42.0728 19.8076 42.0728C19.8076 42.0728 19.8076 42.0728 19.8598 41.5756ZM9.93719 43.8444C10.0118 44.4129 10.2705 44.8556 10.7048 45.1306C11.116 45.391 11.6216 45.4604 12.1249 45.4385C13.1277 45.3948 14.3625 44.9752 15.5206 44.473C16.6933 43.9645 17.8456 43.345 18.7011 42.8551C19.1297 42.6097 19.4859 42.3957 19.7353 42.2427C19.8601 42.1662 19.9582 42.105 20.0255 42.0626C20.0591 42.0414 20.085 42.025 20.1027 42.0137C20.1116 42.0081 20.1183 42.0038 20.123 42.0008C20.1253 41.9993 20.1271 41.9981 20.1284 41.9973C20.129 41.9969 20.1295 41.9966 20.1299 41.9964C20.13 41.9963 20.1302 41.9962 20.1303 41.9961C20.1304 41.996 20.1305 41.996 19.8598 41.5756C19.5891 41.1552 19.5892 41.1552 19.5892 41.1552C19.5891 41.1552 19.5891 41.1552 19.589 41.1553C19.5888 41.1554 19.5885 41.1556 19.588 41.1559C19.5871 41.1565 19.5857 41.1574 19.5837 41.1587C19.5797 41.1612 19.5736 41.1651 19.5655 41.1703C19.5493 41.1806 19.5248 41.1961 19.4927 41.2163C19.4285 41.2568 19.3337 41.3159 19.2126 41.3902C18.9702 41.5388 18.6228 41.7477 18.2042 41.9873C17.3652 42.4677 16.2484 43.0675 15.1228 43.5556C13.9827 44.05 12.89 44.4042 12.0814 44.4394C11.679 44.457 11.408 44.3923 11.2397 44.2857C11.0946 44.1938 10.971 44.037 10.9287 43.7143L9.93719 43.8444ZM20.7461 12.7001C20.6893 12.2033 20.6893 12.2033 20.6893 12.2033C20.6893 12.2033 20.6893 12.2033 20.6892 12.2034C20.689 12.2034 20.6886 12.2034 20.6881 12.2035C20.6872 12.2036 20.6856 12.2038 20.6834 12.204C20.6791 12.2045 20.6725 12.2052 20.6637 12.2062C20.646 12.2081 20.6193 12.211 20.5843 12.2146C20.5142 12.2219 20.4108 12.2322 20.2789 12.2442C20.0149 12.2683 19.6374 12.2991 19.1853 12.3262C18.2791 12.3805 17.0816 12.419 15.9013 12.3584C14.7094 12.2972 13.5837 12.1369 12.7948 11.8188C12.4018 11.6602 12.1321 11.4781 11.9726 11.2863C11.826 11.1101 11.7567 10.9093 11.7881 10.6431L10.7949 10.5261C10.7309 11.0702 10.8855 11.5432 11.2038 11.9258C11.5091 12.2928 11.9453 12.5544 12.4208 12.7462C13.3688 13.1285 14.6307 13.2945 15.8501 13.3571C17.0811 13.4203 18.3188 13.3799 19.2451 13.3244C19.7091 13.2966 20.0971 13.2649 20.3696 13.2401C20.5059 13.2276 20.6134 13.2169 20.6873 13.2093C20.7242 13.2055 20.7527 13.2024 20.7722 13.2003C20.7819 13.1992 20.7894 13.1984 20.7946 13.1978C20.7972 13.1975 20.7992 13.1973 20.8006 13.1971C20.8013 13.1971 20.8018 13.197 20.8022 13.1969C20.8024 13.1969 20.8026 13.1969 20.8027 13.1969C20.8029 13.1969 20.803 13.1969 20.7461 12.7001ZM11.7883 10.6409C11.825 10.3173 11.9456 10.1605 12.087 10.0684C12.2519 9.96099 12.5204 9.89345 12.9228 9.90714C13.7311 9.93464 14.8288 10.2788 15.9765 10.7629C17.1094 11.2407 18.2355 11.8305 19.082 12.3035C19.5043 12.5394 19.855 12.7452 20.0997 12.8916C20.222 12.9649 20.3178 13.0232 20.3826 13.0631C20.415 13.083 20.4397 13.0983 20.4561 13.1085C20.4643 13.1136 20.4705 13.1174 20.4745 13.1199C20.4765 13.1212 20.4779 13.1221 20.4789 13.1227C20.4793 13.123 20.4797 13.1232 20.4799 13.1233C20.48 13.1234 20.48 13.1234 20.48 13.1234C20.48 13.1234 20.48 13.1234 20.7461 12.7001C21.0123 12.2768 21.0122 12.2767 21.012 12.2767C21.0119 12.2766 21.0118 12.2765 21.0116 12.2764C21.0112 12.2762 21.0107 12.2759 21.0101 12.2755C21.0088 12.2747 21.007 12.2735 21.0047 12.2721C21 12.2691 20.9931 12.2648 20.9842 12.2593C20.9664 12.2482 20.9402 12.232 20.9062 12.2111C20.8383 12.1694 20.7392 12.109 20.6133 12.0336C20.3615 11.8829 20.0021 11.6721 19.5697 11.4305C18.7068 10.9483 17.5452 10.3392 16.3651 9.84146C15.1998 9.34992 13.9592 8.94183 12.9568 8.90772C12.4538 8.89061 11.9488 8.96492 11.5412 9.23047C11.1102 9.51123 10.8593 9.95846 10.7947 10.5283L11.7883 10.6409ZM23.959 10.7295C24.3501 11.0409 24.3502 11.0408 24.3503 11.0407C24.3503 11.0406 24.3505 11.0405 24.3506 11.0403C24.3508 11.04 24.3512 11.0396 24.3516 11.039C24.3525 11.0379 24.3537 11.0364 24.3554 11.0343C24.3586 11.0303 24.3632 11.0244 24.3693 11.0167C24.3814 11.0013 24.399 10.9788 24.4218 10.9496C24.4673 10.8912 24.5331 10.806 24.6157 10.6973C24.7806 10.4799 25.0124 10.1686 25.281 9.79091C25.8171 9.037 26.5047 8.01165 27.1006 6.93721C27.6908 5.87303 28.2157 4.71782 28.3904 3.7135C28.4781 3.2097 28.4855 2.70204 28.3338 2.24956C28.1758 1.77795 27.8546 1.39803 27.3586 1.16542L26.934 2.0708C27.1785 2.18547 27.3131 2.35073 27.3857 2.56731C27.4646 2.80302 27.4775 3.12656 27.4052 3.54206C27.26 4.37635 26.8029 5.41216 26.2261 6.45219C25.6549 7.48195 24.9904 8.47399 24.466 9.21142C24.2044 9.57936 23.9789 9.8822 23.8192 10.0926C23.7393 10.1978 23.676 10.2798 23.6328 10.3352C23.6113 10.3629 23.5948 10.3839 23.5838 10.3979C23.5783 10.4048 23.5742 10.41 23.5715 10.4134C23.5701 10.4151 23.5692 10.4163 23.5686 10.4171C23.5682 10.4175 23.568 10.4178 23.5679 10.4179C23.5679 10.418 23.5678 10.418 23.5678 10.418C23.5678 10.418 23.5678 10.418 23.959 10.7295ZM27.358 1.16512C26.8381 0.9222 26.3255 0.900854 25.8597 1.1179C25.4183 1.3236 25.0879 1.71187 24.8363 2.14735C24.3354 3.01461 24.0286 4.27929 23.8329 5.52338C23.6348 6.78326 23.5417 8.08571 23.4978 9.06876C23.4758 9.56133 23.4661 9.97603 23.4619 10.2681C23.4598 10.4142 23.4591 10.5297 23.4589 10.6091C23.4588 10.6488 23.4588 10.6794 23.4588 10.7004C23.4589 10.7108 23.4589 10.7189 23.4589 10.7244C23.4589 10.7271 23.459 10.7293 23.459 10.7308C23.459 10.7315 23.459 10.7321 23.459 10.7325C23.459 10.7327 23.459 10.7329 23.459 10.733C23.459 10.7332 23.459 10.7333 23.959 10.7295C24.459 10.7256 24.459 10.7257 24.459 10.7257C24.459 10.7256 24.459 10.7256 24.459 10.7255C24.459 10.7252 24.459 10.7249 24.4589 10.7243C24.4589 10.7232 24.4589 10.7215 24.4589 10.7192C24.4589 10.7145 24.4589 10.7073 24.4588 10.6977C24.4588 10.6784 24.4588 10.6495 24.4589 10.6117C24.4591 10.5359 24.4598 10.4244 24.4618 10.2825C24.4659 9.99878 24.4754 9.59427 24.4968 9.11334C24.5399 8.14936 24.6307 6.8876 24.8208 5.67873C25.0134 4.45406 25.2991 3.34545 25.7023 2.64751C25.9028 2.3004 26.1023 2.10809 26.2821 2.02432C26.4375 1.9519 26.6374 1.9322 26.9347 2.0711L27.358 1.16512ZM40.89 41.9647C40.8531 42.4633 40.8531 42.4633 40.8531 42.4633C40.8531 42.4633 40.8532 42.4633 40.8533 42.4633C40.8535 42.4634 40.8538 42.4634 40.8543 42.4634C40.8553 42.4635 40.8569 42.4636 40.859 42.4638C40.8633 42.4641 40.87 42.4646 40.8789 42.4653C40.8966 42.4667 40.9234 42.4689 40.9585 42.4719C41.0287 42.4778 41.1323 42.487 41.2641 42.4998C41.528 42.5254 41.9048 42.5654 42.3542 42.6232C43.2548 42.7389 44.4389 42.9244 45.5876 43.204C46.7477 43.4863 47.8242 43.8536 48.5405 44.3132C48.8973 44.5422 49.1285 44.7713 49.2496 44.9894C49.3609 45.1897 49.3915 45.3996 49.3113 45.6548L50.2652 45.9547C50.4295 45.4323 50.3654 44.9388 50.1238 44.5038C49.892 44.0866 49.512 43.7484 49.0805 43.4716C48.22 42.9195 47.0109 42.5212 45.8241 42.2324C44.626 41.9408 43.4022 41.7496 42.4816 41.6313C42.0203 41.5721 41.6332 41.5309 41.3607 41.5044C41.2245 41.4912 41.1168 41.4817 41.0428 41.4754C41.0058 41.4723 40.9772 41.47 40.9577 41.4684C40.9479 41.4677 40.9404 41.4671 40.9352 41.4667C40.9326 41.4665 40.9306 41.4663 40.9292 41.4662C40.9285 41.4662 40.928 41.4661 40.9276 41.4661C40.9273 41.4661 40.9272 41.4661 40.9271 41.4661C40.9269 41.4661 40.9268 41.466 40.89 41.9647ZM49.3113 45.6547C49.2146 45.9619 49.0673 46.0922 48.91 46.1558C48.7267 46.23 48.4489 46.2454 48.0553 46.1564C47.2649 45.9776 46.25 45.4353 45.2129 44.7474C44.189 44.0683 43.1929 43.2812 42.4498 42.6607C42.0791 42.3511 41.773 42.0845 41.5601 41.8956C41.4536 41.8011 41.3705 41.7262 41.3142 41.6751C41.2861 41.6496 41.2647 41.6301 41.2505 41.617C41.2434 41.6105 41.2381 41.6056 41.2346 41.6024C41.2329 41.6008 41.2316 41.5996 41.2308 41.5989C41.2304 41.5985 41.2301 41.5982 41.23 41.5981C41.2299 41.598 41.2299 41.598 41.2298 41.5979C41.2298 41.5979 41.2298 41.598 40.89 41.9647C40.5501 42.3314 40.5502 42.3315 40.5503 42.3316C40.5504 42.3317 40.5505 42.3318 40.5507 42.3319C40.551 42.3322 40.5514 42.3326 40.552 42.3331C40.5531 42.3342 40.5546 42.3356 40.5567 42.3375C40.5607 42.3412 40.5666 42.3467 40.5744 42.3538C40.5898 42.368 40.6125 42.3887 40.642 42.4155C40.7009 42.4689 40.7869 42.5465 40.8965 42.6437C41.1156 42.838 41.4293 43.1113 41.8089 43.4283C42.5665 44.0609 43.5937 44.8735 44.6602 45.5808C45.7134 46.2794 46.856 46.9104 47.8347 47.1317C48.3257 47.2428 48.8352 47.265 49.2853 47.0827C49.7614 46.89 50.0935 46.5006 50.2652 45.9548L49.3113 45.6547ZM37.5739 43.5442C37.2221 43.1888 37.222 43.1889 37.2219 43.189C37.2219 43.1891 37.2217 43.1892 37.2216 43.1894C37.2213 43.1897 37.2209 43.1901 37.2204 43.1906C37.2194 43.1916 37.218 43.193 37.2161 43.1948C37.2125 43.1984 37.2072 43.2037 37.2002 43.2107C37.1864 43.2245 37.1662 43.2448 37.1402 43.2711C37.0881 43.3237 37.0126 43.4007 36.9178 43.4989C36.7283 43.6954 36.4614 43.9773 36.15 44.3209C35.5286 45.0066 34.7246 45.9441 34.0059 46.941C33.294 47.9284 32.6364 49.0138 32.3442 49.9903C32.1976 50.4802 32.1304 50.9834 32.2276 51.4505C32.3289 51.9374 32.6032 52.3523 33.0685 52.6413L33.5961 51.7919C33.367 51.6495 33.2531 51.4699 33.2066 51.2467C33.156 51.0036 33.1814 50.681 33.3022 50.2769C33.545 49.4657 34.1213 48.4908 34.817 47.5258C35.5059 46.5703 36.2831 45.6632 36.891 44.9924C37.1943 44.6577 37.454 44.3835 37.6375 44.1932C37.7292 44.0982 37.8018 44.0242 37.8512 43.9742C37.8759 43.9493 37.8948 43.9303 37.9074 43.9177C37.9136 43.9115 37.9183 43.9068 37.9214 43.9037C37.9229 43.9022 37.924 43.9011 37.9247 43.9004C37.9251 43.9001 37.9253 43.8998 37.9255 43.8997C37.9255 43.8996 37.9256 43.8996 37.9256 43.8996C37.9256 43.8996 37.9256 43.8996 37.5739 43.5442ZM33.0681 52.641C33.5551 52.9443 34.0614 53.0266 34.5497 52.8663C35.0123 52.7144 35.3861 52.3679 35.6872 51.9652C36.2869 51.1633 36.7411 49.9434 37.0826 48.7308C37.4284 47.5028 37.6751 46.22 37.835 45.2486C37.9152 44.7619 37.974 44.3511 38.0128 44.0614C38.0322 43.9165 38.0466 43.8019 38.0562 43.7231C38.061 43.6836 38.0646 43.6532 38.067 43.6324C38.0682 43.622 38.0691 43.614 38.0698 43.6085C38.0701 43.6058 38.0703 43.6036 38.0705 43.6022C38.0706 43.6014 38.0706 43.6008 38.0707 43.6004C38.0707 43.6002 38.0707 43.6 38.0707 43.5999C38.0708 43.5998 38.0708 43.5996 37.5739 43.5442C37.0769 43.4888 37.0769 43.4888 37.0769 43.4888C37.0769 43.4888 37.0769 43.4889 37.0769 43.489C37.0769 43.4892 37.0768 43.4896 37.0768 43.4901C37.0767 43.4912 37.0765 43.4929 37.0762 43.4953C37.0757 43.4999 37.0748 43.5071 37.0737 43.5166C37.0715 43.5358 37.0681 43.5645 37.0635 43.6021C37.0544 43.6773 37.0404 43.788 37.0216 43.9287C36.9839 44.2101 36.9266 44.6109 36.8483 45.0861C36.6915 46.0387 36.4519 47.2814 36.12 48.4597C35.7839 49.6535 35.369 50.7209 34.8864 51.3663C34.6463 51.6873 34.4257 51.8545 34.2377 51.9162C34.0753 51.9695 33.875 51.9655 33.5966 51.7921L33.0681 52.641ZM39.154 10.5872C39.5992 10.3596 39.5992 10.3596 39.5992 10.3596C39.5992 10.3596 39.5992 10.3596 39.5991 10.3595C39.599 10.3593 39.5989 10.359 39.5987 10.3586C39.5982 10.3577 39.5975 10.3563 39.5965 10.3544C39.5946 10.3505 39.5916 10.3446 39.5876 10.3367C39.5796 10.3208 39.5675 10.2969 39.5519 10.2654C39.5206 10.2026 39.4748 10.1095 39.4174 9.99052C39.3025 9.75239 39.1416 9.41049 38.9582 8.99748C38.5906 8.16972 38.1362 7.06404 37.7812 5.93919C37.4228 4.80324 37.1811 3.69429 37.2057 2.84382C37.218 2.42036 37.2956 2.10299 37.4214 1.88457C37.5373 1.68318 37.7046 1.5451 37.9694 1.4789L37.7269 0.508749C37.194 0.641981 36.8037 0.953261 36.5548 1.38558C36.3157 1.80086 36.221 2.30153 36.2062 2.81484C36.1765 3.83792 36.4607 5.07745 36.8276 6.24012C37.198 7.41391 37.6684 8.55699 38.0442 9.40335C38.2326 9.82739 38.398 10.1789 38.5166 10.4249C38.576 10.5479 38.6236 10.6447 38.6566 10.711C38.6731 10.7442 38.686 10.7697 38.6948 10.7872C38.6992 10.796 38.7026 10.8027 38.705 10.8073C38.7061 10.8096 38.7071 10.8114 38.7077 10.8126C38.708 10.8133 38.7083 10.8138 38.7085 10.8141C38.7085 10.8143 38.7086 10.8145 38.7087 10.8146C38.7088 10.8147 38.7088 10.8148 39.154 10.5872ZM37.9714 1.47841C38.2886 1.39777 38.4769 1.45545 38.6112 1.55407C38.7681 1.66928 38.9245 1.89544 39.0516 2.27642C39.3069 3.04177 39.3662 4.19037 39.3115 5.43559C39.2575 6.66473 39.0961 7.92718 38.9471 8.88662C38.8727 9.3653 38.8018 9.7663 38.7496 10.0471C38.7235 10.1875 38.7021 10.2977 38.6872 10.3725C38.6798 10.4099 38.6741 10.4384 38.6702 10.4574C38.6683 10.4669 38.6668 10.474 38.6659 10.4786C38.6654 10.481 38.665 10.4827 38.6648 10.4837C38.6647 10.4843 38.6646 10.4846 38.6646 10.4849C38.6646 10.485 38.6645 10.485 38.6645 10.4851C38.6645 10.4851 38.6645 10.4851 39.154 10.5872C39.6434 10.6893 39.6435 10.6892 39.6435 10.6891C39.6435 10.689 39.6436 10.6888 39.6436 10.6886C39.6437 10.6882 39.6438 10.6876 39.644 10.6868C39.6443 10.6854 39.6447 10.6833 39.6453 10.6806C39.6464 10.6751 39.648 10.6672 39.6501 10.6569C39.6543 10.6363 39.6604 10.606 39.6682 10.5669C39.6837 10.4886 39.7058 10.3745 39.7327 10.23C39.7865 9.9411 39.8591 9.53018 39.9353 9.04011C40.0872 8.06205 40.2543 6.75967 40.3105 5.47946C40.366 4.21535 40.3172 2.91011 40.0002 1.95995C39.8411 1.48318 39.5953 1.03615 39.2032 0.748124C38.7885 0.443513 38.281 0.367892 37.725 0.509234L37.9714 1.47841ZM42.3977 12.5242C42.2816 13.0105 42.2817 13.0106 42.2819 13.0106C42.282 13.0106 42.2821 13.0107 42.2823 13.0107C42.2827 13.0108 42.2833 13.0109 42.284 13.0111C42.2853 13.0114 42.2873 13.0119 42.2898 13.0125C42.2949 13.0137 42.3022 13.0154 42.3117 13.0176C42.3308 13.0221 42.3588 13.0286 42.395 13.0368C42.4674 13.0533 42.5729 13.0768 42.7068 13.1055C42.9744 13.1629 43.3558 13.241 43.8133 13.3243C44.7263 13.4906 45.9504 13.6793 47.1801 13.7643C48.3981 13.8485 49.6706 13.8351 50.657 13.569C51.1517 13.4355 51.6158 13.2278 51.9624 12.8995C52.3238 12.5573 52.5329 12.1056 52.5333 11.5576L51.5333 11.5569C51.5331 11.8254 51.4407 12.0164 51.2748 12.1735C51.0941 12.3447 50.8052 12.4932 50.3965 12.6035C49.576 12.8249 48.4397 12.849 47.2491 12.7667C46.0701 12.6852 44.8858 12.5032 43.9925 12.3405C43.5468 12.2593 43.1756 12.1833 42.9164 12.1277C42.7869 12.1 42.6854 12.0773 42.6167 12.0617C42.5824 12.0539 42.5562 12.0478 42.5389 12.0438C42.5302 12.0417 42.5237 12.0402 42.5195 12.0392C42.5174 12.0387 42.5158 12.0384 42.5149 12.0381C42.5144 12.038 42.5141 12.0379 42.5139 12.0379C42.5138 12.0379 42.5137 12.0379 42.5137 12.0379C42.5137 12.0379 42.5137 12.0379 42.3977 12.5242ZM52.5333 11.5574C52.5336 10.9842 52.3347 10.5117 51.9395 10.1829C51.5655 9.87161 51.0731 9.73754 50.5712 9.69433C49.5713 9.60823 48.2922 9.86454 47.0782 10.2127C45.849 10.5652 44.6256 11.0304 43.7133 11.4054C43.2563 11.5933 42.8752 11.7594 42.6079 11.8787C42.4742 11.9384 42.3689 11.9865 42.2967 12.0198C42.2605 12.0364 42.2327 12.0494 42.2137 12.0582C42.2042 12.0627 42.1969 12.0661 42.1919 12.0684C42.1894 12.0696 42.1875 12.0705 42.1861 12.0712C42.1854 12.0715 42.1849 12.0717 42.1845 12.0719C42.1843 12.072 42.1842 12.0721 42.1841 12.0721C42.1839 12.0722 42.1838 12.0723 42.3977 12.5242C42.6115 12.9762 42.6115 12.9762 42.6115 12.9762C42.6115 12.9762 42.6116 12.9761 42.6117 12.9761C42.6119 12.976 42.6122 12.9758 42.6127 12.9756C42.6137 12.9751 42.6153 12.9744 42.6174 12.9734C42.6217 12.9714 42.6282 12.9683 42.6369 12.9642C42.6544 12.9561 42.6807 12.9439 42.7151 12.928C42.7841 12.8962 42.8858 12.8498 43.0156 12.7918C43.2754 12.6758 43.6472 12.5138 44.0935 12.3303C44.9882 11.9625 46.174 11.5123 47.3539 11.1739C48.549 10.8312 49.6789 10.6212 50.4855 10.6906C50.8869 10.7252 51.1471 10.8244 51.2999 10.9515C51.4315 11.061 51.5335 11.232 51.5333 11.557L52.5333 11.5574ZM30.5054 27.6938C30.4793 27.1945 30.4792 27.1945 30.4791 27.1945C30.4788 27.1945 30.4785 27.1946 30.4781 27.1946C30.4773 27.1946 30.476 27.1947 30.4742 27.1948C30.4708 27.195 30.4655 27.1952 30.4585 27.1956C30.4446 27.1963 30.4236 27.1974 30.3959 27.1987C30.3406 27.2015 30.2582 27.2055 30.1507 27.2106C29.9357 27.2208 29.62 27.2352 29.2179 27.252C28.4137 27.2856 27.2644 27.3289 25.8846 27.3675C23.1243 27.4448 19.4454 27.5033 15.7651 27.4288C12.0795 27.3541 8.41356 27.1464 5.67052 26.696C4.29435 26.47 3.18427 26.188 2.42678 25.8481C1.62421 25.4879 1.42295 25.1604 1.41715 24.9472L0.417517 24.9744C0.440773 25.8289 1.18593 26.3873 2.01735 26.7605C2.89384 27.1538 4.10532 27.4523 5.50848 27.6828C8.32409 28.1451 12.0479 28.3537 15.7448 28.4286C19.447 28.5035 23.1433 28.4446 25.9126 28.3671C27.2976 28.3283 28.4516 28.2849 29.2597 28.2511C29.6637 28.2342 29.9813 28.2198 30.198 28.2095C30.3064 28.2044 30.3895 28.2003 30.4457 28.1975C30.4738 28.1961 30.4951 28.195 30.5095 28.1943C30.5167 28.1939 30.5221 28.1936 30.5258 28.1935C30.5276 28.1934 30.529 28.1933 30.5299 28.1932C30.5304 28.1932 30.5308 28.1932 30.531 28.1932C30.5313 28.1932 30.5314 28.1932 30.5054 27.6938ZM1.41715 24.9472C1.41446 24.8487 1.44507 24.7636 1.55819 24.6654C1.68864 24.5522 1.92 24.4341 2.28615 24.3348C3.01622 24.1369 4.1087 24.0585 5.48131 24.0863C8.2125 24.1416 11.8857 24.6117 15.5867 25.2194C19.2821 25.8262 22.9834 26.5665 25.7622 27.1554C27.1513 27.4498 28.309 27.7062 29.1192 27.889C29.5243 27.9804 29.8425 28.0533 30.0593 28.1034C30.1676 28.1284 30.2507 28.1477 30.3065 28.1608C30.3344 28.1673 30.3555 28.1722 30.3696 28.1756C30.3767 28.1772 30.382 28.1785 30.3855 28.1793C30.3872 28.1797 30.3885 28.18 30.3894 28.1802C30.3898 28.1803 30.3901 28.1804 30.3904 28.1804C30.3906 28.1805 30.3906 28.1805 30.5054 27.6938C30.6201 27.2072 30.62 27.2071 30.6197 27.2071C30.6195 27.207 30.6191 27.2069 30.6186 27.2068C30.6177 27.2066 30.6163 27.2063 30.6144 27.2058C30.6108 27.205 30.6053 27.2037 30.5981 27.202C30.5836 27.1986 30.5621 27.1936 30.5338 27.187C30.4773 27.1738 30.3935 27.1543 30.2843 27.1291C30.066 27.0786 29.7462 27.0053 29.3393 26.9135C28.5255 26.73 27.3635 26.4726 25.9696 26.1772C23.1825 25.5865 19.4649 24.8428 15.7488 24.2326C12.0383 23.6233 8.30722 23.1433 5.50155 23.0865C4.10573 23.0582 2.89663 23.1332 2.0245 23.3697C1.58954 23.4876 1.19464 23.6569 0.902739 23.9102C0.59351 24.1786 0.405672 24.5392 0.417517 24.9744L1.41715 24.9472ZM30.6397 27.7727C31.0454 27.4805 31.0454 27.4804 31.0453 27.4803C31.0452 27.4801 31.045 27.4799 31.0447 27.4795C31.0442 27.4788 31.0435 27.4778 31.0425 27.4764C31.0404 27.4735 31.0374 27.4693 31.0333 27.4636C31.0251 27.4523 31.0129 27.4352 30.9968 27.4127C30.9645 27.3677 30.9166 27.3007 30.8542 27.2132C30.7293 27.038 30.5465 26.7806 30.3149 26.452C29.8517 25.7946 29.1938 24.8526 28.4152 23.7146C26.8575 21.4379 24.8191 18.3798 22.8923 15.2491C20.9628 12.114 19.1564 8.92408 18.0541 6.37919C17.501 5.10237 17.1392 4.01935 17.017 3.20155C16.8875 2.33528 17.0553 1.99283 17.2314 1.87427L16.6729 1.04476C15.9627 1.52293 15.8936 2.45031 16.028 3.34937C16.1696 4.29691 16.5725 5.47473 17.1364 6.77667C18.2681 9.38926 20.1052 12.6285 22.0407 15.7733C23.979 18.9226 26.0271 21.9951 27.5898 24.2793C28.3714 25.4216 29.0321 26.3675 29.4974 27.028C29.7302 27.3582 29.9141 27.6172 30.0399 27.7937C30.1028 27.8819 30.1513 27.9496 30.184 27.9953C30.2004 28.0181 30.2128 28.0354 30.2212 28.0471C30.2254 28.0529 30.2285 28.0574 30.2307 28.0603C30.2318 28.0618 30.2326 28.0629 30.2331 28.0637C30.2334 28.0641 30.2336 28.0644 30.2338 28.0646C30.2339 28.0648 30.234 28.0649 30.6397 27.7727ZM17.2314 1.87427C17.3138 1.81881 17.4036 1.79859 17.5491 1.84138C17.7161 1.89049 17.9414 2.02185 18.2232 2.27609C18.7852 2.78315 19.4421 3.65854 20.1607 4.82605C21.5905 7.14922 23.1791 10.4858 24.6666 13.9198C26.1517 17.3484 27.5273 20.8535 28.5321 23.5029C29.0343 24.8272 29.4436 25.9369 29.7272 26.7153C29.869 27.1045 29.9794 27.4108 30.0543 27.6197C30.0917 27.7241 30.1203 27.8042 30.1395 27.8581C30.149 27.885 30.1563 27.9054 30.1611 27.919C30.1635 27.9258 30.1653 27.9309 30.1665 27.9343C30.1671 27.936 30.1676 27.9373 30.1679 27.9381C30.168 27.9385 30.1681 27.9388 30.1682 27.939C30.1683 27.9392 30.1683 27.9393 30.6397 27.7727C31.1111 27.6061 31.1111 27.606 31.111 27.6057C31.1109 27.6055 31.1108 27.6051 31.1106 27.6047C31.1103 27.6038 31.1098 27.6024 31.1092 27.6006C31.1079 27.5971 31.1061 27.5918 31.1036 27.5848C31.0986 27.5708 31.0913 27.5501 31.0816 27.5228C31.0621 27.4682 31.0333 27.3874 30.9956 27.2822C30.9202 27.0719 30.8092 26.7639 30.6668 26.373C30.3819 25.5912 29.9711 24.4773 29.4671 23.1483C28.4593 20.491 27.0777 16.9703 25.5842 13.5223C24.0929 10.0796 22.4812 6.68869 21.0123 4.30191C20.2814 3.11444 19.5643 2.13923 18.8931 1.53363C18.5583 1.23154 18.2021 0.991045 17.8311 0.881976C17.4386 0.766582 17.0337 0.801858 16.6729 1.04476L17.2314 1.87427ZM30.7546 27.7548C30.3583 28.0596 30.3583 28.0597 30.3585 28.0599C30.3586 28.06 30.3588 28.0603 30.359 28.0606C30.3596 28.0613 30.3603 28.0623 30.3614 28.0637C30.3635 28.0664 30.3667 28.0706 30.371 28.0761C30.3795 28.0872 30.3922 28.1039 30.4091 28.1258C30.4427 28.1698 30.4927 28.2353 30.5579 28.3208C30.6882 28.492 30.8791 28.7435 31.1209 29.0647C31.6045 29.7072 32.2918 30.6281 33.1059 31.7411C34.7344 33.9678 36.8681 36.9606 38.8926 40.0295C40.9199 43.1028 42.8259 46.2348 44.0079 48.7446C44.6009 50.0037 44.9967 51.0753 45.1446 51.8893C45.3013 52.7515 45.1445 53.1001 44.9718 53.2247L45.5569 54.0356C46.2512 53.5347 46.2912 52.6054 46.1285 51.7105C45.9571 50.7674 45.5173 49.6024 44.9126 48.3185C43.6991 45.742 41.7609 42.5616 39.7273 39.4788C37.6908 36.3917 35.5469 33.3848 33.913 31.1508C33.0959 30.0335 32.4058 29.1088 31.9198 28.4633C31.6768 28.1405 31.4848 27.8875 31.3535 27.715C31.2878 27.6288 31.2373 27.5626 31.2031 27.518C31.1861 27.4957 31.1731 27.4788 31.1643 27.4674C31.16 27.4617 31.1566 27.4574 31.1544 27.4545C31.1533 27.453 31.1524 27.4519 31.1519 27.4512C31.1516 27.4508 31.1513 27.4505 31.1512 27.4503C31.151 27.4501 31.151 27.45 30.7546 27.7548ZM44.9718 53.2247C44.8911 53.2829 44.8021 53.3059 44.6555 53.2679C44.4871 53.2242 44.2579 53.1002 43.9683 52.8551C43.3907 52.3661 42.7066 51.5119 41.9516 50.3674C40.4493 48.0901 38.7563 44.8042 37.1614 41.4178C35.5689 38.0365 34.0836 34.5752 32.9958 31.9578C32.4521 30.6495 32.0081 29.5528 31.7 28.7834C31.546 28.3988 31.426 28.096 31.3446 27.8895C31.3039 27.7862 31.2728 27.7071 31.252 27.6538C31.2415 27.6272 31.2337 27.607 31.2284 27.5936C31.2258 27.5868 31.2238 27.5818 31.2225 27.5784C31.2219 27.5767 31.2214 27.5755 31.2211 27.5747C31.2209 27.5743 31.2208 27.574 31.2207 27.5738C31.2206 27.5736 31.2206 27.5735 30.7546 27.7548C30.2887 27.9361 30.2887 27.9363 30.2888 27.9365C30.2889 27.9367 30.289 27.9371 30.2892 27.9375C30.2896 27.9384 30.2901 27.9398 30.2908 27.9415C30.2921 27.9451 30.2942 27.9503 30.2969 27.9572C30.3023 27.971 30.3103 27.9915 30.3208 28.0185C30.342 28.0724 30.3733 28.1523 30.4143 28.2563C30.4964 28.4643 30.617 28.7687 30.7717 29.1551C31.0811 29.9279 31.5268 31.0286 32.0724 32.3416C33.1634 34.9668 34.6552 38.4435 36.2567 41.8438C37.8557 45.2389 39.5734 48.5783 41.1169 50.918C41.8847 52.0821 42.6322 53.0343 43.3222 53.6183C43.6664 53.9097 44.03 54.1388 44.4044 54.2359C44.8005 54.3386 45.2042 54.2902 45.5569 54.0356L44.9718 53.2247ZM31.2612 27.4936C30.8062 27.2863 30.8062 27.2863 30.8061 27.2865C30.806 27.2867 30.8059 27.287 30.8057 27.2874C30.8054 27.2881 30.8048 27.2893 30.8041 27.2909C30.8027 27.294 30.8005 27.2988 30.7976 27.3051C30.7918 27.3178 30.7831 27.3368 30.7716 27.3619C30.7486 27.4121 30.7143 27.4868 30.6693 27.5841C30.5794 27.7789 30.4469 28.0646 30.2768 28.4278C29.9367 29.1541 29.4462 30.19 28.8456 31.4274C27.644 33.9029 26.003 37.1816 24.2429 40.3998C22.4803 43.6227 20.6083 46.7663 18.9451 48.9816C18.1107 50.0931 17.3491 50.9432 16.6983 51.4548C16.0097 51.9961 15.6248 52.0238 15.4297 51.9288L14.992 52.8279C15.7607 53.2021 16.6001 52.804 17.3163 52.241C18.0703 51.6483 18.8939 50.7156 19.7449 49.582C21.4525 47.3074 23.3522 44.1126 25.1203 40.8796C26.8909 37.6421 28.5397 34.3477 29.7452 31.8641C30.3482 30.6219 30.8406 29.5818 31.1824 28.8519C31.3534 28.487 31.4866 28.1996 31.5773 28.0032C31.6226 27.9051 31.6572 27.8297 31.6806 27.7787C31.6923 27.7533 31.7011 27.7339 31.7071 27.7209C31.7101 27.7143 31.7123 27.7094 31.7138 27.7061C31.7146 27.7044 31.7152 27.7032 31.7156 27.7023C31.7158 27.7019 31.7159 27.7015 31.716 27.7013C31.7161 27.7011 31.7162 27.701 31.2612 27.4936ZM15.4297 51.9288C15.3389 51.8846 15.277 51.8169 15.2418 51.6716C15.2011 51.5042 15.2024 51.2454 15.2824 50.8763C15.4421 50.1399 15.8748 49.1385 16.5312 47.9383C17.8372 45.5503 19.946 42.5219 22.1903 39.5324C24.4312 36.5476 26.7936 33.6194 28.5968 31.4364C29.4981 30.3451 30.2592 29.4407 30.7947 28.8093C31.0625 28.4936 31.2739 28.2462 31.4182 28.0779C31.4904 27.9937 31.5458 27.9293 31.5831 27.886C31.6017 27.8643 31.6158 27.8479 31.6253 27.837C31.63 27.8316 31.6335 27.8275 31.6359 27.8247C31.6371 27.8234 31.6379 27.8224 31.6385 27.8217C31.6388 27.8214 31.639 27.8211 31.6391 27.821C31.6393 27.8208 31.6393 27.8207 31.2612 27.4936C30.8831 27.1665 30.883 27.1666 30.8828 27.1668C30.8826 27.167 30.8824 27.1673 30.8821 27.1676C30.8814 27.1684 30.8805 27.1694 30.8793 27.1709C30.8768 27.1737 30.8731 27.178 30.8683 27.1836C30.8586 27.1948 30.8443 27.2114 30.8254 27.2334C30.7876 27.2772 30.7317 27.3423 30.659 27.427C30.5136 27.5966 30.3011 27.8454 30.0321 28.1625C29.4942 28.7967 28.7303 29.7044 27.8258 30.7995C26.0172 32.9891 23.6442 35.9303 21.3906 38.9321C19.1406 41.9292 16.9958 45.0047 15.6538 47.4585C14.9862 48.6792 14.4962 49.7832 14.3052 50.6644C14.2098 51.1039 14.1788 51.5319 14.27 51.9076C14.3667 52.3056 14.601 52.6376 14.992 52.8279L15.4297 51.9288ZM31.1856 27.4011C31.6469 27.594 31.6469 27.5939 31.647 27.5937C31.6471 27.5935 31.6472 27.5933 31.6473 27.5929C31.6477 27.5921 31.6482 27.5909 31.6488 27.5893C31.6502 27.5861 31.6522 27.5813 31.6549 27.5749C31.6603 27.562 31.6684 27.5427 31.6791 27.5173C31.7005 27.4664 31.7324 27.3907 31.7743 27.2919C31.858 27.0944 31.9814 26.8046 32.1399 26.4362C32.457 25.6994 32.9145 24.6485 33.4757 23.3926C34.5984 20.8802 36.135 17.5512 37.7925 14.2789C39.4523 11.0019 41.2239 7.80079 42.8161 5.53435C43.6148 4.39727 44.3491 3.52382 44.9832 2.99225C45.6541 2.42987 46.0376 2.39059 46.2352 2.47944L46.6453 1.56738C45.8653 1.21669 45.0388 1.6408 44.3408 2.22588C43.6061 2.84177 42.8124 3.79985 41.9978 4.95952C40.3631 7.28657 38.5654 10.5398 36.9004 13.827C35.233 17.1189 33.6892 20.4639 32.5627 22.9846C31.9993 24.2453 31.54 25.3006 31.2214 26.0409C31.0621 26.4111 30.9379 26.7026 30.8536 26.9017C30.8114 27.0013 30.7791 27.0778 30.7574 27.1294C30.7465 27.1552 30.7383 27.1749 30.7327 27.1881C30.7299 27.1947 30.7279 27.1997 30.7264 27.2031C30.7257 27.2048 30.7252 27.206 30.7248 27.2069C30.7247 27.2074 30.7245 27.2077 30.7244 27.2079C30.7243 27.2082 30.7243 27.2083 31.1856 27.4011ZM46.2352 2.47944C46.3274 2.52088 46.3915 2.58684 46.4314 2.73126C46.4774 2.89764 46.4842 3.15654 46.4158 3.52818C46.2794 4.26945 45.8786 5.28417 45.2605 6.5045C44.0306 8.93261 42.0188 12.0258 39.8703 15.0842C37.7251 18.1379 35.4567 21.1386 33.7237 23.377C32.8574 24.4959 32.1254 25.4237 31.6101 26.0716C31.3525 26.3955 31.1491 26.6494 31.0102 26.8222C30.9407 26.9086 30.8874 26.9747 30.8515 27.0191C30.8335 27.0414 30.8199 27.0582 30.8108 27.0694C30.8063 27.075 30.8029 27.0792 30.8006 27.082C30.7995 27.0834 30.7987 27.0844 30.7981 27.0851C30.7978 27.0855 30.7976 27.0857 30.7975 27.0859C30.7974 27.086 30.7973 27.0861 31.1856 27.4011C31.5738 27.7162 31.5739 27.7161 31.5741 27.7159C31.5742 27.7157 31.5745 27.7154 31.5748 27.715C31.5754 27.7142 31.5763 27.7131 31.5775 27.7117C31.5799 27.7087 31.5834 27.7044 31.5881 27.6986C31.5974 27.6871 31.6112 27.67 31.6294 27.6475C31.6658 27.6025 31.7196 27.5358 31.7895 27.4487C31.9295 27.2747 32.134 27.0194 32.3928 26.694C32.9103 26.0433 33.645 25.1121 34.5144 23.9892C36.2526 21.7441 38.5312 18.73 40.6885 15.659C42.8425 12.5928 44.8888 9.45141 46.1525 6.95636C46.7813 5.71511 47.2361 4.5961 47.3993 3.70914C47.4807 3.26667 47.4983 2.83784 47.3954 2.46507C47.2863 2.07034 47.0419 1.74572 46.6453 1.56738L46.2352 2.47944Z" fill="#3EB2CB"/>
</svg>
