<svg width="122" height="75" viewBox="0 0 122 75" fill="none" xmlns="http://www.w3.org/2000/svg">
<path opacity="0.13" d="M29.5722 68.2252C39.2272 71.7492 49.9345 66.8045 53.4876 57.1809C57.0406 47.5572 52.094 36.8989 42.439 33.3749C32.784 29.8509 22.0767 34.7956 18.5236 44.4193C14.9706 54.0429 19.9172 64.7012 29.5722 68.2252Z" fill="#FB8268"/>
<path d="M68.9805 58.1359L68.9356 58.6339L68.936 58.634L68.9805 58.1359ZM88.2794 56.7434L88.3414 57.2395L88.3416 57.2395L88.2794 56.7434ZM37.3104 39.6162C37.3486 39.8897 37.6012 40.0805 37.8747 40.0423C38.1482 40.0042 38.339 39.7515 38.3008 39.478L37.3104 39.6162ZM37.7101 32.6829L38.2071 32.7381C38.2089 32.7215 38.2099 32.7049 38.2101 32.6882L37.7101 32.6829ZM38.1153 31.8472L37.8606 31.4169C37.8398 31.4293 37.8198 31.4432 37.8009 31.4584L38.1153 31.8472ZM39.3561 32.5231L39.8017 32.2963L39.8012 32.2953L39.3561 32.5231ZM37.8789 39.8172L38.2914 40.0998L38.2958 40.0932L37.8789 39.8172ZM24.0243 52.2268L24.1815 52.7016L24.1915 52.698L24.0243 52.2268ZM5.78086 47.0131L6.10041 46.6284L6.09527 46.6243L5.78086 47.0131ZM1.40684 39.0485L1.15526 38.6164C1.02976 38.6895 0.942233 38.8135 0.915429 38.9562L1.40684 39.0485ZM4.09637 40.0302L4.15028 40.5273L4.15852 40.5263L4.09637 40.0302ZM5.26091 37.9507L5.74779 38.0649L5.7498 38.0554L5.26091 37.9507ZM10.5678 34.1026L10.5771 33.6027C10.5702 33.6026 10.5633 33.6026 10.5564 33.6027L10.5678 34.1026ZM38.576 39.7392C38.7896 39.5641 38.8207 39.249 38.6455 39.0355C38.4704 38.822 38.1554 38.7909 37.9418 38.966L38.576 39.7392ZM37.3273 39.5356C37.5578 39.6878 37.8679 39.6243 38.0201 39.3938C38.1722 39.1634 38.1087 38.8532 37.8783 38.7011L37.3273 39.5356ZM29.3818 34.4091L29.5726 33.9469L29.5691 33.9455L29.3818 34.4091ZM7.40958 23.2307L6.94656 23.4198L6.95135 23.4308L7.40958 23.2307ZM3.23941 5.91035L3.43166 5.44879C3.2027 5.35342 2.93844 5.44032 2.81075 5.65295C2.68307 5.86559 2.73056 6.13969 2.92235 6.29697L3.23941 5.91035ZM8.29331 7.00463L8.35895 7.5003C8.36736 7.49919 8.37574 7.49786 8.38407 7.49632L8.29331 7.00463ZM26.7777 10.4912L26.4951 10.9036L26.4954 10.9038L26.7777 10.4912ZM35.3762 27.7345L34.8772 27.7646C34.8777 27.7743 34.8786 27.7839 34.8797 27.7935L35.3762 27.7345ZM37.3283 39.6299C37.4072 39.8945 37.6857 40.0451 37.9503 39.9662C38.2149 39.8873 38.3655 39.6088 38.2866 39.3442L37.3283 39.6299ZM38.2249 40.8805C38.2098 40.6048 37.974 40.3935 37.6983 40.4086C37.4225 40.4237 37.2113 40.6595 37.2264 40.9352L38.2249 40.8805ZM39.0265 45.9813L39.4775 45.7654L39.4774 45.765L39.0265 45.9813ZM41.3579 50.5232L41.8329 50.3668L41.8294 50.3569L41.3579 50.5232ZM38.2068 60.4359L38.4952 60.8445L38.5052 60.8371L38.2068 60.4359ZM31.7637 64.3306L31.3945 63.9933L31.3938 63.9941L31.7637 64.3306ZM31.457 65.5471L31.0572 65.8474C31.0706 65.8652 31.0852 65.8821 31.1008 65.898L31.457 65.5471ZM32.5288 65.4819L32.9244 65.7877C32.9293 65.7814 32.934 65.7749 32.9386 65.7684L32.5288 65.4819ZM32.7419 64.3125L32.2496 64.3996C32.2518 64.412 32.2544 64.4243 32.2575 64.4365L32.7419 64.3125ZM28.41 59.1823L28.0068 59.4782L28.0136 59.487L28.41 59.1823ZM27.8596 53.4399L27.4107 53.2196L27.4076 53.2262L27.8596 53.4399ZM32.143 49.0713L32.4712 49.4485L32.4723 49.4475L32.143 49.0713ZM38.4095 40.3042C38.491 40.0404 38.3431 39.7605 38.0793 39.679C37.8154 39.5975 37.5355 39.7454 37.454 40.0093L38.4095 40.3042ZM38.4161 39.6918C38.2596 39.4642 37.9483 39.4066 37.7208 39.5631C37.4932 39.7196 37.4356 40.0309 37.5921 40.2584L38.4161 39.6918ZM53.9573 46.4875L54.0311 46.982L54.0315 46.9819L53.9573 46.4875ZM58.862 44.1556L58.4832 43.8293L58.4828 43.8298L58.862 44.1556ZM64.0481 37.8655L63.9989 37.3679C63.9932 37.3685 63.9876 37.3691 63.982 37.3699L64.0481 37.8655ZM66.2292 40.5273L65.7952 40.2791C65.7914 40.2857 65.7878 40.2924 65.7843 40.2992L66.2292 40.5273ZM64.7295 40.7455L65.0332 40.3483C65.0255 40.3424 65.0176 40.3367 65.0095 40.3313L64.7295 40.7455ZM61.6742 33.0392L61.2354 33.2789L61.2358 33.2797L61.6742 33.0392ZM46.1197 36.1383L45.7487 35.803L45.7486 35.8033L46.1197 36.1383ZM38.0451 39.8227L37.7477 39.4208C37.6066 39.5252 37.5306 39.6959 37.5474 39.8705C37.5642 40.0452 37.6713 40.1983 37.8296 40.2739L38.0451 39.8227ZM42.1744 36.7668L41.878 36.3642L41.877 36.3649L42.1744 36.7668ZM53.0684 25.3909L53.5254 25.5937L53.5259 25.5926L53.0684 25.3909ZM52.1241 6.08412L52.5684 5.85451L52.5626 5.8439L52.1241 6.08412ZM46.3845 0.881342L46.2131 1.35104L46.2148 1.35165L46.3845 0.881342ZM44.0153 1.07109L44.3732 1.42027L44.3746 1.41884L44.0153 1.07109ZM43.707 4.82707L43.5355 5.29676C43.6664 5.34454 43.8113 5.33553 43.9353 5.27191C44.0592 5.20829 44.151 5.09583 44.1885 4.96164L43.707 4.82707ZM41.7003 2.87774L41.3037 3.18232L41.308 3.18785L41.7003 2.87774ZM37.7425 3.12666L38.1798 3.36923C38.1835 3.36242 38.1872 3.35553 38.1906 3.34855L37.7425 3.12666ZM38.509 21.1517L38.0624 21.3765L38.0629 21.3775L38.509 21.1517ZM40.7952 25.9814L40.3183 26.1318L40.3191 26.1342L40.7952 25.9814ZM41.4886 32.7139L40.9886 32.7135C40.9886 32.7226 40.9889 32.7318 40.9894 32.741L41.4886 32.7139ZM41.1712 35.6402L41.6403 35.8133C41.6451 35.8002 41.6494 35.787 41.6531 35.7735L41.1712 35.6402ZM38.0697 38.8863C37.8035 38.9597 37.6473 39.2351 37.7207 39.5013C37.7942 39.7675 38.0695 39.9237 38.3357 39.8503L38.0697 38.8863ZM37.4944 38.6687L37.0768 38.9437C37.2207 39.1624 37.509 39.233 37.7378 39.1055C37.9665 38.9781 38.0582 38.6958 37.9479 38.4583L37.4944 38.6687ZM22.0348 28.6152L21.8995 29.0965C21.9204 29.1024 21.9416 29.1069 21.963 29.11L22.0348 28.6152ZM19.9835 22.8876L20.1242 22.4078C20.1087 22.4033 20.093 22.3995 20.0771 22.3965L19.9835 22.8876ZM37.0403 40.1449C45.0896 49.7686 56.2916 57.4943 68.9356 58.6339L69.0254 57.638C56.7305 56.5298 45.751 49.0006 37.8073 39.5033L37.0403 40.1449ZM68.936 58.634C75.4412 59.2147 81.9655 58.0365 88.3414 57.2395L88.2174 56.2472C81.7629 57.0541 75.3919 58.2063 69.0249 57.6379L68.936 58.634ZM88.3416 57.2395C94.0996 56.5182 99.8983 56.0883 105.607 56.8027L105.731 55.8105C99.8975 55.0804 94.0004 55.5228 88.2173 56.2472L88.3416 57.2395ZM105.607 56.8027C111.314 57.517 116.929 59.4395 121.352 62.9715L121.976 62.1901C117.372 58.5131 111.566 56.5408 105.731 55.8105L105.607 56.8027ZM38.3008 39.478C37.9893 37.2444 37.9578 34.9804 38.2071 32.7381L37.2132 32.6276C36.9547 34.9526 36.9874 37.3001 37.3104 39.6162L38.3008 39.478ZM38.2101 32.6882C38.211 32.6018 38.2311 32.5164 38.269 32.4382L37.3692 32.002C37.267 32.2127 37.2127 32.4433 37.2102 32.6775L38.2101 32.6882ZM38.269 32.4382C38.3069 32.3601 38.3617 32.291 38.4297 32.236L37.8009 31.4584C37.6189 31.6057 37.4714 31.7912 37.3692 32.002L38.269 32.4382ZM38.37 32.2775C38.3733 32.2755 38.411 32.2418 38.5456 32.3287C38.6826 32.4172 38.8241 32.5811 38.911 32.751L39.8012 32.2953C39.6488 31.9976 39.3977 31.6886 39.0881 31.4887C38.7761 31.2871 38.313 31.1492 37.8606 31.4169L38.37 32.2775ZM38.9105 32.75C39.4268 33.7641 39.4326 34.9088 39.1159 36.0952C38.7983 37.2849 38.1655 38.4782 37.4619 39.5412L38.2958 40.0932C39.0301 38.9838 39.7256 37.6883 40.0821 36.3532C40.4393 35.0148 40.4648 33.5987 39.8017 32.2963L38.9105 32.75ZM37.4663 39.5347C35.8874 41.84 33.7963 44.4353 31.4364 46.6876C29.0717 48.9446 26.465 50.8303 23.8572 51.7556L24.1915 52.698C26.9863 51.7064 29.7122 49.7156 32.1269 47.411C34.5463 45.1019 36.6811 42.4508 38.2914 40.0997L37.4663 39.5347ZM23.8673 51.7521C17.6344 53.8147 11.0219 50.7174 6.10038 46.6285L5.46134 47.3976C10.4659 51.5556 17.4461 54.9303 24.1814 52.7015L23.8673 51.7521ZM6.09527 46.6243C4.87705 45.6391 3.68312 44.4657 2.86713 43.1784C2.05277 41.8937 1.63684 40.5327 1.89825 39.1408L0.915429 38.9562C0.592267 40.677 1.1236 42.2957 2.02252 43.7138C2.91981 45.1293 4.20518 46.3818 5.46645 47.4018L6.09527 46.6243ZM1.65842 39.4806C1.71785 39.446 1.76997 39.437 1.87737 39.4759C2.01302 39.525 2.17255 39.6302 2.39692 39.7953C2.59888 39.9439 2.85869 40.1454 3.12981 40.2924C3.40829 40.4433 3.75508 40.5701 4.15028 40.5273L4.04246 39.5331C3.92898 39.5454 3.79295 39.5144 3.60643 39.4132C3.41253 39.3081 3.22512 39.1632 2.98959 38.9899C2.77647 38.833 2.50823 38.6408 2.21777 38.5356C1.89905 38.4202 1.5267 38.4002 1.15526 38.6164L1.65842 39.4806ZM4.15852 40.5263C4.8532 40.4393 5.20177 39.9139 5.38787 39.4477C5.56711 38.9987 5.6627 38.4272 5.74769 38.0648L4.77412 37.8365C4.66411 38.3054 4.60143 38.7205 4.45914 39.0769C4.32372 39.4162 4.18753 39.5149 4.03422 39.5341L4.15852 40.5263ZM5.7498 38.0554C6.17953 36.0507 8.35256 34.653 10.5791 34.6025L10.5564 33.6027C8.02277 33.6602 5.32803 35.2519 4.77201 37.8459L5.7498 38.0554ZM10.5584 34.6025C12.8414 34.6452 14.9396 35.558 17.0241 36.8089C18.0657 37.4339 19.0909 38.1351 20.1306 38.8454C21.1657 39.5527 22.2152 40.269 23.2856 40.9076C25.425 42.1839 27.6996 43.1822 30.2342 43.2009C32.7819 43.2197 35.516 42.2492 38.576 39.7392L37.9418 38.966C35.0154 41.3665 32.5009 42.2176 30.2416 42.201C27.9693 42.1842 25.8785 41.2901 23.7979 40.0488C22.7583 39.4286 21.734 38.7299 20.6947 38.0198C19.66 37.3128 18.61 36.5943 17.5387 35.9514C15.3973 34.6664 13.1185 33.6502 10.5771 33.6027L10.5584 34.6025ZM37.8783 38.7011C35.3941 37.0612 32.3876 35.1087 29.5726 33.9469L29.1911 34.8713C31.9024 35.9903 34.8301 37.8871 37.3273 39.5356L37.8783 38.7011ZM29.5691 33.9455C27.6741 33.1802 25.5696 32.624 23.4489 32.092C21.3171 31.5571 19.1705 31.0468 17.1408 30.3699C13.0856 29.0175 9.61744 27.0378 7.8678 23.0307L6.95135 23.4308C8.87012 27.8253 12.6698 29.933 16.8244 31.3186C18.8997 32.0107 21.0936 32.532 23.2055 33.0619C25.3286 33.5946 27.3713 34.1364 29.1946 34.8727L29.5691 33.9455ZM7.87246 23.0417C7.3495 21.7613 7.1353 20.3254 7.03977 18.7955C6.94221 17.2331 6.97095 15.7068 6.90381 14.0846C6.77343 10.935 6.28133 7.75834 3.55646 5.52373L2.92235 6.29697C5.28887 8.23771 5.77581 11.0132 5.90466 14.1259C5.96712 15.6349 5.94552 17.3173 6.04172 18.8578C6.13995 20.4309 6.36362 21.9922 6.9467 23.4198L7.87246 23.0417ZM3.04715 6.37191C4.60728 7.02176 6.47427 7.74988 8.35895 7.5003L8.22768 6.50896C6.6468 6.7183 5.01929 6.11009 3.43166 5.44879L3.04715 6.37191ZM8.38407 7.49632C9.98336 7.20112 12.3883 6.61852 15.4656 6.82265C18.5316 7.02603 22.2774 8.01441 26.4951 10.9036L27.0603 10.0787C22.6915 7.08589 18.7726 6.03982 15.5318 5.82484C12.3023 5.61061 9.75834 6.22576 8.20255 6.51294L8.38407 7.49632ZM26.4954 10.9038C32.121 14.7524 34.4733 21.067 34.8772 27.7646L35.8753 27.7044C35.4608 20.8299 33.0324 14.1643 27.06 10.0785L26.4954 10.9038ZM34.8797 27.7935C35.3558 31.8018 36.175 35.7616 37.3283 39.6299L38.2866 39.3442C37.1496 35.5308 36.3421 31.627 35.8728 27.6756L34.8797 27.7935ZM37.2264 40.9352C37.3264 42.7609 37.7848 44.5487 38.5757 46.1975L39.4774 45.765C38.7432 44.2346 38.3177 42.5751 38.2249 40.8805L37.2264 40.9352ZM38.5755 46.1972C38.9529 46.9855 39.4089 47.7449 39.8202 48.472C40.2377 49.2102 40.6184 49.9301 40.8864 50.6896L41.8294 50.3569C41.5307 49.5102 41.1132 48.727 40.6906 47.9797C40.2616 47.2214 39.8353 46.5129 39.4775 45.7654L38.5755 46.1972ZM40.883 50.6796C41.4334 52.3508 41.4426 54.1529 40.909 55.8315L41.862 56.1345C42.4592 54.2556 42.4491 52.238 41.8328 50.3668L40.883 50.6796ZM40.909 55.8315C40.3753 57.5102 39.3259 58.9805 37.9084 60.0347L38.5052 60.8371C40.0903 59.6582 41.2647 58.0133 41.862 56.1345L40.909 55.8315ZM37.9184 60.0275C36.9291 60.7259 35.8006 61.2087 34.6281 61.7835C33.4805 62.3461 32.3117 62.9894 31.3945 63.9933L32.1328 64.6678C32.9143 63.8125 33.935 63.237 35.0683 62.6814C36.1767 62.138 37.4204 61.6031 38.4952 60.8444L37.9184 60.0275ZM31.3938 63.9941C31.2107 64.1954 31.0195 64.4678 30.9182 64.7713C30.8154 65.0791 30.7874 65.4881 31.0572 65.8474L31.8567 65.2468C31.8537 65.2428 31.825 65.2129 31.8667 65.088C31.9098 64.9588 32.0084 64.8045 32.1335 64.6671L31.3938 63.9941ZM31.1008 65.898C31.2226 66.0215 31.3692 66.1171 31.5305 66.1788L31.8878 65.2448C31.8592 65.2338 31.8338 65.2172 31.8131 65.1961L31.1008 65.898ZM31.5305 66.1788C31.6918 66.2405 31.8648 66.2672 32.0377 66.2567L31.9771 65.2585C31.9469 65.2604 31.9164 65.2557 31.8878 65.2448L31.5305 66.1788ZM32.0377 66.2567C32.2105 66.2462 32.379 66.1989 32.5317 66.1181L32.0644 65.234C32.0373 65.2484 32.0075 65.2567 31.9771 65.2585L32.0377 66.2567ZM32.5317 66.1181C32.6848 66.0372 32.8186 65.9245 32.9244 65.7877L32.1332 65.1761C32.1147 65.2001 32.0913 65.2198 32.0644 65.234L32.5317 66.1181ZM32.9386 65.7684C33.0974 65.5412 33.2055 65.2825 33.2552 65.0097L32.2714 64.8305C32.2476 64.9614 32.1957 65.0858 32.119 65.1954L32.9386 65.7684ZM33.2552 65.0097C33.3049 64.737 33.295 64.4569 33.2263 64.1884L32.2575 64.4365C32.2905 64.5653 32.2953 64.6996 32.2714 64.8305L33.2552 65.0097ZM33.2342 64.2253C33.0047 62.9288 32.1551 61.9991 31.2801 61.2087C31.059 61.009 30.8312 60.8139 30.6073 60.623C30.3817 60.4308 30.1608 60.2433 29.9454 60.0523C29.514 59.6699 29.123 59.2895 28.8064 58.8776L28.0136 59.487C28.3876 59.9736 28.8338 60.4032 29.282 60.8006C29.5064 60.9995 29.736 61.1943 29.9585 61.384C30.1827 61.5751 30.4005 61.7618 30.6098 61.9508C31.4561 62.7152 32.0818 63.4521 32.2496 64.3996L33.2342 64.2253ZM28.8131 58.8865C28.2653 58.1402 27.9298 57.2604 27.8416 56.3398L26.8461 56.4352C26.9516 57.5354 27.3526 58.5866 28.0069 59.4781L28.8131 58.8865ZM27.8416 56.3398C27.7533 55.4191 27.9156 54.4913 28.3117 53.6535L27.4076 53.2262C26.9347 54.2265 26.7407 55.3349 26.8461 56.4352L27.8416 56.3398ZM28.3085 53.6601C28.7211 52.8189 29.3521 52.114 30.0948 51.4405C30.4658 51.1039 30.8587 50.7804 31.2622 50.4518C31.6626 50.1256 32.0756 49.7927 32.4712 49.4484L31.8147 48.6941C31.4346 49.0249 31.0375 49.3451 30.6307 49.6764C30.227 50.0052 29.8157 50.3436 29.4229 50.6998C28.638 51.4117 27.903 52.2161 27.4107 53.2197L28.3085 53.6601ZM32.4723 49.4475C35.2623 47.0054 37.3179 43.84 38.4095 40.3042L37.454 40.0093C36.4172 43.3675 34.4646 46.3747 31.8137 48.6951L32.4723 49.4475ZM37.5921 40.2584C41.0237 45.2485 48.0801 47.8704 54.0311 46.982L53.8835 45.993C48.2604 46.8324 41.6038 44.3273 38.4161 39.6918L37.5921 40.2584ZM54.0315 46.9819C55.9105 46.6999 57.9227 46.0159 59.2412 44.4815L58.4828 43.8298C57.3935 45.0974 55.6659 45.7255 53.8831 45.993L54.0315 46.9819ZM59.2408 44.482C59.7126 43.9344 60.0806 43.2716 60.4096 42.6129C60.7499 41.9316 61.0351 41.2853 61.3784 40.6573C62.0532 39.4229 62.8138 38.5346 64.1143 38.3611L63.982 37.3699C62.19 37.609 61.2166 38.8686 60.501 40.1776C60.149 40.8213 59.8249 41.5456 59.515 42.1661C59.1937 42.8094 58.8705 43.3798 58.4832 43.8293L59.2408 44.482ZM64.0974 38.363C64.6087 38.3124 65.1792 38.5776 65.5524 39.01C65.9245 39.4409 66.0057 39.911 65.7952 40.2791L66.6632 40.7756C67.1557 39.9147 66.8512 38.9841 66.3094 38.3565C65.7688 37.7303 64.8972 37.279 63.9989 37.3679L64.0974 38.363ZM65.7843 40.2992C65.7068 40.4502 65.6068 40.4998 65.5033 40.5104C65.3799 40.5229 65.2059 40.4803 65.0332 40.3483L64.4259 41.1428C64.761 41.3989 65.1824 41.5482 65.6047 41.5052C66.0469 41.4602 66.4428 41.2066 66.6741 40.7555L65.7843 40.2992ZM65.0095 40.3313C64.0126 39.6575 63.6177 38.5319 63.3186 37.1205C63.1776 36.4552 63.0454 35.6583 62.8802 34.9496C62.7093 34.2163 62.4832 33.4745 62.1126 32.7988L61.2358 33.2797C61.5431 33.8401 61.7443 34.4812 61.9063 35.1766C62.0742 35.8966 62.1806 36.5741 62.3404 37.3278C62.6427 38.7547 63.0976 40.2461 64.4496 41.1598L65.0095 40.3313ZM62.113 32.7996C61.2902 31.293 59.8484 30.3477 58.2486 29.9111C56.6507 29.4751 54.8629 29.5355 53.2813 30.0671L53.6 31.015C54.9976 30.5452 56.5829 30.4932 57.9853 30.8759C59.3857 31.258 60.5711 32.0626 61.2354 33.2789L62.113 32.7996ZM53.2813 30.0671C50.1647 31.1148 47.8267 33.5038 45.7487 35.803L46.4907 36.4736C48.5749 34.1674 50.7582 31.9703 53.6 31.015L53.2813 30.0671ZM45.7486 35.8033C44.6659 37.0025 43.652 38.1597 42.358 38.9249L42.867 39.7857C44.3191 38.9269 45.439 37.6385 46.4908 36.4733L45.7486 35.8033ZM42.358 38.9249C41.07 39.6866 39.4979 39.9625 38.2606 39.3715L37.8296 40.2739C39.4722 41.0585 41.4089 40.648 42.867 39.7857L42.358 38.9249ZM38.3425 40.2246L42.4718 37.1687L41.877 36.3649L37.7477 39.4208L38.3425 40.2246ZM42.4708 37.1695C46.7342 34.0308 51.3104 30.5867 53.5254 25.5937L52.6113 25.1882C50.5212 29.8997 46.1785 33.1982 41.878 36.3642L42.4708 37.1695ZM53.5259 25.5926C54.7902 22.7232 55.2528 19.1563 55.0548 15.6412C54.8567 12.1246 53.995 8.61553 52.5683 5.85458L51.6799 6.31366C53.0301 8.92657 53.8646 12.293 54.0564 15.6975C54.2482 19.1034 53.7944 22.5031 52.6108 25.1893L53.5259 25.5926ZM52.5626 5.8439C51.252 3.45156 49.1821 1.35944 46.5543 0.411035L46.2148 1.35165C48.5603 2.19817 50.4618 4.09055 51.6855 6.32434L52.5626 5.8439ZM46.556 0.41165C46.1261 0.254757 45.616 0.132535 45.1135 0.142131C44.6074 0.151794 44.068 0.297811 43.6561 0.723342L44.3746 1.41884C44.5466 1.24118 44.7972 1.14835 45.1326 1.14195C45.4714 1.13548 45.854 1.21997 46.2131 1.35103L46.556 0.41165ZM43.6575 0.721909C43.0228 1.37234 43.0754 2.22892 43.1548 2.89018C43.1988 3.25758 43.251 3.55711 43.2759 3.88307C43.2996 4.1949 43.2901 4.46118 43.2254 4.6925L44.1885 4.96164C44.2981 4.56955 44.3007 4.171 44.273 3.80715C44.2463 3.45743 44.1836 3.07044 44.1476 2.77105C44.067 2.09877 44.0995 1.70076 44.3732 1.42027L43.6575 0.721909ZM43.8784 4.35738C43.5388 4.23342 43.2491 3.99774 42.9599 3.67435C42.654 3.3323 42.4174 2.97865 42.0925 2.56764L41.308 3.18785C41.5691 3.51801 41.8876 3.97541 42.2145 4.34093C42.558 4.7251 42.9786 5.0935 43.5355 5.29676L43.8784 4.35738ZM42.0968 2.57319C41.3998 1.66569 40.5245 1.08336 39.5941 1.11159C38.6375 1.14061 37.8396 1.80402 37.2945 2.90477L38.1906 3.34855C38.6449 2.43115 39.1766 2.12472 39.6244 2.11113C40.0983 2.09675 40.7022 2.39904 41.3037 3.18229L42.0968 2.57319ZM37.3053 2.88409C34.1539 8.56435 35.2071 15.7046 38.0624 21.3765L38.9556 20.9269C36.1826 15.4184 35.2493 8.65129 38.1798 3.36923L37.3053 2.88409ZM38.0629 21.3775C38.894 23.0193 39.7981 24.4821 40.3183 26.1318L41.272 25.831C40.7191 24.0774 39.7359 22.4682 38.9551 20.9259L38.0629 21.3775ZM40.3191 26.1342C40.9842 28.2064 40.9909 30.4344 40.9886 32.7135L41.9886 32.7144C41.9908 30.4625 41.9924 28.0751 41.2712 25.8286L40.3191 26.1342ZM40.9894 32.741C41.0398 33.6727 40.9385 34.6067 40.6894 35.5068L41.6531 35.7735C41.9311 34.7692 42.0442 33.7268 41.9879 32.6869L40.9894 32.741ZM40.7022 35.467C40.5554 35.8645 40.0846 36.6862 39.516 37.4545C39.2355 37.8335 38.9439 38.182 38.6729 38.4467C38.3855 38.7275 38.1787 38.8562 38.0697 38.8863L38.3357 39.8503C38.7053 39.7483 39.0661 39.4606 39.3717 39.1621C39.6937 38.8475 40.0204 38.4539 40.3198 38.0494C40.9108 37.2509 41.4456 36.3407 41.6403 35.8133L40.7022 35.467ZM37.912 38.3938C34.0256 32.4896 26.8434 28.8075 22.1066 28.1204L21.963 29.11C26.4477 29.7606 33.3637 33.3029 37.0768 38.9437L37.912 38.3938ZM22.1701 28.1338C20.7147 27.7247 19.56 27.1187 18.7272 26.4674C17.8863 25.8097 17.4032 25.1302 17.2341 24.5869C17.1508 24.3191 17.1491 24.1038 17.194 23.9411C17.2369 23.7855 17.3303 23.6468 17.5004 23.532C17.8638 23.2864 18.6112 23.135 19.8898 23.3788L20.0771 22.3965C18.7088 22.1355 17.6335 22.2352 16.9405 22.7033C16.5824 22.9453 16.3392 23.2792 16.23 23.6751C16.1227 24.0638 16.1532 24.479 16.2793 24.884C16.529 25.6863 17.1734 26.5217 18.1111 27.2551C19.0569 27.9947 20.3319 28.6558 21.8995 29.0965L22.1701 28.1338ZM19.8428 23.3674C23.049 24.3077 26.8164 27.0227 30.0768 30.127C33.3348 33.2289 35.9998 36.6361 37.0409 38.8792L37.9479 38.4583C36.8303 36.0501 34.0627 32.5412 30.7664 29.4027C27.4724 26.2665 23.5637 23.4166 20.1242 22.4078L19.8428 23.3674Z" fill="#FB8268"/>
</svg>
