<svg width="169" height="243" viewBox="0 0 169 243" fill="none" xmlns="http://www.w3.org/2000/svg">
<path opacity="0.1" d="M102.549 219.27C115.793 219.27 126.529 208.509 126.529 195.234C126.529 181.96 115.793 171.199 102.549 171.199C89.3048 171.199 78.5684 181.96 78.5684 195.234C78.5684 208.509 89.3048 219.27 102.549 219.27Z" fill="#FB8268"/>
<path opacity="0.1" d="M59.7269 101.546C76.6198 101.546 90.3142 87.8202 90.3142 70.8886C90.3142 53.9571 76.6198 40.2314 59.7269 40.2314C42.834 40.2314 29.1396 53.9571 29.1396 70.8886C29.1396 87.8202 42.834 101.546 59.7269 101.546Z" fill="#FB8268"/>
<path d="M123.838 195.48C114.539 180.274 102.872 180.22 76.8559 169.482C43.5769 155.748 10.6405 106.309 49.939 53.7207M50.1838 53.3184C59.2181 82.2588 85.9832 86.5606 122.84 83.642M123.862 196.053C124.577 198.611 124.975 201.247 125.047 203.901C125.069 204.085 125.051 204.271 124.994 204.448C124.938 204.624 124.844 204.785 124.719 204.922C124.229 205.299 123.544 204.838 123.197 204.338C121.484 201.885 122.438 198.452 123.735 195.764C126.628 189.941 131.703 182.446 137.546 179.41C144.583 175.976 152.825 178.601 159.119 182.549C162.256 184.457 165.525 187.312 165.349 190.986C164.443 191.693 163.269 190.005 162.163 190.285C161.208 190.535 161.233 191.854 161.159 192.84C160.964 195.548 158.404 197.633 155.732 198.069C144.76 199.369 135.476 183.261 123.402 196.357M124.156 196.51C127.249 198.006 130.929 199.747 134.252 200.625C143.184 202.906 155.507 200.964 161.003 210.009C164.37 215.865 162.021 225.215 168.471 229.188C166.572 228.697 164.482 228.207 162.544 228.697C159.05 229.85 151.665 232.97 140.972 227.574C133.734 223.915 130.019 216.895 128.482 209.17C127.316 204.691 125.772 200.319 123.867 196.103M123.735 194.484C123.346 192.487 122.573 190.584 121.46 188.883C120.383 187.234 119.013 185.792 118.092 184.041C117.148 182.106 116.835 179.922 117.198 177.799C117.561 175.675 118.581 173.72 120.114 172.21C122.223 170.218 125.189 169.144 126.833 166.75C127.127 166.319 127.357 165.686 126.99 165.313C126.897 165.242 126.79 165.192 126.677 165.166C126.563 165.139 126.446 165.138 126.331 165.16C126.217 165.183 126.109 165.23 126.014 165.298C125.919 165.365 125.84 165.453 125.781 165.554C125.675 165.765 125.614 165.997 125.604 166.234C125.594 166.471 125.634 166.707 125.722 166.927C126.525 169.434 129.603 170.282 131.453 172.146C132.266 172.989 132.837 174.037 133.106 175.178C133.375 176.319 133.331 177.512 132.98 178.631C132.241 180.882 130.347 182.511 128.796 184.296C126.064 187.439 124.263 191.283 123.593 195.397M123.593 195.592C119.081 190.598 110.869 188.725 104.419 190.618C102.378 191.211 100.357 192.256 99.2019 194.051C97.5624 196.602 97.7337 201.1 94.3079 202.057C92.7271 202.434 90.8038 200.865 91.4058 199.349C91.6749 198.604 92.4286 198.505 93.0795 198.859C96.0159 200.33 95.8348 204.588 97.7679 207.197C99.8821 210.082 104.296 210.386 107.497 208.801C110.698 207.217 112.939 204.22 114.946 201.257C115.973 199.742 116.996 198.177 118.43 197.034C119.864 195.891 121.807 195.229 123.549 195.793L119.341 199.903C110.306 208.36 105.603 215.649 109.146 228.265C110.575 234.019 114.006 240.258 120.192 241.632C121.132 241.833 122.287 241.823 122.859 241.043C123.74 239.841 122.419 238.178 122.615 236.697C123.677 236.942 124.42 237.859 125.203 238.615C126.965 240.351 128.83 240.189 129.672 237.722C132.261 230.978 130.039 223.183 125.957 217.228C124.792 215.531 123.476 213.917 122.59 212.058C121.469 209.694 121.097 207.055 120.745 204.46C120.531 203.338 120.5 202.188 120.652 201.056C120.867 199.938 122.394 196.779 123.442 196.332M168.236 229.173C163.694 227.245 158.981 225.195 155.795 221.423C154.215 219.554 153.065 216.846 154.239 214.698C154.293 214.582 154.37 214.478 154.466 214.393C154.562 214.309 154.675 214.245 154.797 214.207C154.931 214.195 155.067 214.217 155.189 214.273C155.312 214.329 155.418 214.416 155.497 214.526C156.216 215.375 155.776 216.792 154.856 217.415C153.936 218.038 152.737 218.053 151.636 217.906C149.92 217.673 148.266 217.103 146.771 216.228C145.342 215.394 144.045 214.266 142.455 213.82C140.864 213.373 138.809 213.869 138.251 215.429C138.197 215.541 138.17 215.665 138.17 215.789C138.17 215.914 138.197 216.037 138.251 216.15C138.34 216.262 138.455 216.349 138.587 216.405C138.719 216.461 138.862 216.483 139.004 216.469C140.335 216.469 141.451 215.242 141.637 213.923C141.985 211.088 139.386 209.121 137.233 207.811L132.03 204.49C130.828 203.797 129.722 202.947 128.742 201.964C126.921 199.963 126.006 196.941 123.505 195.926M52.5672 81.0916C52.9049 79.7279 52.5084 78.173 52.1463 76.8535C51.7704 75.5588 51.3094 74.2905 50.7662 73.0569C49.9636 71.1586 48.9897 69.275 48.4465 67.2835C48.0417 65.7078 47.8281 64.0888 47.8102 62.4617C47.7368 59.4451 48.0305 55.7712 50.0272 53.3186C50.0545 53.2904 50.0891 53.2703 50.1272 53.2608C50.1652 53.2513 50.2052 53.2526 50.2425 53.2646L50.913 53.5393L53.913 54.7803C55.2049 55.2861 56.5399 55.6736 57.9016 55.9379C62.3257 56.8797 66.8722 57.0023 71.3747 56.8405C72.373 56.8061 73.3861 56.8356 74.3649 56.8061C74.6879 56.7963 75.0158 56.757 75.3437 56.757C75.5375 56.7112 75.7374 56.6963 75.9359 56.7129C76.0631 56.7522 76.1365 56.8797 76.2295 56.968C76.4155 57.1547 76.6225 57.3193 76.8461 57.4585C78.7988 58.6603 81.2213 58.0618 83.1349 57.0808C86.3257 55.4866 89.683 52.21 93.5541 53.3382C94.2422 53.5103 94.8818 53.8381 95.4239 54.2964C95.9659 54.7547 96.3961 55.3313 96.6814 55.9821C97.0044 56.8356 96.745 57.7185 96.9456 58.5622C97.1463 59.4059 97.9293 59.6708 98.6977 59.7542C100.024 59.8915 101.57 59.6462 102.686 60.4899C103.802 61.3336 103.915 62.8787 103.729 64.1639C103.469 65.9837 102.427 67.6367 102.427 69.5105C102.446 71.8453 104.61 72.6694 106.626 72.3358C108.554 72.0219 110.238 70.8496 112.195 70.6534C113.668 70.5013 115.362 71.1439 116.042 72.5468C116.185 72.8439 116.264 73.1684 116.271 73.4985C116.279 73.8285 116.216 74.1564 116.086 74.4598C115.743 75.2691 114.911 75.9706 114.892 76.9124C114.872 77.8542 115.748 78.4771 116.566 78.7174C117.544 79.0068 118.552 78.7175 119.502 78.3937C121.053 77.8591 122.404 77.4519 124.044 77.7364C125.042 77.913 126.549 78.3447 126.73 79.5268C126.774 79.8064 126.353 79.9241 126.319 79.6102C126.182 78.7567 125.169 78.4182 124.445 78.2367C123.515 77.9871 122.54 77.957 121.597 78.1485C120.388 78.4281 119.272 79.0215 118.039 79.203C116.497 79.4336 114.187 78.5114 114.495 76.5984C114.672 75.5095 115.753 74.7737 115.846 73.6553C115.954 72.4585 114.794 71.5314 113.747 71.2028C111.3 70.4376 108.916 72.4486 106.557 72.7724C104.614 73.0422 102.446 72.3506 102.065 70.1825C101.668 67.9359 103.146 65.9346 103.352 63.7567C103.445 62.8002 103.371 61.7162 102.613 60.9706C101.854 60.225 100.709 60.2545 99.7303 60.225C98.9607 60.2731 98.1901 60.1491 97.4742 59.862C96.652 59.4304 96.4611 58.5965 96.4611 57.7283C96.4758 56.5315 96.2409 55.5749 95.3159 54.7509C94.4732 54.0297 93.4175 53.6058 92.3111 53.5442C89.6683 53.3823 87.3045 55.1188 85.1708 56.4284C83.1251 57.6842 80.7124 58.9301 78.2654 58.4395C77.6891 58.3323 77.1369 58.1212 76.6357 57.8166C76.4647 57.7102 76.3012 57.5922 76.1463 57.4634C76.0371 57.3422 75.8965 57.2538 75.7401 57.2079C75.5837 57.162 75.4177 57.1604 75.2605 57.2034C74.0125 57.2721 72.7597 57.2329 71.5068 57.2721C65.9962 57.4487 60.4073 57.2623 55.0876 55.6632C53.9228 55.3051 52.8119 54.7852 51.6912 54.3241C51.2231 54.0743 50.7313 53.8722 50.223 53.7208C50.0321 53.6865 50.267 53.7208 50.267 53.7208C50.1496 53.8728 50.0174 54.0347 49.9049 54.2113C49.6867 54.5669 49.4969 54.9392 49.3372 55.3248C48.6201 57.2038 48.2551 59.1992 48.2605 61.211C48.1796 63.168 48.3757 65.1266 48.8429 67.0285C49.4644 69.4173 50.683 71.6246 51.5884 73.8957C52.0836 75.0881 52.483 76.3183 52.7825 77.5746C53.0468 78.7665 53.2915 80.037 52.9978 81.2191L52.8461 80.9493C53.6623 81.2048 54.3967 81.6718 54.975 82.3031C56.2611 83.7872 57.287 85.4788 58.0093 87.3064C58.714 88.93 59.0859 90.5977 59.8347 92.2753C60.5835 93.9528 61.7923 95.3116 63.6912 95.4735C65.59 95.6353 67.4546 94.8652 69.3584 95.1988C72.4562 95.7433 74.4334 98.5588 76.9978 100.104C77.7373 100.589 78.5716 100.91 79.4448 101.046C80.5704 101.163 81.1822 100.467 81.5933 99.5153C82.1512 98.2105 82.5623 97.0039 83.8249 96.2043C86.2621 94.6641 89.5998 95.2675 92.0076 96.5281C93.6863 97.4061 95.2181 98.5735 96.8233 99.5398C98.4285 100.506 100.582 101.723 102.539 101.232C104.996 100.624 105.882 97.6219 106.988 95.6599C107.502 94.6388 108.259 93.7597 109.19 93.0994C110.752 92.1183 112.528 92.5598 114.256 92.6089C117.549 92.6972 119.536 89.6265 120.946 87.0464C121.308 86.3891 121.645 85.7171 121.978 85.0451C122.135 84.7066 122.301 84.3731 122.468 84.0347C122.55 83.791 122.68 83.5659 122.849 83.3724C123.095 83.2293 123.352 83.1063 123.618 83.0045C123.82 82.8966 124.016 82.7789 124.205 82.6514C124.58 82.4012 124.93 82.1136 125.247 81.793C125.568 81.5201 125.827 81.1823 126.007 80.8018C126.188 80.4214 126.286 80.0068 126.295 79.5857C126.275 79.3012 126.735 79.3061 126.735 79.5857C126.754 80.2381 126.549 80.8774 126.153 81.3957C125.683 82.0443 125.097 82.5998 124.425 83.034C124.039 83.294 123.535 83.4362 123.172 83.7109C122.951 83.9651 122.784 84.2624 122.683 84.584C122.029 85.9924 121.297 87.3631 120.491 88.6897C119.754 89.9562 118.788 91.074 117.642 91.9859C116.431 92.8539 114.931 93.2162 113.458 92.9963C112.371 92.9031 111.236 92.7266 110.174 93.0945C109.563 93.3174 109.014 93.684 108.574 94.1638C107.751 95.14 107.073 96.2305 106.562 97.4012C105.446 99.5987 104.032 102.051 101.179 101.728C97.342 101.296 94.4987 98.1026 91.112 96.5673C88.4693 95.3655 84.099 95.1203 82.5965 98.2007C81.9946 99.4319 81.7205 101.222 80.0957 101.472C78.5737 101.703 76.9195 100.648 75.7548 99.79C74.453 98.8384 73.3323 97.7053 72.006 96.8175C71.3491 96.3558 70.6242 96 69.8575 95.7628C68.8878 95.5187 67.8783 95.477 66.8918 95.6402C65.1055 95.856 63.1871 96.2779 61.5672 95.2233C60.2898 94.3894 59.5949 92.9571 59.0761 91.569C58.3959 89.7393 57.8673 87.8901 56.9668 86.1389C56.0223 84.3044 54.8282 82.0137 52.7238 81.3613M52.5672 81.0916C52.5536 81.1481 52.5622 81.2077 52.5914 81.258C52.6206 81.3082 52.668 81.3452 52.7238 81.3613M52.5672 81.0916L52.7238 81.3613M52.5672 81.0916C52.4838 81.4246 52.3031 81.7252 52.0484 81.9548C51.8828 82.0843 51.7 82.1899 51.5052 82.2687C51.3935 82.3136 51.2791 82.3514 51.1626 82.3816C51.063 82.4084 50.9616 82.428 50.8592 82.4404H50.59M52.7238 81.3613C52.2958 81.2302 51.8428 81.2033 51.4024 81.2828C50.953 81.3774 50.5511 81.6275 50.267 81.9891C50.2245 82.0288 50.1685 82.0508 50.1104 82.0508C50.0523 82.0508 49.9964 82.0288 49.9538 81.9891C49.9153 81.946 49.894 81.8901 49.894 81.8322C49.894 81.7743 49.9153 81.7184 49.9538 81.6752C50.3086 81.2802 50.7723 80.9994 51.2862 80.8685C51.8001 80.7375 52.3413 80.7622 52.8412 80.9394C52.8968 80.9555 52.9438 80.9927 52.9722 81.0432C53.0006 81.0937 53.008 81.1533 52.9929 81.2092C52.8745 81.662 52.6136 82.0645 52.2491 82.357C51.794 82.7018 51.2388 82.8878 50.6683 82.8868C50.5451 82.8901 50.4226 82.8675 50.3087 82.8201C50.1949 82.7728 50.0923 82.7019 50.0076 82.6121C49.9242 82.491 49.8709 82.3517 49.8522 82.2058C49.8335 82.0599 49.8499 81.9116 49.9 81.7733C49.9201 81.7004 49.9683 81.6386 50.0339 81.6014C50.0995 81.5641 50.1772 81.5545 50.2499 81.5747C50.3226 81.5948 50.3843 81.6431 50.4215 81.7089C50.4586 81.7746 50.4682 81.8525 50.4481 81.9254C50.4261 81.9887 50.4129 82.0547 50.4089 82.1216V82.2148C50.4089 82.2589 50.4089 82.2148 50.4089 82.2589C50.4068 82.2802 50.4068 82.3015 50.4089 82.3227C50.3698 82.2786 50.3796 82.308 50.4089 82.3521C50.4089 82.3766 50.4481 82.3767 50.4089 82.3767L50.4677 82.411C50.507 82.426 50.5481 82.4359 50.59 82.4404M50.59 82.4404C50.5558 82.4404 50.6438 82.4404 50.59 82.4404ZM1.24414 1.24512C19.7923 4.18821 44.2719 17.4812 49.9587 52.5138C50.037 52.7836 50.1202 53.0534 50.2034 53.3182M79.3323 53.2695C79.0859 52.8587 78.7176 52.5353 78.2789 52.3445C77.8402 52.1536 77.353 52.1049 76.8853 52.2051C76.379 52.297 75.9145 52.5464 75.5578 52.918C75.2011 53.2896 74.9704 53.7645 74.8983 54.2751C74.8056 54.8217 74.8493 55.3829 75.0256 55.9085C75.1126 56.1712 75.2327 56.4218 75.3828 56.6541C75.4643 56.7807 75.556 56.9005 75.6569 57.0121C75.7793 57.1544 75.8771 57.1446 76.0533 57.125C76.9639 57.053 77.8365 56.7287 78.5737 56.1881C79.4252 55.472 79.5525 54.3584 79.3421 53.3235C79.2882 53.0439 78.8527 53.1616 78.9163 53.4412C79.0827 54.3144 78.9995 55.2365 78.2899 55.8496C77.5829 56.3616 76.7433 56.658 75.8722 56.7031L76.0288 56.7669C75.6679 56.369 75.427 55.8766 75.3343 55.3469C75.2416 54.8172 75.3009 54.272 75.5052 53.7748C75.6986 53.3524 76.0319 53.0102 76.4486 52.8063C76.8652 52.6024 77.3395 52.5494 77.7907 52.6564C78.0317 52.7021 78.2598 52.8005 78.4586 52.9447C78.6574 53.0888 78.822 53.2751 78.9408 53.4903C79.0827 53.7453 79.4595 53.5197 79.3323 53.2695ZM60.2849 70.6143C67.4252 74.7101 76.8314 74.7592 82.063 72.9933C89.3746 71.5218 93.4709 76.2159 87.3289 77.9769C79.2539 79.4975 65.0859 74.4207 60.2849 70.6143Z" stroke="#FB8268" stroke-linecap="round" stroke-linejoin="round"/>
</svg>
