<svg width="112" height="74" viewBox="0 0 112 74" fill="none" xmlns="http://www.w3.org/2000/svg">
<path opacity="0.15" d="M33.916 52.0498C41.413 54.7377 49.6648 50.8523 52.3471 43.3713C55.0293 35.8903 51.1262 27.6468 43.6292 24.9588C36.1322 22.2708 27.8803 26.1563 25.1981 33.6373C22.5159 41.1182 26.419 49.3618 33.916 52.0498Z" fill="#FFAB5C"/>
<path d="M66.5399 56.0637L66.4983 56.5619L66.4984 56.5619L66.5399 56.0637ZM83.0305 54.7703L83.0957 55.266L83.0958 55.266L83.0305 54.7703ZM35.8406 40.6434C35.8715 40.369 35.6741 40.1214 35.3997 40.0905C35.1253 40.0596 34.8778 40.257 34.8469 40.5314L35.8406 40.6434ZM30.637 64.786C30.5367 65.0433 30.6639 65.3332 30.9212 65.4335C31.1784 65.5338 31.4683 65.4066 31.5687 65.1493L30.637 64.786ZM38.1816 40.2677C38.0919 40.0066 37.8074 39.8676 37.5463 39.9573C37.2851 40.047 37.1461 40.3315 37.2359 40.5926L38.1816 40.2677ZM43.8452 64.325C43.8653 64.6004 44.1049 64.8074 44.3803 64.7873C44.6557 64.7672 44.8626 64.5276 44.8425 64.2522L43.8452 64.325ZM40.0859 33.4245C39.8698 33.5963 39.8339 33.9109 40.0057 34.127C40.1776 34.3432 40.4921 34.3791 40.7083 34.2072L40.0859 33.4245ZM60.8826 20.0594C61.1358 19.9492 61.2517 19.6546 61.1414 19.4014C61.0312 19.1482 60.7365 19.0324 60.4834 19.1426L60.8826 20.0594ZM40.6048 37.9105C40.3435 37.8213 40.0593 37.9609 39.9701 38.2222C39.8809 38.4835 40.0204 38.7677 40.2818 38.8569L40.6048 37.9105ZM67.8047 43.6625C68.0808 43.6635 68.3055 43.4406 68.3066 43.1644C68.3077 42.8883 68.0847 42.6635 67.8085 42.6625L67.8047 43.6625ZM31.3427 36.4337C31.6181 36.4535 31.8575 36.2464 31.8774 35.971C31.8973 35.6955 31.6901 35.4561 31.4147 35.4363L31.3427 36.4337ZM4.89084 31.9263C4.62966 31.8366 4.34525 31.9757 4.2556 32.2368C4.16595 32.498 4.305 32.7824 4.56619 32.8721L4.89084 31.9263ZM34.3619 40.378C34.4863 40.1314 34.3872 39.8307 34.1407 39.7064C33.8941 39.582 33.5935 39.681 33.4691 39.9276L34.3619 40.378ZM20.3419 62.4869C20.1583 62.6932 20.1768 63.0093 20.3831 63.1928C20.5894 63.3764 20.9054 63.3579 21.089 63.1516L20.3419 62.4869ZM38.7262 40.1872C38.5763 39.9552 38.2668 39.8887 38.0349 40.0385C37.8029 40.1883 37.7363 40.4978 37.8862 40.7298L38.7262 40.1872ZM51.9687 65.672C52.0542 65.9346 52.3363 66.0781 52.5989 65.9926C52.8615 65.9071 53.005 65.6249 52.9195 65.3624L51.9687 65.672ZM32.5758 32.409C32.7052 32.653 33.0078 32.7459 33.2518 32.6166C33.4958 32.4872 33.5887 32.1846 33.4593 31.9406L32.5758 32.409ZM22.6478 8.24833C22.5852 7.97939 22.3163 7.81219 22.0474 7.87487C21.7785 7.93754 21.6113 8.20637 21.6739 8.4753L22.6478 8.24833ZM31.8203 38.3168C32.0762 38.2131 32.1996 37.9216 32.0959 37.6657C31.9922 37.4097 31.7007 37.2863 31.4448 37.39L31.8203 38.3168ZM6.22596 45.9003C5.95202 45.9351 5.75817 46.1854 5.79298 46.4594C5.82779 46.7333 6.07808 46.9271 6.35202 46.8923L6.22596 45.9003ZM39.1953 32.2814C39.0282 32.5013 39.071 32.815 39.2909 32.982C39.5107 33.1491 39.8244 33.1063 39.9915 32.8864L39.1953 32.2814ZM57.8996 12.0327C58.1175 11.8632 58.1568 11.549 57.9872 11.3311C57.8176 11.1131 57.5035 11.0739 57.2855 11.2435L57.8996 12.0327ZM31.7344 33.6931C31.9537 33.861 32.2675 33.8192 32.4354 33.5999C32.6032 33.3806 32.5614 33.0668 32.3421 32.899L31.7344 33.6931ZM13.5673 16.6977C13.3977 16.4798 13.0835 16.4407 12.8656 16.6104C12.6478 16.7801 12.6087 17.0942 12.7784 17.3121L13.5673 16.6977ZM31.3091 35.0721C31.5725 35.1552 31.8533 35.009 31.9364 34.7457C32.0195 34.4823 31.8734 34.2015 31.6101 34.1184L31.3091 35.0721ZM9.76415 25.7698C9.53079 25.6222 9.22193 25.6917 9.07429 25.9251C8.92665 26.1584 8.99615 26.4673 9.22951 26.6149L9.76415 25.7698ZM32.8888 39.7264C33.1096 39.5606 33.1542 39.2472 32.9884 39.0263C32.8227 38.8055 32.5092 38.7609 32.2884 38.9267L32.8888 39.7264ZM11.6807 52.5584C11.4247 52.6621 11.3013 52.9536 11.405 53.2095C11.5087 53.4655 11.8002 53.5889 12.0561 53.4852L11.6807 52.5584ZM41.1315 36.0768C40.8732 35.9792 40.5847 36.1095 40.4871 36.3679C40.3895 36.6262 40.5198 36.9147 40.7781 37.0123L41.1315 36.0768ZM63.1515 37.5798C63.427 37.5606 63.6348 37.3217 63.6156 37.0463C63.5964 36.7708 63.3576 36.563 63.0821 36.5822L63.1515 37.5798ZM37.0399 40.8687C37.0326 40.5927 36.803 40.3748 36.5269 40.382C36.2509 40.3892 36.033 40.6189 36.0402 40.8949L37.0399 40.8687ZM35.095 69.0037C35.031 69.2723 35.1968 69.542 35.4655 69.606C35.7341 69.67 36.0037 69.5041 36.0677 69.2355L35.095 69.0037ZM34.4775 31.3135C34.5089 31.5878 34.7567 31.7848 35.0311 31.7534C35.3054 31.722 35.5024 31.4741 35.471 31.1998L34.4775 31.3135ZM34.1132 6.19372C34.1533 5.92051 33.9644 5.66651 33.6912 5.6264C33.418 5.58628 33.164 5.77525 33.1238 6.04846L34.1132 6.19372ZM37.9331 31.2165C37.7864 31.4505 37.8572 31.759 38.0912 31.9057C38.3251 32.0524 38.6337 31.9816 38.7804 31.7476L37.9331 31.2165ZM50.5183 10.2388C50.6 9.97503 50.4525 9.69493 50.1887 9.61319C49.9249 9.53144 49.6449 9.679 49.5631 9.94276L50.5183 10.2388ZM35.8557 30.928C35.7822 31.1942 35.9383 31.4695 36.2045 31.5431C36.4707 31.6166 36.7461 31.4605 36.8196 31.1943L35.8557 30.928ZM43.0251 3.55825C43.0222 3.28213 42.7961 3.06062 42.5199 3.0635C42.2438 3.06639 42.0223 3.29257 42.0252 3.5687L43.0251 3.55825ZM41.027 34.8977C40.7531 34.9324 40.5592 35.1827 40.5939 35.4566C40.6287 35.7306 40.879 35.9245 41.1529 35.8897L41.027 34.8977ZM67.8095 30.8532C68.0652 30.749 68.188 30.4572 68.0838 30.2015C67.9797 29.9458 67.6879 29.8229 67.4321 29.9271L67.8095 30.8532ZM38.916 39.591C45.8542 47.7736 55.6405 55.6561 66.4983 56.5619L66.5814 55.5654C56.126 54.6931 46.5635 47.0638 39.6787 38.9443L38.916 39.591ZM66.4984 56.5619C72.0752 57.0267 77.6559 55.9813 83.0957 55.266L82.9653 54.2745C77.4469 55.0001 72.0197 56.0186 66.5814 55.5654L66.4984 56.5619ZM83.0958 55.266C88.0117 54.6183 92.9592 54.2208 97.8367 54.8023L97.9551 53.8093C92.9523 53.2129 87.9062 53.6235 82.9652 54.2745L83.0958 55.266ZM97.8367 54.8023C102.712 55.3836 107.515 56.9984 111.312 59.992L111.931 59.2068C107.952 56.0696 102.96 54.406 97.9551 53.8093L97.8367 54.8023ZM40.1568 37.3501C39.3666 39.5539 36.9348 40.7001 34.7239 39.9074L34.3864 40.8487C37.1153 41.8271 40.1209 40.4131 41.0981 37.6876L40.1568 37.3501ZM34.7239 39.9074C32.5129 39.1147 31.3634 36.6844 32.1536 34.4806L31.2122 34.1431C30.235 36.8687 31.6574 39.8703 34.3864 40.8487L34.7239 39.9074ZM32.1536 34.4806C32.9437 32.2768 35.3755 31.1306 37.5865 31.9233L37.924 30.982C35.195 30.0035 32.1895 31.4175 31.2122 34.1431L32.1536 34.4806ZM37.5865 31.9233C39.7975 32.716 40.9469 35.1463 40.1568 37.3501L41.0981 37.6876C42.0753 34.962 40.6529 31.9604 37.924 30.982L37.5865 31.9233ZM35.3438 40.5874C34.8469 40.5314 34.8469 40.5315 34.8469 40.5316C34.8469 40.5318 34.8468 40.532 34.8468 40.5322C34.8467 40.5328 34.8467 40.5336 34.8465 40.5348C34.8463 40.537 34.8459 40.5404 34.8454 40.5449C34.8443 40.554 34.8428 40.5675 34.8408 40.5855C34.8367 40.6213 34.8306 40.6748 34.8225 40.7447C34.8064 40.8847 34.7824 41.0908 34.7512 41.3552C34.6887 41.884 34.5971 42.6456 34.4806 43.5766C34.2476 45.4387 33.915 47.977 33.517 50.683C33.1188 53.3898 32.6557 56.2603 32.1616 58.7879C31.6656 61.326 31.1446 63.4842 30.637 64.786L31.5687 65.1493C32.1121 63.7555 32.6469 61.5184 33.1431 58.9797C33.6413 56.4306 34.107 53.543 34.5063 50.8286C34.9057 48.1134 35.2392 45.5676 35.4729 43.7008C35.5897 42.7673 35.6816 42.0033 35.7443 41.4725C35.7757 41.2071 35.7997 41.0001 35.8159 40.8592C35.8241 40.7888 35.8302 40.7349 35.8343 40.6986C35.8364 40.6805 35.838 40.6667 35.839 40.6575C35.8395 40.6528 35.8399 40.6493 35.8402 40.647C35.8403 40.6458 35.8404 40.6449 35.8405 40.6443C35.8405 40.644 35.8406 40.6438 35.8406 40.6436C35.8406 40.6435 35.8406 40.6434 35.3438 40.5874ZM37.7087 40.4302C37.2359 40.5926 37.2359 40.5927 37.2359 40.5928C37.236 40.5929 37.236 40.5931 37.2361 40.5934C37.2363 40.5939 37.2366 40.5947 37.237 40.5958C37.2377 40.5979 37.2388 40.6012 37.2403 40.6055C37.2432 40.6141 37.2477 40.627 37.2535 40.6441C37.2652 40.6783 37.2826 40.7292 37.3053 40.796C37.3508 40.9294 37.4176 41.1261 37.5028 41.3785C37.6732 41.8834 37.9172 42.6113 38.2114 43.503C38.7997 45.2865 39.5885 47.7241 40.3902 50.3413C41.1921 52.9592 42.0058 55.7529 42.6449 58.2496C43.2866 60.7566 43.7434 62.9309 43.8452 64.325L44.8425 64.2522C44.7336 62.7603 44.2555 60.5092 43.6137 58.0016C42.9692 55.4837 42.1505 52.6736 41.3463 50.0484C40.5419 47.4224 39.7509 44.9777 39.161 43.1897C38.8661 42.2956 38.6213 41.5655 38.4503 41.0587C38.3648 40.8053 38.2977 40.6078 38.2519 40.4734C38.229 40.4063 38.2115 40.355 38.1997 40.3204C38.1937 40.3031 38.1892 40.29 38.1862 40.2811C38.1847 40.2767 38.1836 40.2734 38.1828 40.2712C38.1824 40.27 38.1821 40.2692 38.1819 40.2686C38.1818 40.2683 38.1817 40.2681 38.1817 40.268C38.1816 40.2678 38.1816 40.2677 37.7087 40.4302ZM40.3971 33.8158C40.7083 34.2072 40.7083 34.2072 40.7084 34.2071C40.7085 34.207 40.7087 34.2069 40.7089 34.2067C40.7093 34.2064 40.71 34.2059 40.7109 34.2051C40.7127 34.2037 40.7153 34.2016 40.7189 34.1988C40.726 34.1931 40.7367 34.1846 40.7509 34.1734C40.7792 34.151 40.8213 34.1176 40.8766 34.0739C40.9871 33.9864 41.1501 33.8578 41.3595 33.6932C41.7782 33.364 42.3826 32.891 43.1245 32.316C44.6086 31.1659 46.6423 29.6087 48.8416 27.9795C51.0415 26.3499 53.4039 24.6506 55.5461 23.2155C57.6971 21.7744 59.5973 20.6192 60.8826 20.0594L60.4834 19.1426C59.1073 19.7419 57.1411 20.9432 54.9895 22.3847C52.829 23.8321 50.4526 25.5417 48.2464 27.176C46.0396 28.8107 43.9998 30.3726 42.512 31.5256C41.768 32.1021 41.1618 32.5766 40.7414 32.9071C40.5313 33.0723 40.3675 33.2015 40.2563 33.2895C40.2007 33.3335 40.1582 33.3672 40.1295 33.3899C40.1152 33.4012 40.1043 33.4099 40.0971 33.4156C40.0934 33.4185 40.0906 33.4207 40.0888 33.4222C40.0879 33.4229 40.0872 33.4235 40.0867 33.4239C40.0864 33.4241 40.0863 33.4242 40.0861 33.4243C40.086 33.4244 40.0859 33.4245 40.3971 33.8158ZM40.4433 38.3837C40.2818 38.8569 40.2819 38.857 40.2821 38.857C40.2822 38.8571 40.2824 38.8571 40.2827 38.8572C40.2832 38.8574 40.2839 38.8576 40.2849 38.858C40.2867 38.8586 40.2894 38.8595 40.293 38.8607C40.3 38.8631 40.3104 38.8666 40.3241 38.8712C40.3515 38.8804 40.392 38.894 40.4451 38.9115C40.5514 38.9467 40.7084 38.998 40.9126 39.0632C41.3209 39.1936 41.9183 39.3796 42.6769 39.6027C44.194 40.0489 46.3568 40.644 48.9437 41.2406C54.1133 42.433 60.9943 43.636 67.8047 43.6625L67.8085 42.6625C61.1019 42.6364 54.3013 41.4501 49.1684 40.2662C46.6041 39.6747 44.4606 39.085 42.9591 38.6433C42.2084 38.4226 41.6184 38.2389 41.2168 38.1106C41.0159 38.0465 40.8622 37.9962 40.7591 37.9621C40.7075 37.945 40.6686 37.932 40.6427 37.9233C40.6298 37.919 40.6201 37.9157 40.6138 37.9136C40.6106 37.9125 40.6083 37.9117 40.6068 37.9112C40.606 37.9109 40.6055 37.9108 40.6052 37.9107C40.605 37.9106 40.6049 37.9106 40.6048 37.9105C40.6048 37.9105 40.6048 37.9105 40.4433 38.3837ZM31.3787 35.935C31.4147 35.4363 31.4147 35.4363 31.4145 35.4362C31.4144 35.4362 31.4142 35.4362 31.4139 35.4362C31.4132 35.4361 31.4123 35.4361 31.4111 35.436C31.4086 35.4358 31.4049 35.4355 31.4 35.4352C31.3901 35.4345 31.3753 35.4334 31.3558 35.432C31.3166 35.4291 31.2584 35.4248 31.182 35.4191C31.0294 35.4077 30.8046 35.3906 30.5162 35.3683C29.9395 35.3235 29.1087 35.2572 28.0931 35.1713C26.0616 34.9995 23.2916 34.7493 20.3366 34.4354C17.3808 34.1214 14.2439 33.7441 11.4775 33.3186C8.7006 32.8915 6.33116 32.4206 4.89084 31.9263L4.56619 32.8721C6.09941 33.3984 8.548 33.8798 11.3255 34.307C14.1136 34.7358 17.2675 35.115 20.231 35.4298C23.1951 35.7446 25.9726 35.9956 28.0088 36.1678C29.027 36.2539 29.8601 36.3203 30.4388 36.3653C30.7282 36.3877 30.954 36.4048 31.1075 36.4163C31.1843 36.422 31.243 36.4264 31.2825 36.4293C31.3023 36.4307 31.3173 36.4318 31.3274 36.4325C31.3324 36.4329 31.3362 36.4332 31.3388 36.4334C31.3401 36.4335 31.341 36.4335 31.3417 36.4336C31.342 36.4336 31.3423 36.4336 31.3424 36.4336C31.3426 36.4337 31.3427 36.4337 31.3787 35.935ZM33.9155 40.1528C33.4691 39.9276 33.4691 39.9276 33.469 39.9277C33.4689 39.9279 33.4688 39.9281 33.4687 39.9283C33.4684 39.9289 33.468 39.9297 33.4675 39.9307C33.4664 39.9329 33.4648 39.9361 33.4626 39.9404C33.4582 39.949 33.4517 39.9619 33.4431 39.979C33.4258 40.0132 33.4 40.064 33.3662 40.1306C33.2986 40.2638 33.1988 40.4599 33.0704 40.7111C32.8134 41.2136 32.4417 41.9369 31.9828 42.8192C31.065 44.584 29.7991 46.9843 28.4062 49.5271C27.0129 52.0705 25.4945 54.753 24.0716 57.0835C22.6431 59.4231 21.3286 61.378 20.3419 62.4869L21.089 63.1516C22.1413 61.9689 23.4963 59.9447 24.9251 57.6046C26.3595 55.2554 27.8862 52.5577 29.2832 50.0075C30.6806 47.4566 31.95 45.0496 32.87 43.2806C33.3301 42.396 33.7029 41.6707 33.9607 41.1664C34.0897 40.9142 34.1899 40.7173 34.2579 40.5833C34.2919 40.5163 34.3179 40.4651 34.3353 40.4305C34.3441 40.4133 34.3507 40.4002 34.3551 40.3914C34.3574 40.387 34.359 40.3836 34.3602 40.3814C34.3607 40.3803 34.3612 40.3794 34.3615 40.3789C34.3616 40.3786 34.3617 40.3783 34.3618 40.3782C34.3619 40.3781 34.3619 40.378 33.9155 40.1528ZM38.3062 40.4585C37.8862 40.7298 37.8862 40.7298 37.8863 40.73C37.8864 40.7301 37.8865 40.7303 37.8867 40.7306C37.887 40.7311 37.8875 40.7319 37.8883 40.7331C37.8897 40.7353 37.8919 40.7386 37.8947 40.7431C37.9005 40.752 37.9091 40.7653 37.9205 40.783C37.9432 40.8183 37.9771 40.8709 38.0214 40.9399C38.1099 41.0778 38.2402 41.281 38.4068 41.542C38.74 42.064 39.2184 42.8171 39.7991 43.7409C40.9606 45.5887 42.5306 48.1184 44.1654 50.8472C45.8005 53.5767 47.4983 56.5018 48.9161 59.1411C50.3391 61.7898 51.4633 64.1204 51.9687 65.672L52.9195 65.3624C52.3837 63.7173 51.2202 61.3171 49.7971 58.6679C48.3689 56.0093 46.6623 53.0694 45.0232 50.3333C43.3838 47.5966 41.8097 45.0605 40.6457 43.2087C40.0636 42.2828 39.584 41.5277 39.2497 41.004C39.0826 40.7421 38.9518 40.5381 38.8628 40.3995C38.8182 40.3301 38.7841 40.2772 38.7611 40.2415C38.7497 40.2236 38.7409 40.2101 38.7351 40.201C38.7321 40.1965 38.7299 40.1931 38.7284 40.1907C38.7277 40.1896 38.7271 40.1887 38.7268 40.1881C38.7266 40.1878 38.7264 40.1876 38.7263 40.1875C38.7262 40.1873 38.7262 40.1872 38.3062 40.4585ZM33.0176 32.1748C33.4593 31.9406 33.4593 31.9406 33.4593 31.9405C33.4592 31.9403 33.4591 31.9401 33.4589 31.9399C33.4587 31.9394 33.4583 31.9386 33.4577 31.9375C33.4566 31.9354 33.4549 31.9322 33.4526 31.9279C33.4481 31.9194 33.4414 31.9066 33.4324 31.8897C33.4146 31.856 33.388 31.8056 33.3532 31.7397C33.2838 31.6078 33.1816 31.4134 33.051 31.1638C32.7898 30.6646 32.415 29.9446 31.9608 29.0619C31.0524 27.2963 29.827 24.8808 28.5586 22.2801C27.2898 19.6788 25.9798 16.8958 24.9013 14.3945C23.8186 11.8833 22.9833 9.68777 22.6478 8.24833L21.6739 8.4753C22.0317 10.0105 22.9002 12.2789 23.9831 14.7904C25.0702 17.3118 26.3877 20.1102 27.6598 22.7185C28.9322 25.3274 30.161 27.7496 31.0716 29.5194C31.5269 30.4044 31.9028 31.1265 32.1649 31.6274C32.296 31.8779 32.3986 32.0731 32.4685 32.2058C32.5035 32.2722 32.5303 32.3229 32.5483 32.357C32.5574 32.3741 32.5642 32.3871 32.5688 32.3958C32.5711 32.4001 32.5729 32.4034 32.574 32.4056C32.5746 32.4067 32.5751 32.4076 32.5754 32.4081C32.5755 32.4084 32.5756 32.4086 32.5757 32.4088C32.5758 32.4089 32.5758 32.409 33.0176 32.1748ZM31.6325 37.8534C31.4448 37.39 31.4447 37.3901 31.4446 37.3901C31.4444 37.3902 31.4442 37.3903 31.444 37.3904C31.4434 37.3906 31.4426 37.3909 31.4414 37.3914C31.4391 37.3923 31.4357 37.3937 31.4312 37.3955C31.422 37.3992 31.4084 37.4048 31.3903 37.4121C31.3541 37.4267 31.3002 37.4484 31.2295 37.4768C31.0883 37.5337 30.8801 37.6172 30.6129 37.7238C30.0784 37.937 29.3077 38.2425 28.3634 38.6117C26.4745 39.3501 23.8919 40.3427 21.1162 41.3596C18.3398 42.3769 15.3739 43.4172 12.7175 44.2517C10.0509 45.0895 7.7289 45.7093 6.22596 45.9003L6.35202 46.8923C7.95239 46.689 10.35 46.0437 13.0172 45.2058C15.6945 44.3646 18.6766 43.3185 21.4603 42.2986C24.2446 41.2784 26.8342 40.2832 28.7275 39.543C29.6742 39.1729 30.4471 38.8665 30.9834 38.6526C31.2515 38.5456 31.4606 38.4618 31.6027 38.4046C31.6737 38.376 31.728 38.3541 31.7646 38.3393C31.7829 38.332 31.7968 38.3264 31.8061 38.3226C31.8108 38.3207 31.8143 38.3193 31.8167 38.3183C31.8179 38.3178 31.8188 38.3175 31.8194 38.3172C31.8197 38.3171 31.8199 38.317 31.8201 38.317C31.8202 38.3169 31.8203 38.3168 31.6325 37.8534ZM39.5934 32.5839C39.9915 32.8864 39.9915 32.8864 39.9916 32.8863C39.9917 32.8861 39.9918 32.8859 39.992 32.8857C39.9924 32.8852 39.993 32.8845 39.9937 32.8834C39.9953 32.8814 39.9976 32.8784 40.0007 32.8743C40.0068 32.8662 40.0161 32.8541 40.0283 32.8381C40.0527 32.806 40.0891 32.7583 40.1368 32.6958C40.2323 32.5708 40.3731 32.3869 40.5541 32.1512C40.9163 31.68 41.4394 31.0022 42.0832 30.1763C43.3709 28.5244 45.1405 26.281 47.0689 23.9142C48.9977 21.5469 51.0828 19.0593 53.0019 16.9179C54.928 14.7685 56.6641 12.994 57.8996 12.0327L57.2855 11.2435C55.9721 12.2654 54.1837 14.1007 52.2571 16.2505C50.3234 18.4083 48.2273 20.9093 46.2936 23.2826C44.3594 25.6565 42.5851 27.9058 41.2945 29.5615C40.6491 30.3894 40.1246 31.0691 39.7612 31.5419C39.5795 31.7783 39.4382 31.9631 39.3422 32.0887C39.2942 32.1516 39.2575 32.1997 39.2328 32.2321C39.2205 32.2483 39.2111 32.2606 39.2048 32.2689C39.2017 32.273 39.1993 32.2761 39.1977 32.2782C39.1969 32.2793 39.1963 32.2801 39.1959 32.2806C39.1957 32.2809 39.1955 32.2811 39.1954 32.2812C39.1953 32.2813 39.1953 32.2814 39.5934 32.5839ZM32.0383 33.2961C32.3421 32.899 32.3421 32.899 32.342 32.8989C32.3419 32.8988 32.3417 32.8987 32.3415 32.8985C32.3411 32.8982 32.3404 32.8976 32.3395 32.897C32.3377 32.8956 32.3349 32.8935 32.3313 32.8907C32.324 32.8851 32.3131 32.8767 32.2987 32.8657C32.2698 32.8435 32.2268 32.8105 32.1705 32.7672C32.058 32.6807 31.8924 32.553 31.6803 32.3889C31.256 32.0606 30.6456 31.5863 29.902 31.0027C28.4145 29.8355 26.3943 28.2317 24.2631 26.4851C22.1313 24.738 19.8914 22.8505 17.9632 21.1153C16.0272 19.3729 14.4312 17.8068 13.5673 16.6977L12.7784 17.3121C13.702 18.4981 15.3579 20.1159 17.2943 21.8586C19.2386 23.6083 21.4916 25.5066 23.6293 27.2586C25.7675 29.011 27.7934 30.6193 29.2846 31.7894C30.0303 32.3746 30.6424 32.8503 31.0683 33.1798C31.2812 33.3445 31.4476 33.4728 31.5608 33.5599C31.6174 33.6034 31.6608 33.6367 31.69 33.6591C31.7046 33.6703 31.7156 33.6788 31.7231 33.6845C31.7268 33.6873 31.7296 33.6895 31.7315 33.6909C31.7325 33.6916 31.7332 33.6922 31.7337 33.6926C31.7339 33.6928 31.7341 33.6929 31.7342 33.693C31.7343 33.6931 31.7344 33.6931 32.0383 33.2961ZM31.4596 34.5952C31.6101 34.1184 31.61 34.1184 31.6099 34.1184C31.6098 34.1183 31.6096 34.1183 31.6093 34.1182C31.6088 34.118 31.6081 34.1178 31.607 34.1175C31.605 34.1168 31.6019 34.1158 31.5978 34.1145C31.5895 34.1119 31.5772 34.108 31.5608 34.1028C31.5281 34.0925 31.4794 34.077 31.4156 34.0567C31.2881 34.0161 31.1003 33.9561 30.8594 33.8787C30.3778 33.7238 29.6842 33.4993 28.8374 33.2206C27.1435 32.6631 24.8371 31.8894 22.3864 31.0242C19.935 30.1588 17.3428 29.2032 15.0763 28.2818C12.7998 27.3564 10.8838 26.4782 9.76415 25.7698L9.22951 26.6149C10.4322 27.3758 12.4227 28.2826 14.6997 29.2082C16.9865 30.1378 19.5948 31.0992 22.0535 31.9672C24.5129 32.8354 26.8264 33.6115 28.5248 34.1704C29.3741 34.45 30.0698 34.6752 30.5534 34.8307C30.7951 34.9084 30.9839 34.9687 31.1123 35.0096C31.1765 35.03 31.2256 35.0456 31.2587 35.0561C31.2753 35.0614 31.2878 35.0653 31.2963 35.068C31.3005 35.0693 31.3037 35.0703 31.3058 35.071C31.3069 35.0714 31.3077 35.0716 31.3083 35.0718C31.3086 35.0719 31.3088 35.0719 31.3089 35.072C31.3091 35.072 31.3091 35.0721 31.4596 34.5952ZM32.5886 39.3265C32.2884 38.9267 32.2884 38.9267 32.2883 38.9268C32.2881 38.9268 32.288 38.927 32.2878 38.9271C32.2873 38.9275 32.2866 38.928 32.2857 38.9287C32.2839 38.93 32.2812 38.9321 32.2775 38.9348C32.2702 38.9403 32.2592 38.9485 32.2447 38.9594C32.2157 38.9811 32.1725 39.0134 32.1159 39.0557C32.0026 39.1403 31.8355 39.2648 31.621 39.4241C31.1919 39.7426 30.5726 40.2003 29.8126 40.7563C28.2925 41.8685 26.2101 43.3738 23.9602 44.9469C21.7097 46.5203 19.2949 48.1592 17.1094 49.5395C14.9149 50.9254 12.9805 52.0318 11.6807 52.5584L12.0561 53.4852C13.4472 52.9217 15.4484 51.7712 17.6434 50.3849C19.8474 48.993 22.2764 47.3443 24.5332 45.7664C26.7906 44.1881 28.8791 42.6784 30.4031 41.5634C31.1652 41.0058 31.7863 40.5468 32.217 40.227C32.4324 40.0672 32.6002 39.9421 32.7142 39.857C32.7712 39.8144 32.8148 39.7818 32.8441 39.7598C32.8588 39.7488 32.8699 39.7405 32.8774 39.7349C32.8811 39.7321 32.884 39.73 32.8859 39.7286C32.8868 39.7278 32.8875 39.7273 32.888 39.7269C32.8883 39.7268 32.8885 39.7266 32.8886 39.7265C32.8887 39.7264 32.8888 39.7264 32.5886 39.3265ZM40.7781 37.0123C41.1452 37.151 41.6993 37.2577 42.3581 37.345C43.0286 37.4338 43.8468 37.5074 44.7653 37.5676C46.603 37.6881 48.8638 37.7569 51.1893 37.7861C55.8374 37.8445 60.7751 37.7452 63.1515 37.5798L63.0821 36.5822C60.7451 36.7448 55.8382 36.8444 51.2019 36.7862C48.8852 36.7571 46.6438 36.6886 44.8308 36.5697C43.9239 36.5103 43.1297 36.4385 42.4895 36.3536C41.8375 36.2672 41.3826 36.1717 41.1315 36.0768L40.7781 37.0123ZM36.54 40.8818C36.0402 40.8949 36.0402 40.895 36.0402 40.8951C36.0402 40.8953 36.0402 40.8955 36.0402 40.8959C36.0403 40.8965 36.0403 40.8975 36.0403 40.8988C36.0404 40.9014 36.0405 40.9053 36.0406 40.9105C36.0409 40.9209 36.0413 40.9365 36.0418 40.9571C36.0428 40.9983 36.0443 41.0598 36.0462 41.1402C36.05 41.3011 36.0554 41.5381 36.0617 41.8421C36.0744 42.4501 36.0907 43.3262 36.1055 44.3976C36.1352 46.5407 36.1588 49.4645 36.1347 52.5881C36.1105 55.7125 36.0386 59.0328 35.8776 61.9702C35.716 64.9183 35.4661 67.4459 35.095 69.0037L36.0677 69.2355C36.4618 67.5815 36.7145 64.9736 36.8761 62.0249C37.0383 59.0656 37.1104 55.7279 37.1346 52.5958C37.1589 49.4629 37.1352 46.5316 37.1054 44.3838C37.0906 43.3097 37.0742 42.4314 37.0615 41.8213C37.0552 41.5163 37.0498 41.2784 37.046 41.1166C37.044 41.0357 37.0425 40.9738 37.0415 40.9321C37.041 40.9113 37.0406 40.8955 37.0403 40.8849C37.0402 40.8796 37.0401 40.8756 37.04 40.8729C37.0399 40.8715 37.0399 40.8705 37.0399 40.8698C37.0399 40.8695 37.0399 40.8692 37.0399 40.869C37.0399 40.8688 37.0399 40.8687 36.54 40.8818ZM34.9742 31.2566C35.471 31.1998 35.471 31.1997 35.471 31.1996C35.471 31.1994 35.4709 31.1992 35.4709 31.199C35.4708 31.1984 35.4707 31.1975 35.4706 31.1964C35.4704 31.1941 35.47 31.1906 35.4694 31.186C35.4684 31.1768 35.4668 31.163 35.4648 31.1448C35.4606 31.1083 35.4545 31.0539 35.4465 30.9827C35.4306 30.8403 35.4073 30.6304 35.378 30.3612C35.3193 29.8227 35.2364 29.0466 35.1396 28.0971C34.946 26.1978 34.6968 23.6053 34.4743 20.8318C34.2517 18.0576 34.0562 15.1062 33.9695 12.4878C33.8825 9.85877 33.9067 7.60021 34.1132 6.19372L33.1238 6.04846C32.903 7.55261 32.883 9.89131 32.9701 12.5209C33.0575 15.1612 33.2543 18.1299 33.4775 20.9118C33.7007 23.6945 33.9507 26.2945 34.1448 28.1985C34.2419 29.1506 34.325 29.929 34.3839 30.4695C34.4133 30.7397 34.4367 30.9505 34.4527 31.0939C34.4607 31.1655 34.4669 31.2203 34.4711 31.2573C34.4732 31.2757 34.4748 31.2897 34.4758 31.2991C34.4764 31.3038 34.4768 31.3074 34.4771 31.3098C34.4772 31.311 34.4773 31.3119 34.4774 31.3125C34.4774 31.3128 34.4774 31.313 34.4775 31.3132C34.4775 31.3134 34.4775 31.3135 34.9742 31.2566ZM38.3567 31.4821C38.7804 31.7476 38.7804 31.7476 38.7805 31.7474C38.7806 31.7473 38.7807 31.7471 38.7809 31.7468C38.7812 31.7463 38.7817 31.7456 38.7823 31.7446C38.7835 31.7426 38.7854 31.7397 38.7878 31.7358C38.7927 31.728 38.7999 31.7165 38.8094 31.7012C38.8285 31.6707 38.8568 31.6254 38.8937 31.5661C38.9676 31.4476 39.0761 31.2733 39.2147 31.0495C39.4918 30.602 39.8895 29.9568 40.372 29.1657C41.3367 27.5836 42.641 25.4169 43.9983 23.0793C45.3553 20.7423 46.7674 18.2311 47.9469 15.9607C49.1215 13.6998 50.0818 11.647 50.5183 10.2388L49.5631 9.94276C49.1558 11.2569 48.2338 13.2393 47.0595 15.4997C45.8901 17.7506 44.4866 20.2468 43.1335 22.5771C41.7808 24.9067 40.4805 27.067 39.5182 28.645C39.0371 29.434 38.6406 30.0771 38.3645 30.523C38.2264 30.7459 38.1185 30.9194 38.0451 31.0372C38.0084 31.096 37.9804 31.141 37.9615 31.1711C37.9521 31.1862 37.945 31.1976 37.9402 31.2052C37.9378 31.209 37.936 31.2118 37.9348 31.2137C37.9343 31.2147 37.9338 31.2154 37.9335 31.2158C37.9334 31.2161 37.9333 31.2162 37.9332 31.2163C37.9331 31.2165 37.9331 31.2165 38.3567 31.4821ZM36.3376 31.0611C36.8196 31.1943 36.8196 31.1942 36.8197 31.194C36.8197 31.1938 36.8198 31.1936 36.8199 31.1932C36.8201 31.1925 36.8204 31.1915 36.8208 31.1901C36.8215 31.1873 36.8227 31.1832 36.8242 31.1777C36.8272 31.1667 36.8317 31.1504 36.8376 31.1289C36.8495 31.0859 36.867 31.022 36.8899 30.9386C36.9357 30.7716 37.0028 30.5263 37.0881 30.2124C37.2588 29.5846 37.5025 28.6825 37.7948 27.5846C38.3794 25.3891 39.1584 22.4099 39.9359 19.2763C40.7133 16.1436 41.4901 12.8526 42.0698 10.0348C42.6453 7.23685 43.0386 4.85026 43.0251 3.55825L42.0252 3.5687C42.0374 4.73482 41.6701 7.0145 41.0903 9.83329C40.5146 12.6321 39.7413 15.9083 38.9654 19.0355C38.1896 22.1618 37.4121 25.1352 36.8285 27.3273C36.5367 28.4233 36.2934 29.3237 36.1231 29.9501C36.038 30.2632 35.9711 30.5078 35.9255 30.6741C35.9027 30.7572 35.8852 30.8208 35.8735 30.8635C35.8676 30.8849 35.8631 30.901 35.8602 30.9118C35.8587 30.9172 35.8576 30.9213 35.8568 30.924C35.8564 30.9253 35.8562 30.9263 35.856 30.927C35.8559 30.9273 35.8558 30.9276 35.8558 30.9278C35.8557 30.9279 35.8557 30.928 36.3376 31.0611ZM41.09 35.3937C41.1529 35.8897 41.153 35.8897 41.1532 35.8897C41.1533 35.8897 41.1536 35.8896 41.1539 35.8896C41.1546 35.8895 41.1556 35.8894 41.1568 35.8892C41.1594 35.8889 41.1632 35.8884 41.1682 35.8878C41.1783 35.8865 41.1933 35.8846 41.2131 35.882C41.2526 35.877 41.3113 35.8694 41.388 35.8595C41.5415 35.8396 41.7671 35.8102 42.0563 35.7719C42.6346 35.6953 43.467 35.5833 44.484 35.4414C46.5178 35.1577 49.2909 34.7546 52.2472 34.277C55.2027 33.7995 58.3453 33.2469 61.1169 32.6642C63.8778 32.0836 66.3049 31.4662 67.8095 30.8532L67.4321 29.9271C66.0195 30.5027 63.6716 31.1051 60.9111 31.6856C58.1611 32.2638 55.0356 32.8135 52.0877 33.2898C49.1406 33.7659 46.375 34.168 44.3459 34.451C43.3314 34.5925 42.5013 34.7042 41.925 34.7805C41.6369 34.8187 41.4122 34.848 41.2596 34.8678C41.1833 34.8776 41.1251 34.8851 41.0859 34.8902C41.0664 34.8927 41.0516 34.8945 41.0417 34.8958C41.0368 34.8964 41.0331 34.8969 41.0306 34.8972C41.0294 34.8974 41.0285 34.8975 41.0279 34.8976C41.0276 34.8976 41.0274 34.8976 41.0272 34.8977C41.0271 34.8977 41.027 34.8977 41.09 35.3937Z" fill="#FFAB5C"/>
<path d="M33.4127 63.4394C32.702 63.4535 32.02 63.7204 31.4894 64.1919C31.2904 64.3871 31.1676 64.6467 31.1428 64.9242C31.1181 65.2017 31.193 65.479 31.3542 65.7067C31.6897 66.0049 32.1171 66.1796 32.5655 66.2017C32.7619 66.2445 32.9652 66.2451 33.1619 66.2037C33.3585 66.1622 33.5441 66.0795 33.7063 65.9612C34.0208 65.6408 33.7347 65.2524 33.4169 65.0736C32.9635 64.8334 32.4498 64.7305 31.939 64.7775C31.8393 64.7894 31.7442 64.8246 31.647 64.8417C31.5497 64.8588 31.3596 64.808 31.2129 64.842C31.0795 64.8851 30.9667 64.9757 30.896 65.0965C30.6828 65.4309 30.5361 65.8031 30.4638 66.193C30.3452 66.6368 30.2946 67.0962 30.3138 67.5553C30.3357 67.8576 30.4137 68.2451 30.7288 68.371C31.4882 68.6736 31.6281 67.1821 31.6695 66.7639C31.719 66.3221 31.7189 65.8761 31.6689 65.4342C31.6301 65.1431 31.564 64.7946 31.2443 64.706C31.1674 64.6784 31.0819 64.6868 31.005 64.6592C30.9281 64.6316 30.8801 64.584 30.8174 64.5529C30.7086 64.4987 30.5937 64.4576 30.4752 64.4302C30.2185 64.3817 29.9555 64.3783 29.6977 64.42C29.2007 64.4732 28.7303 64.6703 28.3444 64.987C28.1096 65.206 28.002 65.5789 28.292 65.7868C28.6908 65.9871 29.1471 66.0419 29.5818 65.9417C29.8706 65.909 30.1491 65.8152 30.3985 65.6664C30.6479 65.5176 30.8626 65.3173 31.0282 65.0788C31.1268 64.9597 31.1943 64.818 31.2244 64.6663C31.2546 64.5146 31.2465 64.3577 31.2009 64.2098C31.0364 63.9012 30.8536 63.6028 30.6533 63.3162C30.4588 62.9983 30.3976 62.6169 30.4828 62.2547C30.5763 61.9937 30.161 61.8448 30.079 62.1099C30.0154 62.3556 30.0029 62.6118 30.042 62.8626C30.0812 63.1135 30.1712 63.3537 30.3067 63.5687C30.435 63.7845 30.5745 63.9935 30.7245 64.1948C30.9485 64.5263 30.759 64.8005 30.5158 65.0554C30.2088 65.357 29.799 65.5317 29.3682 65.5447C29.1935 65.5572 29.0179 65.5523 28.844 65.53C28.775 65.5184 28.7067 65.5027 28.6397 65.4827C28.5743 65.4593 28.5482 65.411 28.582 65.462C28.5611 65.4113 28.568 65.392 28.6329 65.32C28.7495 65.2068 28.8876 65.1179 29.0391 65.0586C29.4126 64.8781 29.826 64.7954 30.2406 64.8182C30.4181 64.8313 30.5907 64.8828 30.7464 64.9691C30.8346 65.0159 30.9292 65.0498 31.0271 65.0698C31.0271 65.0698 31.2539 65.1512 31.1905 65.0982C31.2858 65.3154 31.3289 65.5518 31.3162 65.7885C31.3639 66.451 31.2733 67.116 31.05 67.7414C31.0213 67.8221 30.9756 67.8957 30.9161 67.9575C30.8951 67.9572 30.8748 67.9499 30.8584 67.9368C30.7476 67.7136 30.7075 67.4621 30.7437 67.2158C30.7499 66.5773 30.9122 65.9501 31.2164 65.3889C31.2371 65.352 31.2613 65.3172 31.2885 65.2848C31.2995 65.2541 31.3709 65.2365 31.3022 65.2465C31.3984 65.2203 31.5135 65.2745 31.6157 65.2678C31.7179 65.2612 31.8042 65.2142 31.9014 65.1971C32.2944 65.1458 32.694 65.2051 33.0553 65.3683C33.1322 65.3958 33.4129 65.4965 33.3999 65.6174C33.3869 65.7384 33.2542 65.7211 33.2009 65.7366C32.8262 65.8166 32.4362 65.7851 32.079 65.6461C31.656 65.4945 31.4369 65.2341 31.5959 64.7541C31.7626 64.4435 32.041 64.2075 32.3752 64.0938C32.6864 63.9505 33.0224 63.868 33.3649 63.851C33.6377 63.8405 33.6728 63.4158 33.3948 63.4287L33.4127 63.4394Z" fill="#FFAB5C"/>
<path d="M45.7546 61.9275C45.0866 62.2504 44.571 62.8204 44.3169 63.5167C44.2513 63.7635 44.2669 64.0249 44.3615 64.2623C44.4561 64.4998 44.6247 64.7007 44.8423 64.8353C45.2854 64.9767 45.7644 64.9548 46.1923 64.7737C46.5399 64.6515 47.0085 64.4341 47.1216 64.0459C47.2573 63.5706 46.7277 63.3894 46.3544 63.3898C45.8309 63.3872 45.3195 63.5456 44.8898 63.8434C44.7881 63.9278 44.6732 63.9949 44.5496 64.0419C44.4626 64.071 44.386 64.1247 44.3292 64.1966C44.2436 64.3175 44.1927 64.4595 44.1819 64.6072C44.1596 65.0263 44.2054 65.4464 44.3175 65.8511C44.4299 66.3244 44.8291 67.8013 45.5982 67.4838C45.9032 67.3593 45.9051 66.9789 45.8734 66.7163C45.8137 66.2874 45.6968 65.8684 45.526 65.4703C45.38 65.073 45.1843 64.6958 44.9434 64.3476C44.8681 64.2285 44.7687 64.1265 44.6515 64.0481C44.4398 63.9245 44.2559 64.0621 44.0378 64.0532C43.5368 64.0392 43.0479 64.207 42.6619 64.5256C42.2843 64.7821 41.9904 65.1433 41.8163 65.5648C41.7035 65.8795 41.8469 66.2297 42.1978 66.2559C42.7001 66.231 43.1786 66.036 43.5547 65.7031C43.7806 65.5302 43.9662 65.3105 44.099 65.0592C44.2319 64.8078 44.3087 64.5307 44.3242 64.2468C44.3485 63.4891 43.5598 63.3405 43.0612 62.9279C42.7955 62.7259 42.6145 62.4325 42.5534 62.1049C42.5167 61.8319 42.0939 61.9099 42.1344 62.1842C42.1808 62.4237 42.2749 62.6514 42.4109 62.8542C42.5469 63.0569 42.7222 63.2304 42.9263 63.3645C43.1425 63.5243 43.3803 63.6356 43.6123 63.7751C43.7236 63.8396 43.8085 63.9414 43.8517 64.0623C43.895 64.1833 43.8938 64.3157 43.8485 64.4358C43.8011 64.659 43.7072 64.8697 43.573 65.0543C43.4388 65.2389 43.2672 65.3933 43.0694 65.5075C42.904 65.618 42.7259 65.7083 42.539 65.7764C42.4617 65.8027 42.3821 65.822 42.3013 65.8341C42.2521 65.8381 42.1351 65.8134 42.2373 65.8674C42.1719 65.8439 42.1829 65.8132 42.201 65.7505C42.2482 65.5974 42.327 65.4561 42.4323 65.3354C42.6771 65.0251 42.9908 64.7758 43.3487 64.6073C43.4987 64.5342 43.6616 64.4911 43.8282 64.4804C43.9123 64.4759 43.9971 64.4933 44.0837 64.4941C44.1702 64.4948 44.3631 64.4167 44.4147 64.4179C44.4147 64.4179 44.4148 64.4179 44.4571 64.4331L44.529 64.5108C44.6113 64.6112 44.6846 64.7187 44.7481 64.8319C45.1036 65.4199 45.3387 66.0723 45.4399 66.7514C45.455 66.8502 45.4541 66.9509 45.4372 67.0494C45.4207 67.0954 45.4262 67.08 45.4124 67.1184C45.2299 67.0003 45.0898 66.8272 45.0125 66.6242C44.7156 66.0157 44.5748 65.3432 44.6031 64.6673C44.606 64.5997 44.621 64.5332 44.6474 64.471C44.6351 64.5055 44.6474 64.471 44.6705 64.4793C44.6936 64.4875 44.7824 64.4457 44.8332 64.425C44.9369 64.3713 45.0326 64.3036 45.1179 64.224C45.4501 63.994 45.8428 63.8668 46.2472 63.858C46.3261 63.856 46.6341 63.8322 46.6849 63.9327C46.7356 64.0332 46.5815 64.1121 46.5342 64.1471C46.2065 64.3856 45.8149 64.5211 45.4095 64.5364C45.2468 64.5627 45.08 64.5334 44.9359 64.4532C44.7797 64.2928 44.6873 64.0811 44.6763 63.8578C44.7178 63.5497 44.8556 63.2627 45.0702 63.0376C45.2991 62.7527 45.5855 62.5191 45.9107 62.3516C46.1526 62.2218 45.9698 61.8358 45.7279 61.9656L45.7546 61.9275Z" fill="#FFAB5C"/>
<path d="M57.9869 19.0716C58.2571 19.3336 58.5779 19.538 58.9297 19.6723C59.2814 19.8066 59.6568 19.8681 60.0329 19.8529C60.2708 19.8154 60.4917 19.7068 60.6664 19.5414C60.8412 19.376 60.9615 19.1616 61.0117 18.9264C60.9977 18.4644 60.817 18.0228 60.5028 17.6829C60.2713 17.3964 59.8982 17.0331 59.5012 17.051C59.1042 17.0688 59.0078 17.58 59.1216 17.9282C59.2825 18.4348 59.5986 18.8783 60.0253 19.1963C60.1483 19.2746 60.2604 19.3687 60.3589 19.4762C60.4153 19.5456 60.489 19.5989 60.5726 19.6307C60.716 19.6697 60.8676 19.6668 61.0094 19.6227C61.4155 19.5033 61.7994 19.3193 62.1465 19.0777C62.5687 18.796 63.7868 17.9769 63.2959 17.3246C62.8051 16.6722 61.7366 17.7398 61.4035 18.0274C61.0718 18.2997 60.7759 18.6127 60.5227 18.9589C60.4309 19.0783 60.3666 19.2164 60.3343 19.3634C60.297 19.5882 60.4651 19.7004 60.5383 19.8955C60.6079 20.1212 60.7132 20.3344 60.8501 20.527C61.0056 20.7153 61.1878 20.8799 61.391 21.0154C61.752 21.2825 62.1771 21.4497 62.6232 21.5005C62.9328 21.5205 63.2576 21.3773 63.2661 21.0512C63.2806 20.6233 62.7756 20.204 62.4771 19.9714C62.2459 19.7845 61.9773 19.6494 61.6893 19.5753C61.4014 19.5012 61.1009 19.4898 60.8084 19.542C60.6657 19.558 60.5285 19.606 60.4071 19.6825C60.2858 19.759 60.1833 19.8619 60.1075 19.9836C59.986 20.3315 59.8994 20.6907 59.849 21.0558C59.8065 21.2381 59.7283 21.41 59.6187 21.5618C59.5092 21.7136 59.3705 21.8421 59.2108 21.9399C58.969 22.0698 59.1517 22.4557 59.3974 22.3273C59.6112 22.1994 59.7969 22.0299 59.9436 21.8288C60.0902 21.6277 60.1948 21.3991 60.2511 21.1567C60.3154 20.9107 60.3658 20.6613 60.4018 20.4096C60.4759 20.0334 60.7477 19.9533 61.0955 19.9394C61.3219 19.9315 61.5478 19.9688 61.7596 20.0492C61.9715 20.1297 62.1652 20.2515 62.3293 20.4077C62.4776 20.5318 62.6087 20.6749 62.7192 20.8334C62.7574 20.8858 62.7895 20.9424 62.815 21.002L62.8271 21.0409C62.8873 21.0062 62.8051 20.9811 62.8271 21.0409C62.6768 21.1213 62.3971 21.0297 62.224 20.9677C61.8731 20.8408 61.5546 20.6378 61.2914 20.3734C61.17 20.2577 61.0721 20.1197 61.0032 19.9669C60.9724 19.8953 60.9612 19.8177 60.9357 19.7436C60.9102 19.6694 60.7548 19.5098 60.7353 19.3946C60.7479 19.4684 60.7736 19.3607 60.8005 19.3097C60.87 19.1865 60.9522 19.0708 61.0457 18.9646C61.4752 18.442 62.0035 18.0089 62.6006 17.6902C62.6951 17.6405 62.7958 17.6038 62.9002 17.581C62.9587 17.563 62.9573 17.5669 62.954 17.6003C62.9847 17.7932 62.7538 18.0136 62.6323 18.1346C62.1657 18.609 61.5917 18.9646 60.9586 19.1714C60.8771 19.2066 60.7872 19.2179 60.6995 19.2041C60.7533 19.2234 60.6232 19.0902 60.5916 19.0572C60.5194 18.984 60.4356 18.9233 60.3436 18.8774C60.0013 18.6418 59.7365 18.3103 59.5829 17.9247C59.5497 17.8478 59.4128 17.5519 59.5013 17.4624C59.5898 17.3728 59.7161 17.5047 59.7627 17.5561C60.0889 17.7842 60.3429 18.1007 60.4947 18.4681C60.5715 18.6099 60.6014 18.7722 60.5801 18.9318C60.4836 19.1251 60.3227 19.2787 60.1249 19.3663C59.8076 19.4386 59.4751 19.4046 59.1788 19.2696C58.8309 19.1414 58.5116 18.946 58.2393 18.6945C58.0366 18.5093 57.7938 18.8596 57.994 19.0396L57.9869 19.0716Z" fill="#FFAB5C"/>
<path d="M66.1243 40.5798C66.1396 41.3682 66.438 42.1252 66.9651 42.7131C67.1783 42.9367 67.4647 43.0766 67.7722 43.1074C68.0797 43.1382 68.388 43.0578 68.6409 42.8809C68.9706 42.5106 69.1629 42.0384 69.1856 41.5432C69.2279 41.1469 69.2375 40.5874 68.9198 40.2873C68.6021 39.9872 68.1555 40.2645 67.9671 40.6083C67.7024 41.1034 67.5899 41.6656 67.6437 42.2246C67.6621 42.3325 67.6861 42.4393 67.7155 42.5448C67.7442 42.7066 67.6774 42.8688 67.7205 43.0272C67.7694 43.1686 67.8658 43.2889 67.9934 43.3676C68.3694 43.6033 68.7858 43.7674 69.2217 43.8513C69.7159 43.9817 70.2267 44.0378 70.7373 44.0179C71.0659 43.9971 71.4953 43.9129 71.6321 43.5679C71.9586 42.7539 70.2968 42.5955 69.8521 42.553C69.3581 42.4965 68.8594 42.4949 68.3652 42.5482C68.0465 42.5898 67.6627 42.6557 67.5633 43.0055C67.533 43.0899 67.5451 43.1895 67.5148 43.2739C67.4846 43.3583 67.4304 43.4126 67.3966 43.4827C67.3329 43.6035 67.2866 43.7327 67.259 43.8664C67.2065 44.1512 67.2032 44.443 67.2492 44.729C67.3093 45.2789 67.5282 45.7996 67.8791 46.228C68.1075 46.4745 68.5116 46.6064 68.7266 46.2851C68.9442 45.8442 69.0018 45.3414 68.8895 44.8624C68.8524 44.543 68.7479 44.235 68.583 43.9586C68.418 43.6823 68.1963 43.4438 67.9324 43.2591C67.8009 43.1516 67.645 43.0779 67.4783 43.0446C67.3117 43.0113 67.1394 43.0194 66.9767 43.0681C66.6279 43.2589 66.2911 43.4707 65.9681 43.7024C65.6062 43.9216 65.1717 43.9886 64.76 43.8886C64.4985 43.7948 64.3499 44.2092 64.6224 44.2723C64.8947 44.3428 65.1785 44.3572 65.4564 44.3146C65.7343 44.272 66.0005 44.1733 66.2388 44.0246C66.4873 43.8885 66.7055 43.7156 66.9388 43.5611C67.323 43.3005 67.6413 43.5142 67.9387 43.7984C68.2817 44.1442 68.4803 44.6071 68.4943 45.0932C68.5119 45.2904 68.5063 45.4889 68.4775 45.6847C68.469 45.7654 68.452 45.845 68.4271 45.9222C68.4064 45.9798 68.3537 46.0301 68.3968 46.0066C68.1921 46.0934 67.9811 45.641 67.9108 45.4859C67.7062 45.0629 67.6112 44.5955 67.6344 44.1266C67.6502 43.9235 67.7091 43.7262 67.8072 43.5477C67.8567 43.4519 67.8932 43.3499 67.9159 43.2445C67.9242 43.2215 68.0026 43.0028 67.9498 43.0532C68.195 42.9365 68.4661 42.8846 68.7373 42.9025C69.4847 42.8404 70.2371 42.936 70.9454 43.1832C71.0877 43.2342 71.28 43.3031 71.1546 43.4227C70.9661 43.5976 70.565 43.5664 70.3288 43.5596C69.6077 43.5487 68.8996 43.3646 68.2644 43.023C68.2106 43.0037 68.0955 42.8889 68.0941 42.8927C68.0601 42.7939 68.1306 42.6459 68.1213 42.5387C68.112 42.4314 68.0613 42.331 68.0429 42.2248C67.9837 41.7791 68.0485 41.3259 68.2304 40.9149C68.2648 40.819 68.3955 40.515 68.5299 40.5155C68.6642 40.5161 68.6734 40.684 68.6975 40.762C68.7843 41.1841 68.7492 41.6221 68.5963 42.0248C68.4216 42.5121 68.1113 42.7603 67.5636 42.5812C67.2062 42.3905 66.9344 42.0718 66.8028 41.6892C66.6402 41.3385 66.5475 40.9596 66.53 40.5737C66.5192 40.3013 66.0898 40.2643 66.107 40.5433L66.1243 40.5798Z" fill="#FFAB5C"/>
<path d="M6.46806 34.7854C6.41722 34.0041 6.07016 33.271 5.49749 32.7354C5.27146 32.5483 4.98575 32.4484 4.69237 32.4537C4.39899 32.4589 4.11743 32.5691 3.89883 32.7643C3.60746 33.164 3.4565 33.6488 3.46943 34.1433C3.45603 34.5196 3.48928 35.0685 3.84466 35.2998C4.20003 35.5312 4.59361 35.1354 4.73747 34.8188C4.96252 34.3177 5.03231 33.7605 4.93785 33.2191C4.89738 33.0982 4.86938 32.9735 4.85427 32.847C4.87445 32.7259 4.86699 32.6019 4.83248 32.4841C4.76889 32.3601 4.6694 32.2579 4.54694 32.1911C4.16135 31.9806 3.74142 31.8404 3.30677 31.7768C2.82959 31.6749 2.33984 31.6453 1.85402 31.689C1.53284 31.7254 1.12864 31.836 1.02295 32.1792C0.767543 32.9884 2.40657 33.065 2.8659 33.0911C3.34374 33.1254 3.82386 33.1028 4.29617 33.0237C4.6256 32.9642 4.95071 32.8686 5.0207 32.5039C5.08021 32.2048 5.22156 31.9437 5.27476 31.638C5.30431 31.36 5.28775 31.0789 5.22577 30.8062C5.13947 30.2921 4.90531 29.814 4.55181 29.43C4.30633 29.1948 3.91267 29.1186 3.71331 29.4325C3.51764 29.9533 3.50234 30.5247 3.66984 31.0557C3.83734 31.5867 4.17802 32.0466 4.63753 32.3622C4.77153 32.4578 4.92734 32.5184 5.09075 32.5384C5.25417 32.5585 5.41996 32.5372 5.57293 32.4767C5.92522 32.3172 6.18034 31.9929 6.53567 31.8129C6.86325 31.6027 7.2604 31.529 7.64211 31.6077C7.90801 31.677 8.05248 31.2741 7.78658 31.2047C7.52266 31.1442 7.24919 31.1382 6.98304 31.1873C6.71689 31.2364 6.46373 31.3394 6.23916 31.49C6.01871 31.6322 5.80579 31.7857 5.60125 31.9499C5.24119 32.2279 4.94315 32.0907 4.62736 31.8216C4.26958 31.5106 4.04819 31.072 4.01076 30.6001C3.94034 30.2893 3.96454 29.9647 4.08024 29.668C4.01892 29.7543 4.08022 29.668 4.11483 29.6804C4.15313 29.698 4.18874 29.721 4.22058 29.7487C4.3425 29.8627 4.4409 29.9995 4.5102 30.1513C4.72379 30.5404 4.83889 30.9756 4.84548 31.419C4.84853 31.6232 4.80565 31.8254 4.72009 32.0108C4.66661 32.1122 4.62773 32.2207 4.60455 32.333C4.60479 32.4027 4.5946 32.4721 4.57425 32.5387C4.58938 32.4965 4.58663 32.5042 4.57425 32.5387C4.34044 32.6497 4.08424 32.706 3.82521 32.7032C3.10738 32.7913 2.37885 32.7292 1.68598 32.5209C1.59243 32.5003 1.50684 32.453 1.43962 32.3848C1.43962 32.3848 1.41653 32.3766 1.46437 32.3158C1.63371 32.134 2.04033 32.1499 2.25571 32.1665C2.9636 32.1431 3.66632 32.2968 4.29998 32.6136C4.35814 32.6422 4.40696 32.6867 4.4406 32.742C4.46226 32.8147 4.4196 32.9336 4.42423 33.0176C4.44567 33.1291 4.47433 33.2392 4.51003 33.3471C4.58822 33.7622 4.55022 34.1907 4.40025 34.5853C4.3122 34.8309 4.09908 35.2438 3.95619 34.8072C3.85147 34.4022 3.8657 33.9759 3.99723 33.5791C4.03882 33.3855 4.13562 33.2081 4.27587 33.0683C4.3906 33.0018 4.5193 32.963 4.65179 32.9548C4.78428 32.9467 4.91691 32.9695 5.03909 33.0215C5.36328 33.2126 5.61387 33.5068 5.7507 33.857C5.91832 34.1944 6.01828 34.5612 6.0449 34.9368C6.06865 35.2095 6.49148 35.1316 6.46773 34.8589L6.46806 34.7854Z" fill="#FFAB5C"/>
<path d="M23.5513 62.1602C22.8143 61.9016 22.0063 61.936 21.2949 62.2563C21.0616 62.3823 20.8757 62.5805 20.7651 62.8213C20.6545 63.062 20.6252 63.3322 20.6817 63.5912C20.8758 64.0132 21.219 64.349 21.6455 64.5343C21.8252 64.6558 22.0272 64.7405 22.2399 64.7833C22.4526 64.826 22.6716 64.8261 22.8841 64.7836C23.2983 64.6332 23.2705 64.1902 23.0473 63.8807C22.718 63.4651 22.2737 63.1552 21.7697 62.9896C21.6508 62.9561 21.5303 62.9288 21.4086 62.9076C21.2374 62.8766 21.074 62.7877 20.9042 62.7528C20.7746 62.742 20.6454 62.7769 20.539 62.8514C20.1931 63.0956 19.9009 63.4079 19.6805 63.7692C19.3957 64.1669 19.1715 64.6046 19.0152 65.068C18.9093 65.3635 18.8458 65.7824 19.1012 66.0385C19.6915 66.6313 20.3701 65.3199 20.5618 64.9426C20.7857 64.5195 20.9619 64.0729 21.087 63.6109C21.1547 63.3493 21.2692 62.9573 21.0781 62.7156C20.9699 62.6232 20.8552 62.5386 20.7349 62.4626C20.65 62.3845 20.5888 62.289 20.4987 62.2134C20.2817 62.0408 20.031 61.9155 19.7626 61.8456C19.248 61.6903 18.701 61.6767 18.1797 61.8063C17.8455 61.903 17.4649 62.1779 17.6438 62.5625C17.8227 62.9471 18.6119 63.1911 19.0366 63.2654C19.3874 63.3396 19.7516 63.3184 20.0911 63.204C20.4306 63.0896 20.733 62.8862 20.9666 62.615C21.2344 62.2434 21.0902 61.8711 20.9852 61.474C20.8864 61.2146 20.8475 60.9363 20.8714 60.66C20.8954 60.3836 20.9815 60.1163 21.1234 59.878C21.2898 59.6561 20.9346 59.412 20.7774 59.6327C20.6137 59.8804 20.5049 60.1601 20.4581 60.4532C20.4114 60.7464 20.4278 61.0462 20.5064 61.3327C20.5625 61.5997 20.7659 61.9887 20.6696 62.2573C20.5733 62.5259 20.1528 62.7303 19.8822 62.8194C19.4359 62.9279 18.9658 62.883 18.5479 62.6918C18.3976 62.6301 18.2531 62.5551 18.1161 62.4678C18.081 62.4451 18.0502 62.4164 18.0249 62.3831C18.0551 62.4199 18.0318 62.3639 18.0346 62.3562C18.2498 62.1432 18.6721 62.1517 18.9729 62.16C19.3904 62.1566 19.8008 62.2692 20.1582 62.4853C20.3238 62.5924 20.4182 62.7648 20.5733 62.8767C20.7285 62.9887 20.7887 62.954 20.7988 63.0832C20.7877 63.3494 20.7291 63.6114 20.6256 63.8568C20.4396 64.5073 20.1168 65.1106 19.6786 65.6263C19.5835 65.7221 19.4695 65.8587 19.4278 65.6966C19.4036 65.4269 19.4627 65.1564 19.5972 64.9215C19.8401 64.2838 20.2414 63.7184 20.7635 63.2784C20.8671 63.2073 20.8839 63.2089 20.9674 63.2302C21.0843 63.2829 21.2051 63.3262 21.3289 63.3598C21.4164 63.3654 21.5034 63.3777 21.589 63.3967C21.9988 63.5071 22.37 63.7287 22.6615 64.0368C22.7183 64.0962 22.9066 64.285 22.8387 64.3776C22.7708 64.4701 22.5409 64.4093 22.4637 64.3946C22.079 64.3024 21.7239 64.114 21.4319 63.8471C21.3471 63.7866 21.2773 63.7076 21.2276 63.6161C21.1779 63.5247 21.1497 63.4232 21.1451 63.3193C21.1405 63.2154 21.1597 63.1119 21.2011 63.0166C21.2426 62.9213 21.3053 62.8367 21.3844 62.7692C21.6685 62.5595 22.0132 62.4475 22.3668 62.4501C22.7407 62.4214 23.1169 62.4665 23.4736 62.5828C23.5184 62.5831 23.5622 62.5695 23.5989 62.5438C23.6356 62.5182 23.6635 62.4818 23.6786 62.4397C23.6937 62.3976 23.6953 62.3518 23.6832 62.3087C23.6711 62.2656 23.646 62.2273 23.6112 62.199L23.5513 62.1602Z" fill="#FFAB5C"/>
<path d="M53.3993 62.4904C53.0705 62.7655 52.7993 63.1027 52.6012 63.4827C52.4032 63.8628 52.2821 64.2782 52.245 64.7051C52.2516 64.9819 52.3426 65.2502 52.5057 65.4742C52.6688 65.6983 52.8964 65.8674 53.1581 65.9592C53.6756 66.0033 54.1911 65.857 54.6075 65.5479C54.9678 65.3176 55.4617 64.9447 55.4784 64.4744C55.4952 64.004 54.9192 63.8797 54.5285 63.9648C53.9357 64.0929 53.3981 64.4029 52.9911 64.8514C52.9039 64.9732 52.7993 65.0816 52.6805 65.1731C52.5819 65.2276 52.4995 65.3071 52.4416 65.4035C52.3799 65.5521 52.365 65.716 52.399 65.8733C52.4798 66.3504 52.6424 66.8101 52.8796 67.2322C53.1362 67.7269 53.9466 69.2431 54.7233 68.7594C55.5 68.2756 54.3853 66.9059 54.0971 66.4994C53.8196 66.0898 53.4909 65.7173 53.1189 65.3908C53.0037 65.2866 52.8675 65.2083 52.7195 65.161C52.4613 65.0944 52.2722 65.2951 52.032 65.3476C51.5213 65.4907 51.0616 65.7749 50.7058 66.1676C50.35 66.5602 50.1127 67.0453 50.0211 67.5671C49.9761 67.9104 50.1397 68.2894 50.521 68.2789C51.0213 68.2634 51.5268 67.7735 51.8369 67.417C52.0602 67.1721 52.2284 66.8823 52.3302 66.567C52.432 66.2517 52.4651 65.9182 52.4272 65.5889C52.4184 65.4154 52.3646 65.2471 52.2711 65.1005C52.1776 64.9539 52.0476 64.8339 51.8939 64.7524C51.5258 64.5685 51.1041 64.5343 50.7306 64.3657C50.3386 64.2097 50.0221 63.9084 49.8473 63.525C49.743 63.2711 49.3566 63.453 49.4595 63.7108C49.5786 63.9638 49.7469 64.1906 49.9546 64.3781C50.1623 64.5656 50.4053 64.71 50.6694 64.8028C50.974 64.9337 51.2946 64.9836 51.5998 65.0887C51.9843 65.2266 52.0352 65.5566 52.0196 65.9148C52.0086 66.1844 51.943 66.4489 51.8267 66.6923C51.7103 66.9357 51.5456 67.1529 51.3427 67.3307C51.1866 67.4818 51.0139 67.6144 50.8276 67.7263C50.7511 67.773 50.6702 67.8121 50.5861 67.8432C50.5171 67.8661 50.4959 67.8889 50.4688 67.8315C50.3815 67.627 50.5369 67.3146 50.6183 67.1359C50.8078 66.7447 51.0798 66.399 51.4156 66.1227C51.5761 65.9839 51.7618 65.877 51.9625 65.8078C52.0496 65.7827 52.1414 65.7809 52.2309 65.7611C52.3205 65.7412 52.4651 65.6285 52.5951 65.5928C52.725 65.5572 52.5643 65.5818 52.6572 65.5891C52.7018 65.606 52.7428 65.631 52.7783 65.6629C52.8971 65.7503 53.007 65.8491 53.1064 65.958C53.6768 66.526 54.1295 67.2004 54.4388 67.9428C54.4886 68.0558 54.5188 68.1764 54.5279 68.2995C54.5249 68.3807 54.5336 68.3925 54.488 68.4108C54.2674 68.4573 53.9948 68.104 53.8803 67.9634C53.3644 67.361 53.0098 66.6379 52.8501 65.8618C52.8281 65.7774 52.8256 65.6892 52.8428 65.6038C52.8594 65.5577 52.9688 65.5189 53.0213 65.4814C53.1264 65.4015 53.2161 65.3031 53.286 65.191C53.6024 64.8157 54.0274 64.5476 54.5029 64.4234C54.6109 64.3885 54.9453 64.2789 55.0475 64.3934C55.1496 64.508 54.9899 64.663 54.9264 64.7312C54.619 65.0898 54.2132 65.3507 53.7589 65.4818C53.6579 65.5247 53.5487 65.5453 53.4389 65.5421C53.3291 65.5388 53.2213 65.5118 53.1229 65.4629C53.0245 65.414 52.9379 65.3444 52.8689 65.2589C52.8 65.1734 52.7505 65.0741 52.7237 64.9677C52.6489 64.6149 52.7037 64.2472 52.8782 63.9318C53.0575 63.5039 53.3323 63.1225 53.6815 62.8167C53.8871 62.6306 53.614 62.3031 53.4045 62.4879L53.3993 62.4904Z" fill="#FFAB5C"/>
<path d="M21.0833 11.0281C21.4104 10.8001 21.6873 10.5076 21.8969 10.1687C22.1064 9.82974 22.2443 9.45155 22.3021 9.05728C22.3121 8.80283 22.2423 8.55151 22.1024 8.33835C21.9626 8.12518 21.7597 7.96077 21.522 7.86812C21.0319 7.79291 20.5314 7.89825 20.1138 8.16442C19.7777 8.35139 19.3097 8.6642 19.2899 9.0945C19.2649 9.58788 19.8253 9.65896 20.1935 9.60042C20.753 9.52038 21.2711 9.26071 21.6695 8.86071C21.8152 8.69643 22.0699 8.62756 22.1725 8.42616C22.2303 8.28322 22.2501 8.12781 22.2301 7.97486C22.1801 7.52403 22.0581 7.08396 21.8685 6.67156C21.6781 6.2222 20.9899 4.72826 20.271 5.23265C19.998 5.42495 20.0604 5.81978 20.1487 6.09395C20.2911 6.54626 20.4923 6.97803 20.7472 7.37816C20.9621 7.75641 21.2249 8.10538 21.5293 8.41642C21.6301 8.52705 21.7558 8.6122 21.896 8.66481C22.119 8.74477 22.3312 8.55233 22.5551 8.53301C23.0608 8.45589 23.5207 8.19739 23.8487 7.80591C24.1839 7.48188 24.4216 7.07066 24.5348 6.61858C24.5938 6.28462 24.4267 5.95183 24.0725 5.9591C23.5565 6.05079 23.0899 6.32247 22.7561 6.72569C22.545 6.94066 22.3832 7.19872 22.2815 7.48221C22.1799 7.7657 22.1409 8.06793 22.1673 8.36804C22.2347 9.1847 23.0635 9.20905 23.6414 9.54615C23.9632 9.70612 24.2117 9.98267 24.3363 10.3193C24.4172 10.5778 24.8439 10.5013 24.7592 10.2414C24.68 10.0018 24.5531 9.7806 24.386 9.59121C24.219 9.40181 24.0153 9.24813 23.7872 9.13938C23.5455 9.0119 23.2933 8.90547 23.0333 8.82137C22.8847 8.79323 22.7531 8.70795 22.6669 8.58385C22.5806 8.45976 22.5467 8.30686 22.5724 8.15815C22.5789 7.91346 22.6379 7.67302 22.7452 7.45307C22.8525 7.23311 23.0057 7.03874 23.1945 6.88287C23.3664 6.73262 23.5578 6.60602 23.7634 6.50652C23.8336 6.46602 23.9079 6.43318 23.9852 6.40851C23.9852 6.40851 24.1501 6.37229 24.0764 6.37188C24.0028 6.37146 24.1226 6.38845 24.1283 6.42083C24.1333 6.45377 24.1329 6.48726 24.1274 6.5201C24.1063 6.66966 24.0548 6.81333 23.9761 6.94223C23.7909 7.29195 23.5332 7.59812 23.2201 7.8404C23.0743 7.95476 22.9092 8.04221 22.7326 8.09865C22.5211 8.12558 22.3131 8.17441 22.1119 8.24425C22.0203 8.29371 22.0539 8.297 21.9484 8.21588C21.8458 8.13022 21.7522 8.0343 21.6692 7.92958C21.1952 7.38107 20.8334 6.74526 20.6043 6.05809C20.5635 5.94689 20.5395 5.83029 20.533 5.7121C20.5298 5.6783 20.5331 5.64421 20.543 5.61173C20.7424 5.58797 20.934 5.86454 21.0419 6.01148C21.4659 6.60038 21.7365 7.28525 21.829 8.00424C21.8426 8.09062 21.8376 8.17881 21.8143 8.26306C21.8019 8.2976 21.8295 8.22085 21.8143 8.26306C21.771 8.2957 21.7235 8.32239 21.6731 8.34235C21.5668 8.40178 21.4733 8.48158 21.3979 8.57717C21.0936 8.88808 20.7029 9.10093 20.2761 9.18833C20.167 9.21417 19.8318 9.30183 19.7426 9.18756C19.6987 9.1285 19.8169 8.98037 19.8672 8.92479C20.1626 8.63087 20.5366 8.42821 20.9445 8.341C21.1178 8.28152 21.3058 8.2791 21.4808 8.33409C21.6765 8.46813 21.8131 8.6722 21.8623 8.90394C21.8871 9.25969 21.7866 9.61277 21.5782 9.90206C21.3829 10.2336 21.1216 10.5215 20.8104 10.7483C20.5911 10.9122 20.8681 11.241 21.0875 11.0772L21.0833 11.0281Z" fill="#FFAB5C"/>
<path d="M8.91451 47.8008C8.52192 47.0944 7.8647 46.5721 7.08726 46.3488C6.82291 46.298 6.54933 46.3329 6.30649 46.4484C6.06365 46.5639 5.86426 46.754 5.73743 46.9908C5.61532 47.4751 5.67197 47.9873 5.89704 48.4338C6.04685 48.7906 6.31882 49.2909 6.74214 49.369C7.24017 49.4566 7.38113 48.9182 7.36376 48.5309C7.33909 47.9691 7.14011 47.4286 6.79431 46.9843C6.69511 46.8785 6.61396 46.7573 6.55412 46.6254C6.52107 46.5362 6.46319 46.4583 6.38725 46.4009C6.25128 46.3182 6.09411 46.277 5.93509 46.2822C5.47607 46.2834 5.02049 46.3599 4.58658 46.5088C4.10022 46.6549 2.54413 47.1579 2.91952 47.9508C3.0677 48.2637 3.4776 48.2462 3.76417 48.1974C4.22807 48.1096 4.67773 47.9589 5.10072 47.7498C5.52547 47.5655 5.92451 47.3273 6.28795 47.0409C6.41288 46.95 6.5139 46.8302 6.58239 46.6917C6.66081 46.473 6.52848 46.261 6.51899 46.0454C6.49006 45.5249 6.28078 45.0304 5.92694 44.6466C5.63413 44.2627 5.23751 43.9702 4.78395 43.8037C4.44499 43.7082 4.07128 43.8427 4.05651 44.2229C4.11189 44.7606 4.35196 45.2628 4.73595 45.6444C4.93872 45.8808 5.19115 46.0698 5.47528 46.1979C5.75941 46.3259 6.06828 46.3899 6.37983 46.3853C7.17107 46.3571 7.28637 45.515 7.67514 44.9875C7.87557 44.6826 8.18461 44.4653 8.53976 44.3795C8.59532 44.369 8.64439 44.3369 8.67618 44.2902C8.70797 44.2436 8.71991 44.1861 8.7093 44.1306C8.6987 44.0751 8.66643 44.0261 8.61964 43.9943C8.57285 43.9625 8.51531 43.9506 8.45975 43.9611C8.20541 44.0219 7.96606 44.1332 7.75599 44.2886C7.54593 44.444 7.36952 44.6401 7.23728 44.8652C7.09814 45.0882 6.97313 45.3195 6.86298 45.5581C6.8146 45.7034 6.71194 45.8245 6.57635 45.8961C6.44076 45.9677 6.28265 45.9843 6.13497 45.9424C5.88412 45.9066 5.64371 45.8179 5.42972 45.6822C5.21574 45.5465 5.03308 45.3669 4.8939 45.1553C4.74841 44.9559 4.42974 44.4649 4.47877 44.2313C4.49115 44.1968 4.53925 44.1837 4.62029 44.1998C4.77391 44.2411 4.91801 44.3119 5.04461 44.4082C5.39334 44.6447 5.68348 44.9575 5.89278 45.3228C5.98407 45.4787 6.0493 45.6484 6.08591 45.8251C6.09515 45.9078 6.0972 45.9912 6.09207 46.0742C6.10651 46.2139 6.13733 46.3514 6.18387 46.4839C6.19538 46.5487 6.18389 46.4839 6.16876 46.5261C6.15053 46.5591 6.12669 46.5886 6.09834 46.6135C5.99513 46.7129 5.88194 46.8015 5.76056 46.8778C5.14275 47.3017 4.4463 47.5982 3.71195 47.7499C3.60122 47.7745 3.48735 47.7818 3.37431 47.7717C3.3051 47.7469 3.28972 47.7414 3.28588 47.74C3.32528 47.5333 3.58305 47.3832 3.76745 47.2804C4.41244 46.9098 5.14145 46.7093 5.88594 46.6976C5.96264 46.6986 6.03885 46.7099 6.11256 46.7312C6.11256 46.7312 6.1606 46.8393 6.19023 46.9019C6.24104 47.0109 6.31158 47.1096 6.3983 47.1931C6.6852 47.5352 6.86121 47.9562 6.90289 48.4003C6.9163 48.496 6.97294 48.8584 6.85119 48.9317C6.72945 49.005 6.65893 48.8628 6.60979 48.8063C6.32351 48.4718 6.14479 48.0591 6.09697 47.622C6.05701 47.4435 6.07236 47.2572 6.14097 47.0878C6.27886 46.909 6.47707 46.7862 6.69887 46.7422C7.04259 46.7334 7.37729 46.8534 7.63714 47.0786C7.98417 47.3112 8.27599 47.6169 8.49212 47.9741C8.63293 48.2108 9.02314 48.0303 8.87849 47.7922L8.91451 47.8008Z" fill="#FFAB5C"/>
<path d="M54.5192 11.7612C55.2411 12.1816 56.0996 12.3011 56.9083 12.0938C57.161 11.9997 57.3785 11.8305 57.5317 11.6089C57.6848 11.3874 57.7661 11.1243 57.7648 10.855C57.6351 10.3761 57.3351 9.96062 56.9209 9.6863C56.76 9.53291 56.5703 9.4129 56.3627 9.33326C56.1551 9.25362 55.9337 9.21591 55.7115 9.22234C55.2417 9.32237 55.2387 9.81494 55.4247 10.1675C55.7189 10.6782 56.1639 11.0859 56.6988 11.3345C56.8334 11.3828 56.9801 11.4094 57.0834 11.4724C57.1743 11.548 57.2729 11.6138 57.3775 11.6688C57.5339 11.7007 57.6965 11.6761 57.8363 11.5994C58.2279 11.3947 58.5782 11.1195 58.8695 10.7876C59.2686 10.3764 60.3924 9.2031 59.8134 8.56676C59.2343 7.93042 58.3165 9.25557 58.0462 9.62204C57.7418 10.0217 57.4868 10.4566 57.2868 10.9173C57.1684 11.2473 57.057 11.5582 57.3327 11.8302C57.5287 12.0218 57.6486 12.2683 57.8565 12.4511C58.0648 12.6399 58.304 12.7916 58.5637 12.8995C59.0522 13.1313 59.5946 13.2255 60.1325 13.1719C60.4927 13.1235 60.9068 12.8519 60.7183 12.4336C60.5298 12.0152 59.766 11.6158 59.2793 11.4846C58.6478 11.2971 57.7343 11.3636 57.2689 11.9113C56.9813 12.2413 57.0734 12.638 57.0982 13.041C57.1449 13.3198 57.1295 13.6054 57.053 13.8774C56.9765 14.1494 56.8408 14.401 56.6555 14.6145C56.4499 14.8006 56.7269 15.1295 56.9287 14.942C57.1325 14.7396 57.2921 14.4973 57.3975 14.2303C57.503 13.9633 57.5519 13.6774 57.5414 13.3904C57.5443 13.0797 57.4624 12.7515 57.4897 12.4452C57.5171 12.1389 57.9062 11.9493 58.2142 11.8649C58.7029 11.747 59.2186 11.8232 59.6526 12.0775C59.8419 12.1719 60.0182 12.2904 60.1771 12.43C60.2319 12.4762 60.2799 12.5299 60.3197 12.5894C60.3383 12.6221 60.3696 12.6073 60.3273 12.6527C60.1775 12.8285 59.7514 12.7581 59.5594 12.7369C59.1256 12.6896 58.7092 12.5403 58.3442 12.3012C58.1807 12.1911 58.0429 12.0471 57.94 11.8792C57.896 11.7918 57.8404 11.7106 57.7748 11.638C57.7166 11.5824 57.6018 11.5153 57.5873 11.4711C57.5382 11.2933 57.7744 10.9493 57.8322 10.7881C58.1527 10.1277 58.5992 9.53615 59.1466 9.04653C59.2348 8.9699 59.4522 8.77506 59.5247 8.88765C59.6408 9.07219 59.3645 9.47975 59.262 9.62053C58.8886 10.257 58.3618 10.7901 57.7294 11.1714C57.6693 11.2061 57.5736 11.2671 57.5066 11.2603C57.4419 11.2182 57.3804 11.1715 57.3223 11.1207C57.2195 11.0664 57.1094 11.0269 56.9955 11.0035C56.5697 10.8387 56.1998 10.5558 55.9294 10.1882C55.8655 10.1003 55.6288 9.81629 55.6825 9.66664C55.7361 9.51698 55.9251 9.61935 56.0187 9.64861C56.4262 9.80438 56.7816 10.0714 57.0444 10.4191C57.1205 10.4932 57.1793 10.5832 57.2166 10.6825C57.254 10.7819 57.2689 10.8881 57.2604 10.9938C57.2519 11.0995 57.2202 11.202 57.1675 11.294C57.1149 11.386 57.0425 11.4653 56.9556 11.5262C56.646 11.7248 56.2721 11.7981 55.9099 11.7315C55.4968 11.7041 55.0941 11.5894 54.7287 11.3947C54.4887 11.2653 54.2176 11.6098 54.4834 11.7398L54.5192 11.7612Z" fill="#FFAB5C"/>
<path d="M13.3011 19.77C13.6859 19.1167 13.7967 18.3379 13.6095 17.6027C13.5215 17.3715 13.3654 17.1724 13.1618 17.0313C12.9583 16.8903 12.7168 16.8142 12.4692 16.8128C12.0259 16.9224 11.6395 17.193 11.3856 17.5718C11.2447 17.7182 11.1345 17.891 11.0614 18.0804C10.9883 18.2698 10.9537 18.4719 10.9596 18.6749C11.0481 19.1181 11.5143 19.1251 11.8411 18.9521C12.3103 18.6872 12.6846 18.2823 12.9115 17.7942C12.9528 17.6791 12.9968 17.5563 13.0395 17.4373C13.1081 17.3538 13.1681 17.2636 13.2185 17.1681C13.2396 17.0928 13.2457 17.014 13.2363 16.9363C13.2269 16.8587 13.2023 16.7836 13.1638 16.7154C12.9808 16.3593 12.7333 16.04 12.4338 15.7737C12.0543 15.4038 10.9863 14.3886 10.4024 14.9155C9.81861 15.4423 11.008 16.2888 11.3471 16.5533C11.7084 16.8298 12.1015 17.0624 12.5179 17.246C12.8225 17.3769 13.114 17.4597 13.3663 17.2037C13.542 17.0285 13.7654 16.9137 13.9358 16.741C14.1065 16.5562 14.2433 16.3429 14.3397 16.1106C14.5512 15.6688 14.6387 15.1779 14.593 14.6901C14.5451 14.3395 14.2819 13.9723 13.9188 14.1496C13.5558 14.3269 13.1752 15.0132 13.0211 15.443C12.8483 16.0219 12.9165 16.8605 13.4086 17.2795C13.7422 17.5593 14.1088 17.4569 14.4876 17.4411C14.7316 17.4038 14.9809 17.4211 15.2175 17.4917C15.4542 17.5623 15.6722 17.6845 15.8558 17.8494C16.0439 18.0511 16.3715 17.7789 16.1848 17.5734C16.0004 17.3879 15.7799 17.2423 15.5369 17.1455C15.2939 17.0486 15.0336 17.0027 14.7722 17.0105C14.492 17.0053 14.1972 17.0772 13.92 17.0514C13.6428 17.0257 13.4888 16.6803 13.4115 16.4361C13.3068 15.9983 13.3771 15.5373 13.6076 15.151C13.6908 14.9811 13.7983 14.8241 13.9265 14.685C13.9655 14.6361 14.0127 14.5944 14.0661 14.5619C14.1943 14.7248 14.1516 15.0256 14.1213 15.2312C14.0808 15.6165 13.9483 15.9862 13.7347 16.3094C13.6357 16.4523 13.5081 16.5732 13.36 16.6645C13.2789 16.7057 13.2035 16.7572 13.1357 16.8179C13.083 16.8683 13.02 16.9713 12.9952 16.9798C12.8562 17.0165 12.5338 16.8143 12.3915 16.7633C11.7987 16.47 11.2673 16.0663 10.8259 15.5741C10.7543 15.5026 10.6994 15.4163 10.6648 15.3213C10.653 15.2695 10.6332 15.2884 10.6841 15.2677C10.863 15.1802 11.1939 15.4072 11.3301 15.4993C11.8994 15.8341 12.378 16.3031 12.7239 16.8651C12.7538 16.9148 12.806 17.0114 12.7985 17.0564C12.7911 17.1014 12.7069 17.1665 12.6789 17.2085C12.628 17.3021 12.5918 17.403 12.5716 17.5077C12.4298 17.8883 12.1786 18.2186 11.8494 18.457C11.7823 18.5109 11.5192 18.7241 11.4185 18.6663C11.3177 18.6085 11.3971 18.4595 11.418 18.389C11.5569 18.0209 11.7984 17.7002 12.1139 17.4648C12.1796 17.3992 12.2589 17.3488 12.3462 17.317C12.4335 17.2852 12.5268 17.2729 12.6195 17.2809C12.7121 17.289 12.8019 17.3171 12.8825 17.3635C12.9631 17.4099 13.0326 17.4733 13.0862 17.5493C13.2597 17.826 13.3221 18.1577 13.2609 18.4781C13.2338 18.8515 13.1286 19.2151 12.9521 19.5452C12.8214 19.7886 13.1713 20.0353 13.2981 19.7906L13.3011 19.77Z" fill="#FFAB5C"/>
<path d="M10.5194 28.5812C10.6402 27.8891 10.4862 27.1768 10.0901 26.5954C9.93477 26.4056 9.72179 26.2714 9.48338 26.2133C9.24497 26.1552 8.99416 26.1763 8.76906 26.2734C8.43511 26.5137 8.19509 26.8623 8.08991 27.2598C8.01029 27.4379 7.96662 27.63 7.96146 27.8251C7.95631 28.0201 7.98979 28.2143 8.05989 28.3966C8.28029 28.7744 8.70593 28.6282 8.9363 28.373C9.24923 28.0121 9.44937 27.5676 9.51202 27.0941C9.52292 26.9893 9.52735 26.8838 9.52535 26.7784C9.5246 26.6353 9.58541 26.5142 9.59374 26.3699C9.59428 26.236 9.54239 26.107 9.44915 26.0106C9.18359 25.7432 8.8665 25.5322 8.51707 25.3905C8.13716 25.2016 7.73264 25.0668 7.31534 24.99C7.01674 24.9392 6.61813 24.9132 6.38529 25.1632C5.8745 25.7769 7.15147 26.2217 7.53245 26.3453C7.94869 26.4857 8.37889 26.5804 8.81553 26.6279C9.07596 26.6519 9.45233 26.6916 9.64202 26.4651C9.73357 26.355 9.7694 26.1946 9.85601 26.0741C9.92565 25.9864 9.98691 25.8925 10.0391 25.7934C10.1443 25.5738 10.2074 25.3364 10.225 25.0935C10.28 24.6078 10.1976 24.1162 9.98727 23.6745C9.81217 23.3519 9.42795 23.1405 9.14975 23.4565C8.88522 23.8562 8.76582 24.3346 8.81136 24.8119C8.83437 25.4134 9.16526 26.1729 9.77669 26.3921C10.1612 26.53 10.4633 26.3049 10.7944 26.1682C10.9918 26.0625 11.2098 26.0005 11.4335 25.9866C11.6572 25.9726 11.8813 26.007 12.0907 26.0873C12.3321 26.2128 12.6017 25.8721 12.3359 25.7421C12.1073 25.631 11.8581 25.569 11.6041 25.56C11.3502 25.551 11.0973 25.5952 10.8617 25.6899C10.6249 25.7695 10.4127 25.9013 10.1772 25.9771C9.83761 26.0892 9.60423 25.7717 9.44063 25.5138C9.2469 25.1697 9.18457 24.7674 9.26517 24.3813C9.28531 24.2264 9.32375 24.0745 9.37971 23.9287C9.39509 23.868 9.41631 23.8088 9.44302 23.7521C9.44302 23.7521 9.45125 23.7292 9.45538 23.7176C9.36888 23.6563 9.42924 23.7906 9.45538 23.7176C9.54189 23.779 9.42131 23.6794 9.47843 23.7259C9.51813 23.7605 9.55023 23.803 9.57263 23.8506C9.64775 23.9894 9.69947 24.1396 9.72568 24.2952C9.82011 24.6863 9.80399 25.0958 9.67913 25.4781C9.61045 25.6284 9.52081 25.7684 9.41293 25.8937C9.35299 25.9761 9.33729 26.1047 9.30702 26.1891C9.30702 26.1891 9.30702 26.1891 9.26416 26.1997C9.0187 26.2351 8.76854 26.2206 8.52874 26.1569C7.91728 26.0871 7.33021 25.8766 6.81367 25.542C6.77337 25.5084 6.73569 25.4717 6.70105 25.4323C6.70105 25.4323 6.70794 25.4131 6.76785 25.3913C7.01056 25.3495 7.26005 25.3704 7.49258 25.4519C8.07949 25.5752 8.62453 25.8482 9.07456 26.2443C9.16544 26.3419 9.14676 26.3092 9.11483 26.4104C9.07837 26.5903 9.06354 26.774 9.0706 26.9575C9.03222 27.3311 8.89119 27.6866 8.66312 27.985C8.61895 28.0513 8.56295 28.1091 8.49791 28.1553C8.48828 28.1821 8.40698 28.1789 8.43252 28.1924C8.34792 28.1621 8.36228 27.9767 8.3626 27.9032C8.37918 27.545 8.49308 27.1981 8.69205 26.8997C8.73315 26.8182 8.79264 26.7473 8.86583 26.6926C8.93903 26.6379 9.02394 26.6009 9.11391 26.5845C9.20388 26.5681 9.29647 26.5727 9.3844 26.598C9.47234 26.6233 9.55321 26.6686 9.62072 26.7304C9.83521 26.952 9.97652 27.2339 10.0255 27.538C10.1009 27.8619 10.1133 28.1971 10.0621 28.5255C10.0212 28.7966 10.4481 28.8285 10.4851 28.556L10.5194 28.5812Z" fill="#FFAB5C"/>
<path d="M14.573 53.6493C14.3084 53.3755 13.9917 53.1572 13.6416 53.0071C13.2914 52.857 12.9149 52.7783 12.5341 52.7755C12.2924 52.8013 12.0645 52.8999 11.8805 53.0583C11.6966 53.2167 11.5654 53.4273 11.5044 53.6621C11.4996 54.1238 11.6628 54.5717 11.9639 54.9225C12.1874 55.2192 12.5545 55.6236 12.9696 55.6035C13.3847 55.5835 13.4735 55.0696 13.3663 54.715C13.2181 54.2168 12.923 53.7744 12.5194 53.4457C12.3946 53.3719 12.2813 53.2803 12.183 53.1736C12.1266 53.0922 12.0495 53.0272 11.9598 52.9853C11.8197 52.9413 11.6699 52.9386 11.5285 52.9778C11.1102 53.0834 10.7129 53.2587 10.3532 53.4962C9.93543 53.7535 8.66433 54.5753 9.17745 55.2139C9.63785 55.7817 10.7609 54.816 11.1056 54.5325C11.445 54.2664 11.7484 53.9573 12.0081 53.6132C12.0937 53.5046 12.1562 53.3796 12.1918 53.246C12.2317 53.0135 12.0579 52.8689 11.9696 52.6553C11.809 52.2178 11.528 51.8343 11.159 51.5487C10.79 51.2632 10.3479 51.0874 9.88361 51.0413C9.56356 51.0262 9.24836 51.2033 9.27207 51.5366C9.30754 51.9823 9.79438 52.4038 10.1184 52.6499C10.3504 52.83 10.6185 52.9582 10.9044 53.0256C11.1903 53.0929 11.4872 53.098 11.7751 53.0404C11.9093 53.0208 12.0374 52.9711 12.1496 52.8951C12.2618 52.8191 12.3552 52.7187 12.4229 52.6014C12.5477 52.2443 12.6455 51.8784 12.7156 51.5067C12.8181 51.162 13.0516 50.8713 13.3663 50.6964C13.6106 50.5718 13.4292 50.182 13.1811 50.3052C12.9689 50.4207 12.7817 50.5769 12.6301 50.7648C12.4786 50.9527 12.3658 51.1687 12.2981 51.4004C12.2233 51.6452 12.1643 51.8945 12.1215 52.1468C12.1093 52.2865 12.0434 52.416 11.9375 52.508C11.8317 52.6001 11.6942 52.6476 11.5539 52.6406C11.325 52.6658 11.0933 52.6424 10.874 52.572C10.6547 52.5016 10.4527 52.3857 10.2813 52.2319C10.1151 52.0979 9.96811 51.9417 9.84448 51.7678C9.80031 51.7065 9.76115 51.6417 9.72732 51.5742C9.70124 51.5259 9.71691 51.458 9.68555 51.5333C9.73921 51.3837 10.0957 51.5028 10.2405 51.559C10.5917 51.6834 10.9111 51.8837 11.1759 52.1456C11.3058 52.2683 11.4109 52.4148 11.4856 52.5771C11.5668 52.7621 11.5757 52.9428 11.7094 53.0904C11.7621 53.1613 11.7652 53.1406 11.7033 53.2527C11.6406 53.363 11.5646 53.4652 11.477 53.557C11.0402 54.0701 10.508 54.494 9.90983 54.8053C9.80897 54.8657 9.6983 54.9081 9.58281 54.9306C9.50506 54.9417 9.47983 54.9152 9.49081 54.9451C9.42194 54.7862 9.66876 54.5456 9.76909 54.4474C10.2494 53.9681 10.8399 53.6133 11.4892 53.4141C11.5759 53.3807 11.6685 53.3653 11.7615 53.3689C11.7615 53.3689 11.7961 53.3813 11.8394 53.4661C11.9106 53.559 11.9988 53.6377 12.0992 53.6979C12.4269 53.923 12.6817 54.2386 12.8325 54.606C12.9225 54.8029 13.1036 55.3268 12.7084 55.0855C12.3828 54.8586 12.1314 54.541 11.9855 54.1724C11.9378 54.0938 11.9077 54.0058 11.8973 53.9145C11.8869 53.8232 11.8965 53.7308 11.9252 53.6436C11.954 53.5564 12.0014 53.4765 12.0641 53.4093C12.1268 53.3422 12.2034 53.2894 12.2885 53.2547C12.4409 53.2016 12.6023 53.1793 12.7635 53.1888C12.9247 53.1983 13.0825 53.2394 13.2278 53.31C13.5924 53.4365 13.9249 53.6415 14.2016 53.9104C14.399 54.0981 14.7306 53.8271 14.5307 53.6342L14.573 53.6493Z" fill="#FFAB5C"/>
<path d="M61.3892 35.2793C61.5148 35.9102 61.861 36.4764 62.3659 36.8766C62.5737 37.0233 62.8264 37.0924 63.0799 37.0716C63.3333 37.0508 63.5713 36.9415 63.7519 36.763C63.9759 36.4114 64.0679 35.9918 64.0116 35.5786C63.9907 35.2376 63.9107 34.7586 63.5762 34.578C63.2416 34.3975 62.9162 34.7485 62.8212 35.0739C62.6828 35.5269 62.6861 36.0116 62.8309 36.4631C62.8774 36.5563 62.9104 36.6556 62.9291 36.7581C62.9292 36.853 62.9486 36.9469 62.9863 37.0341C63.064 37.1479 63.1763 37.2337 63.3066 37.2789C63.656 37.4118 64.0263 37.4816 64.4001 37.4848C64.8801 37.514 66.2098 37.5576 66.228 36.841C66.2463 36.1243 64.911 36.2778 64.5085 36.3111C64.1164 36.3386 63.7289 36.4118 63.354 36.5294C63.2231 36.566 63.1001 36.626 62.9909 36.7066C62.8304 36.8396 62.8545 36.9782 62.8258 37.1671C62.8006 37.2802 62.7693 37.3919 62.732 37.5016C62.7096 37.6156 62.7014 37.7319 62.7076 37.848C62.7227 38.0865 62.7746 38.3213 62.8616 38.5441C62.9896 38.9564 63.2409 39.32 63.5816 39.586C63.6363 39.6351 63.702 39.6702 63.7732 39.6883C63.8444 39.7064 63.9189 39.707 63.9903 39.69C64.0618 39.673 64.1279 39.639 64.1832 39.5908C64.2384 39.5425 64.2811 39.4816 64.3076 39.4132C64.3982 38.9897 64.3513 38.5482 64.1737 38.1528C64.0836 37.9073 63.9415 37.6842 63.7572 37.4985C63.5728 37.3128 63.3506 37.169 63.1056 37.0769C62.4249 36.8328 62.1053 37.4458 61.6263 37.7894C61.3842 37.9832 61.0758 38.0746 60.7668 38.0441C60.4937 38.0068 60.4611 38.4369 60.7369 38.4665C60.963 38.4843 61.1904 38.4567 61.4055 38.385C61.6205 38.3133 61.8189 38.1991 61.9888 38.0492C62.1754 37.9039 62.3225 37.7358 62.494 37.5721C62.7208 37.3633 62.9389 37.4329 63.1772 37.579C63.5092 37.7821 63.748 38.1073 63.8421 38.4843C63.9299 38.7429 63.9487 39.0197 63.8969 39.2877C63.9425 39.33 63.9451 39.1534 63.8969 39.2877L63.8546 39.2725C63.7351 39.1951 63.6342 39.0924 63.5589 38.9716C63.3413 38.6725 63.2007 38.3247 63.1496 37.9588C63.128 37.8089 63.1384 37.6561 63.18 37.5106C63.2188 37.4266 63.2501 37.3393 63.2736 37.2497C63.2812 37.1881 63.2817 37.1258 63.2751 37.0641C63.2572 37.114 63.313 37.043 63.3025 37.0479C63.343 37.0257 63.3849 37.006 63.4279 36.9889C63.5465 36.9411 63.6698 36.9054 63.7958 36.8826C64.3812 36.7257 64.9931 36.6929 65.5923 36.7863C65.6633 36.801 65.7319 36.8256 65.7961 36.8593C65.8269 36.8703 65.8392 36.8964 65.823 36.869C65.8382 36.8268 65.8068 36.8415 65.823 36.869C65.812 36.8997 65.8327 36.8421 65.823 36.869C65.6551 36.9951 65.4561 37.0733 65.2471 37.0955C64.6638 37.1926 64.0654 37.1447 63.5048 36.9559C63.4707 36.9463 63.4373 36.9343 63.4048 36.9201C63.3663 36.9063 63.3631 36.8791 63.3741 36.909C63.3616 36.8357 63.3563 36.7612 63.3583 36.6868C63.3338 36.5923 63.298 36.5009 63.2518 36.4148C63.1341 36.0739 63.1153 35.7068 63.1975 35.3559C63.2181 35.2984 63.2691 35.0352 63.3534 35.0178C63.4378 35.0004 63.4481 35.1167 63.4753 35.1741C63.5971 35.5005 63.6208 35.8552 63.5434 36.1946C63.545 36.2839 63.5241 36.3721 63.4827 36.4512C63.4412 36.5303 63.3805 36.5978 63.3062 36.6474C63.2319 36.697 63.1462 36.7271 63.0571 36.7351C62.968 36.7431 62.8783 36.7287 62.7961 36.6932C62.5191 36.5686 62.2902 36.3572 62.144 36.0912C61.9763 35.8408 61.8588 35.5604 61.7978 35.2655C61.7822 35.2147 61.7484 35.1716 61.7029 35.144C61.6575 35.1165 61.6035 35.1066 61.5513 35.1162C61.499 35.1258 61.4522 35.1543 61.4196 35.1962C61.3871 35.2381 61.3712 35.2905 61.3749 35.3434L61.3892 35.2793Z" fill="#FFAB5C"/>
<path d="M37.9308 67.0693C37.1395 67.198 36.4221 67.6083 35.9109 68.2244C35.5587 68.6741 35.536 69.5364 36.0174 69.9126C36.4536 70.1912 36.9719 70.3129 37.4865 70.2574C37.8887 70.2371 38.4585 70.1729 38.6906 69.7797C38.9615 69.3269 38.4624 68.9878 38.0839 68.8694C37.5234 68.6864 36.9205 68.6787 36.3559 68.8474C36.2203 68.9015 36.0778 68.9364 35.9325 68.9511C35.8281 68.953 35.7255 68.9784 35.6324 69.0254C35.5047 69.1192 35.4071 69.2483 35.3517 69.3968C35.177 69.8448 35.0788 70.319 35.0614 70.7997C35.0223 71.3443 34.9299 73.0304 35.828 73.019C36.1873 73.0092 36.3326 72.6282 36.396 72.3305C36.4847 71.8454 36.506 71.3503 36.4592 70.8591C36.441 70.3769 36.3615 69.8987 36.2229 69.4362C36.1801 69.2728 36.1053 69.1194 36.0028 68.985C35.8199 68.7808 35.5688 68.8639 35.3328 68.7837C34.7857 68.6043 34.1925 68.6268 33.661 68.8469C33.1529 68.9977 32.7077 69.3092 32.3924 69.7345C32.3427 69.8077 32.3118 69.8918 32.3022 69.9797C32.2926 70.0676 32.3047 70.1566 32.3375 70.2388C32.3764 70.348 32.3374 70.2388 32.3561 70.2715C32.3727 70.3096 32.3931 70.3459 32.417 70.3799C32.4784 70.4423 32.5541 70.4888 32.6376 70.5152C33.1517 70.6319 33.6892 70.5872 34.1764 70.3871C34.4857 70.2848 34.7691 70.117 35.0074 69.8953C35.2456 69.6736 35.4332 69.4031 35.5571 69.1023C35.8941 68.2834 35.0949 67.8496 34.6972 67.2523C34.4558 66.9274 34.3507 66.5216 34.4041 66.1209C34.4449 65.8497 34.018 65.8179 33.981 66.0905C33.9513 66.3688 33.9784 66.6503 34.0607 66.9179C34.143 67.1856 34.2788 67.4339 34.4598 67.6479C34.6342 67.888 34.8546 68.0839 35.0529 68.2936C35.3225 68.6068 35.2229 68.9088 35.0092 69.2263C34.7601 69.5746 34.4136 69.8419 34.0131 69.9948C33.6125 70.1477 33.1756 70.1794 32.7568 70.086C32.7251 70.1743 32.7568 70.086 32.7568 70.086C32.7444 70.1205 32.7367 69.9965 32.7367 70.0571C32.742 70.0289 32.7517 70.0017 32.7656 69.9766C32.8586 69.8223 32.9884 69.6932 33.1433 69.6009C33.5277 69.3286 33.9718 69.1523 34.4387 69.0867C34.651 69.0521 34.8685 69.0664 35.0746 69.1285C35.1738 69.1705 35.2752 69.2069 35.3785 69.2374C35.4707 69.2705 35.6807 69.2419 35.7087 69.2606C35.8279 69.3639 35.8864 69.7574 35.9102 69.9088C36.0918 70.6657 36.1173 71.4513 35.985 72.2178C35.9704 72.331 35.9315 72.4396 35.8708 72.5363C35.8516 72.59 35.8488 72.5977 35.7824 72.5652C35.5679 72.4493 35.5354 72.0436 35.5081 71.8173C35.3948 71.058 35.4771 70.2827 35.7472 69.5645C35.7766 69.4971 35.814 69.4335 35.8586 69.375C35.957 69.365 36.0558 69.36 36.1548 69.3599C36.2711 69.3333 36.3842 69.2939 36.4919 69.2426C36.9312 69.1089 37.4 69.104 37.8423 69.2287C37.9461 69.2659 38.2933 69.3385 38.3212 69.4784C38.3492 69.6184 38.1673 69.6657 38.0865 69.6974C37.66 69.8446 37.2002 69.8675 36.7609 69.7634C36.5632 69.7336 36.3787 69.6463 36.2303 69.5125C36.1571 69.3947 36.1095 69.2628 36.0906 69.1255C36.0718 68.9882 36.0822 68.8485 36.1211 68.7155C36.2991 68.35 36.593 68.0536 36.9573 67.8721C37.2823 67.6762 37.6409 67.542 38.0149 67.4761C38.0705 67.4656 38.1196 67.4335 38.1514 67.3869C38.1831 67.3402 38.1951 67.2828 38.1844 67.2273C38.1738 67.1719 38.1416 67.1228 38.0948 67.091C38.048 67.0592 37.9905 67.0472 37.9349 67.0577L37.9308 67.0693Z" fill="#FFAB5C"/>
<path d="M31.6773 8.17023C32.3741 7.99359 32.9852 7.57592 33.4019 6.99144C33.5518 6.75866 33.6163 6.48108 33.5844 6.20597C33.5525 5.93087 33.4262 5.67517 33.227 5.48227C32.8287 5.24823 32.3597 5.16462 31.9054 5.24662C31.5311 5.28567 31.0198 5.3925 30.8081 5.74098C30.5562 6.15301 30.9808 6.46978 31.3379 6.56317C31.8512 6.69061 32.3906 6.66409 32.8885 6.48689C32.99 6.43165 33.0956 6.38405 33.2042 6.34456C33.3231 6.33799 33.4399 6.31103 33.5496 6.26487C33.6669 6.17965 33.753 6.05846 33.7949 5.91975C33.9231 5.51931 33.9782 5.09905 33.9576 4.67896C33.9511 4.15261 33.9253 2.67533 33.1178 2.67598C32.3104 2.67662 32.5827 4.1686 32.6533 4.601C32.7101 5.03801 32.8168 5.46712 32.9715 5.87998C33.0232 6.02423 33.098 6.15923 33.1928 6.27976C33.3556 6.45506 33.5196 6.39701 33.7361 6.42265C33.9872 6.47706 34.2434 6.50506 34.5003 6.50614C34.7664 6.47467 35.0258 6.40095 35.2686 6.28786C35.7246 6.11014 36.1145 5.79627 36.3851 5.38901C36.4306 5.3262 36.4604 5.25339 36.4719 5.17666C36.4834 5.09994 36.4764 5.02155 36.4513 4.94808C36.4262 4.8746 36.3838 4.80818 36.3277 4.75439C36.2716 4.7006 36.2034 4.66097 36.1289 4.6389C35.6508 4.57108 35.1637 4.65739 34.7386 4.88527C34.4662 5.00571 34.2242 5.18524 34.03 5.41072C33.8358 5.6362 33.6943 5.90206 33.6158 6.18902C33.4264 6.93524 34.156 7.24871 34.5494 7.7492C34.7758 8.0067 34.8951 8.34081 34.8829 8.68298C34.882 8.73721 34.902 8.78972 34.9387 8.82975C34.9754 8.86977 35.0261 8.89427 35.0803 8.89817C35.1345 8.90207 35.1881 8.88506 35.2301 8.85069C35.272 8.81633 35.2992 8.76721 35.306 8.71341C35.3141 8.47031 35.2741 8.22796 35.1882 8.00022C35.1022 7.77248 34.9722 7.56387 34.8053 7.38635C34.644 7.20503 34.4698 7.03548 34.2841 6.87903C34.2203 6.8392 34.1649 6.7871 34.1212 6.72588C34.0775 6.66466 34.0463 6.59546 34.0294 6.52222C34.0125 6.44898 34.0103 6.37318 34.0228 6.29911C34.0354 6.22505 34.0624 6.15419 34.1025 6.09062C34.1977 5.88193 34.3348 5.69515 34.5055 5.54179C34.6763 5.38843 34.8768 5.27183 35.0948 5.19926C35.3357 5.10811 35.8095 4.9488 36.0589 5.0642C36.0685 5.03733 36.005 5.04489 36.0589 5.0642C36.0532 5.08806 36.0449 5.1112 36.0341 5.13324C35.9684 5.26462 35.8725 5.37861 35.7543 5.46595C35.4391 5.7384 35.0632 5.93182 34.658 6.03003C34.4753 6.07543 34.2851 6.08245 34.0994 6.05063C34.0071 6.01754 33.9149 5.98438 33.8196 5.97185C33.7462 5.96802 33.6726 5.97071 33.5998 5.97974C33.5767 5.97146 33.4915 5.96684 33.5363 5.98722C33.4132 5.9431 33.3146 5.55267 33.2726 5.40338C33.0585 4.7513 32.9791 4.06284 33.0391 3.3796C33.0455 3.29315 33.0657 3.20822 33.0989 3.12815C33.1209 3.06675 33.1223 3.06296 33.1668 3.09623C33.3345 3.22135 33.4045 3.51056 33.4464 3.72046C33.6065 4.38512 33.5922 5.07952 33.4048 5.73657C33.3949 5.77622 33.3811 5.8148 33.3636 5.8517C33.3512 5.88624 33.3198 5.90103 33.3498 5.89011C33.2687 5.93466 33.135 5.90831 33.0465 5.93722C32.9601 5.9726 32.8759 6.01328 32.7945 6.05904C32.4182 6.20695 32.0073 6.24441 31.61 6.16702C31.5186 6.15588 31.198 6.10597 31.1813 5.98307C31.1937 5.94853 31.3121 5.84807 31.3762 5.81473C31.7515 5.64647 32.1692 5.59543 32.5744 5.66834C32.7385 5.6758 32.8967 5.73251 33.0282 5.83104C33.0965 5.92817 33.1445 6.03804 33.1692 6.15407C33.194 6.27011 33.195 6.38989 33.1723 6.50628C33.0509 6.82228 32.8313 7.0911 32.5457 7.27335C32.2699 7.48128 31.9571 7.63511 31.6237 7.72663C31.3586 7.80045 31.4449 8.22544 31.7024 8.14887L31.6773 8.17023Z" fill="#FFAB5C"/>
<path d="M51.1283 12.3342C50.6737 11.9557 50.3732 11.4244 50.2838 10.8405C50.2692 10.7434 50.2769 10.6444 50.3062 10.5508C50.3356 10.4572 50.3858 10.3716 50.4532 10.3003C50.5205 10.2289 50.6033 10.1738 50.6951 10.1391C50.787 10.1043 50.8855 10.0908 50.9834 10.0996C51.3217 10.1671 51.6375 10.3191 51.9013 10.5413C51.9903 10.6079 52.3267 10.8801 52.2129 11.0038C52.1494 11.072 51.8862 10.995 51.8194 10.9754C51.6174 10.9189 51.4241 10.8349 51.2448 10.726C51.0881 10.6396 50.9462 10.5288 50.8244 10.3977C50.7651 10.3332 50.7243 10.2535 50.665 10.189C50.6056 10.1244 50.4567 10.0797 50.3914 9.99562C50.3914 9.99562 50.3914 9.99558 50.4038 9.96105C50.403 9.92404 50.4046 9.88712 50.4088 9.85035C50.4258 9.71428 50.4578 9.58051 50.504 9.45144C50.6061 9.13549 50.7414 8.8312 50.9076 8.54375C51.0496 8.26897 51.2333 8.01788 51.4523 7.79934C51.5175 7.73262 51.5967 7.68115 51.6842 7.64865C51.7017 7.64255 51.7203 7.64031 51.7387 7.64214C51.7402 7.86042 51.6785 8.07442 51.5611 8.2584C51.4085 8.57281 51.2245 8.87101 51.0119 9.14848C50.8372 9.40285 50.634 9.6366 50.4063 9.84513C50.3433 9.91176 50.268 9.96556 50.1845 10.0037C50.1845 10.0037 50.323 10.0533 50.1269 9.98302C50.0248 9.92692 49.9145 9.88736 49.8 9.86583C49.4155 9.78594 49.0735 9.56784 48.8393 9.25294C48.5972 8.99162 48.4321 8.66865 48.3623 8.31975C48.3761 8.28138 48.3709 8.2232 48.3693 8.17931C48.4484 8.16437 48.3677 8.13542 48.3693 8.17931C48.2902 8.19424 48.4501 8.20827 48.4808 8.2193C48.5573 8.25119 48.6304 8.2905 48.6992 8.33659C49.0837 8.5667 49.3852 8.91293 49.5599 9.32512C49.6707 9.61676 49.6782 9.93725 49.5814 10.2335C49.4526 10.5078 49.0372 10.5408 48.7512 10.6244C48.478 10.7006 48.2249 10.8351 48.0092 11.0188C47.7934 11.2024 47.6203 11.4307 47.5019 11.6879C47.5017 11.7326 47.5154 11.7763 47.5411 11.813C47.5668 11.8497 47.6033 11.8776 47.6455 11.8927C47.6877 11.9079 47.7336 11.9095 47.7767 11.8975C47.8199 11.8855 47.8582 11.8605 47.8865 11.8258C47.9624 11.6616 48.0701 11.5141 48.2034 11.3917C48.3367 11.2693 48.4928 11.1744 48.663 11.1125C49 11.0163 49.3312 10.9009 49.6549 10.7666C50.2046 10.444 50.1386 9.56287 49.912 9.05721C49.6839 8.59214 49.3228 8.20494 48.8744 7.94468C48.5926 7.77436 48.2221 7.64583 48.0062 7.9452C47.7904 8.24457 48.0027 8.75382 48.1644 9.0413C48.4036 9.50605 48.7744 9.89046 49.2306 10.1467C49.3373 10.2023 49.4512 10.2431 49.569 10.2681C49.7137 10.3028 49.8543 10.3532 49.9881 10.4184C50.0542 10.4473 50.1261 10.4606 50.1981 10.4572C50.2702 10.4537 50.3404 10.4335 50.4033 10.3982C50.7162 10.2018 50.9849 9.94289 51.1925 9.63759C51.4814 9.278 51.7304 8.88807 51.9349 8.47468C52.1207 8.19392 52.1889 7.85158 52.1249 7.52088C52.0934 7.45789 52.0489 7.40228 51.9943 7.35772C51.9396 7.31317 51.8762 7.28069 51.8081 7.26241C51.74 7.24414 51.6688 7.24048 51.5992 7.2517C51.5296 7.26293 51.4633 7.28873 51.4045 7.32747C51.0776 7.53735 50.8105 7.82792 50.629 8.17107C50.3912 8.55067 50.2013 8.95824 50.0637 9.38449C49.9715 9.64158 49.8633 10.0401 50.0478 10.2881C50.123 10.3931 50.2527 10.4309 50.3425 10.5194C50.4323 10.6079 50.482 10.6993 50.5616 10.7798C50.7454 10.9531 50.9532 11.099 51.1786 11.2132C51.5198 11.3875 52.0625 11.6168 52.4148 11.3967C52.7671 11.1766 52.646 10.752 52.4192 10.4888C52.1094 10.1441 51.7103 9.89161 51.266 9.75921C51.0703 9.67587 50.8525 9.65947 50.6467 9.71256C50.4408 9.76564 50.2584 9.88527 50.1279 10.0527C49.6465 10.6207 49.8516 11.3438 50.2029 11.9375C50.3783 12.2286 50.5999 12.4895 50.8591 12.7097C51.067 12.8925 51.3111 12.5383 51.1044 12.3646L51.1283 12.3342Z" fill="#FFAB5C"/>
<path d="M44.0225 5.10027C43.5338 4.91004 43.1396 4.53531 42.9253 4.05728C42.8765 3.92335 42.8825 3.77579 42.9419 3.64637C43.0013 3.51695 43.1093 3.41612 43.2427 3.36567C43.5162 3.32147 43.7966 3.34749 44.0575 3.44128C44.1498 3.47437 44.5497 3.61777 44.5328 3.73732C44.5439 3.70662 44.5329 3.73726 44.4848 3.75033C44.4327 3.77121 44.3782 3.78512 44.3224 3.79171C44.1554 3.80914 43.9868 3.80267 43.8216 3.77241C43.4871 3.67565 43.1625 3.54764 42.852 3.39011C42.7982 3.37081 42.8143 3.3983 42.7891 3.31131C42.7602 3.20203 42.7466 3.08931 42.7486 2.97634C42.7469 2.69511 42.7734 2.41445 42.8277 2.13857C42.8698 1.86827 42.9536 1.60616 43.0759 1.36148C43.1146 1.28586 43.1669 1.21795 43.2302 1.16124C43.2763 1.11717 43.2571 1.17086 43.2398 1.13435C43.2744 1.30528 43.2776 1.48113 43.2491 1.65311C43.2102 1.92432 43.1464 2.19136 43.0586 2.45088C42.984 2.71325 42.8814 2.96685 42.7526 3.20731C42.71 3.28134 42.6627 3.35255 42.611 3.42064C42.6028 3.44367 42.5973 3.45905 42.6 3.45137C42.6607 3.45149 42.6028 3.4437 42.6 3.45137C42.5393 3.45126 42.4924 3.4127 42.4327 3.42163C42.2767 3.40899 42.1321 3.46116 41.9904 3.44498C41.8237 3.41771 41.6634 3.36024 41.5174 3.2754C41.2237 3.12815 40.9706 2.91098 40.7807 2.64312C40.7532 2.59863 40.7348 2.55306 40.7112 2.50996C40.6876 2.46685 40.669 2.37356 40.6767 2.49755C40.6646 2.39797 40.7428 2.48238 40.6876 2.46692C40.6434 2.48137 40.6324 2.45145 40.6876 2.46692C40.7413 2.46518 40.795 2.46985 40.8475 2.4809C41.2039 2.54646 41.5344 2.71154 41.8008 2.95697C41.961 3.12159 42.075 3.3252 42.1316 3.54752C42.163 3.61966 42.1742 3.69903 42.1638 3.77697C42.1534 3.85491 42.122 3.92848 42.0728 3.98984C41.9628 4.08363 41.8432 4.16563 41.716 4.2344C41.4776 4.36962 41.2728 4.5568 41.1169 4.78206C40.961 5.00732 40.858 5.26486 40.8156 5.53549C40.8221 5.58486 40.8455 5.63049 40.8818 5.66466C40.9182 5.69883 40.9652 5.71937 41.0149 5.72295C41.0647 5.72653 41.1141 5.71285 41.1549 5.68422C41.1957 5.6556 41.2252 5.61385 41.2386 5.56591C41.2666 5.38162 41.3336 5.20545 41.4353 5.04922C41.537 4.89298 41.6709 4.76026 41.8282 4.65998C42.0777 4.4723 42.4166 4.33826 42.5332 4.02498C42.5863 3.76339 42.5672 3.49225 42.4778 3.24051C42.3884 2.98876 42.2322 2.76594 42.0258 2.59589C41.6935 2.3122 40.2771 1.56614 40.2349 2.43442C40.2168 2.78739 40.5584 3.11775 40.7866 3.31649C41.1257 3.62662 41.5562 3.81893 42.0135 3.86466C42.1168 3.86705 42.2182 3.83841 42.319 3.83559C42.4341 3.85523 42.5504 3.86657 42.6671 3.86947C42.7829 3.83982 42.8846 3.77053 42.9543 3.67366C43.1484 3.40757 43.2961 3.1105 43.3908 2.79511C43.5267 2.4276 43.6212 2.04617 43.6728 1.65772C43.7015 1.40818 43.7311 1.05936 43.5276 0.852169C43.4768 0.808474 43.4174 0.775853 43.3532 0.756551C43.289 0.73725 43.2215 0.73172 43.155 0.740154C43.0886 0.748588 43.0247 0.770876 42.9675 0.805585C42.9102 0.840294 42.8609 0.886636 42.8228 0.941613C42.6119 1.22202 42.4723 1.54937 42.4157 1.89562C42.3251 2.26939 42.2837 2.65341 42.2925 3.03801C42.3028 3.27555 42.3227 3.60745 42.5457 3.74803C42.6655 3.8256 42.8111 3.84319 42.9207 3.91279C43.0062 3.96841 43.0964 4.01661 43.1901 4.05698C43.4055 4.14502 43.6329 4.2003 43.8647 4.22093C44.1908 4.25557 44.7205 4.25491 44.8809 3.89235C45.0413 3.52979 44.6266 3.23392 44.3335 3.10719C43.9393 2.93389 43.501 2.88722 43.0794 2.97367C42.8598 3.05125 42.6759 3.20564 42.5617 3.40834C42.4475 3.61104 42.4108 3.84835 42.4584 4.07619C42.5784 4.73414 43.2773 5.26618 43.8519 5.5155C44.1065 5.62844 44.251 5.22553 43.9895 5.13178L44.0225 5.10027Z" fill="#FFAB5C"/>
<path d="M66.4544 32.9293C66.4748 32.2913 66.697 31.4054 67.2571 31.0172C67.4121 30.9018 67.606 30.8509 67.7979 30.8754C67.9899 30.8998 68.165 30.9975 68.2864 31.1481C68.4847 31.4906 68.5864 31.8803 68.5808 32.2757C68.5843 32.4112 68.5876 32.971 68.3566 32.9011C68.2182 32.8515 68.1145 32.5718 68.0808 32.4601C67.9954 32.2437 67.9395 32.0168 67.9147 31.7856C67.8841 31.579 67.8904 31.3687 67.9334 31.1645C67.9619 31.0654 67.9768 30.9629 67.9775 30.8598C67.9762 30.7837 67.967 30.7078 67.9502 30.6335C68.0462 30.4384 68.4452 30.3302 68.6301 30.2623C68.9862 30.1356 69.3544 30.0456 69.7289 29.9936C70.0529 29.9269 70.387 29.9246 70.7121 29.9868C70.8583 30.0392 71.0275 30.0998 70.8923 30.1986C70.6395 30.3502 70.3566 30.4453 70.0632 30.4773C69.6887 30.5479 69.3089 30.587 68.9277 30.5942C68.6152 30.613 68.3015 30.5937 67.9937 30.5365C67.9243 30.5209 67.8571 30.4969 67.7937 30.4648C67.7522 30.4109 67.7672 30.2604 67.7417 30.1863C67.7162 30.1121 67.6297 29.9902 67.5817 29.882C67.457 29.5185 67.4258 29.1297 67.491 28.7512C67.5561 28.3728 67.7155 28.0169 67.9546 27.7163C68.0064 27.6626 68.0714 27.6231 68.1431 27.6019C68.1821 27.6506 68.242 27.5681 68.1431 27.6019C68.1613 27.6292 68.1771 27.6581 68.1903 27.6882C68.2103 27.7777 68.2394 27.866 68.2503 27.9565C68.3532 28.5027 68.2497 29.0674 67.9599 29.5413C67.7915 29.7842 67.5617 29.9781 67.2939 30.1036C66.9369 30.2398 66.6363 29.8679 66.3466 29.7077C66.092 29.5216 65.8003 29.3923 65.4914 29.3286C65.1825 29.2649 64.8636 29.2683 64.5564 29.3386C64.2961 29.4229 64.3747 29.8452 64.635 29.761C65.0278 29.651 65.4483 29.6991 65.8063 29.8951C66.1758 30.0752 66.5176 30.4532 66.9354 30.5467C67.537 30.6845 68.1637 30.0864 68.4249 29.5998C68.6862 29.1132 69.063 27.0094 68.0373 27.183C67.6664 27.2492 67.4202 27.6936 67.3088 28.0044C67.0847 28.5009 66.9978 29.0483 67.0571 29.59C67.1035 29.8224 67.1839 30.0468 67.2957 30.2559C67.392 30.4593 67.3581 30.7113 67.5608 30.8359C67.9004 31.0054 68.2804 31.0772 68.6582 31.0432C69.176 31.0485 69.6929 31.0018 70.2012 30.9036C70.5723 30.8623 70.9244 30.7186 71.2179 30.4886C71.2725 30.4355 71.314 30.3704 71.3389 30.2984C71.3638 30.2265 71.3716 30.1498 71.3616 30.0743C71.3515 29.9988 71.324 29.9267 71.2812 29.8636C71.2383 29.8006 71.1814 29.7484 71.1148 29.7111C70.7531 29.5352 70.345 29.4782 69.9492 29.5486C69.4341 29.5919 68.9267 29.7011 68.4397 29.8735C68.1492 29.9816 67.7365 30.1281 67.5723 30.4286C67.5285 30.5085 67.5093 30.5997 67.5174 30.6905C67.5312 30.8412 67.5236 30.9929 67.4947 31.1413C67.4457 31.4305 67.4515 31.7264 67.5118 32.0136C67.5877 32.4435 67.7631 33.1041 68.2031 33.3051C68.7123 33.531 68.9679 32.9514 69.0077 32.5499C69.069 31.9833 68.9431 31.412 68.6492 30.923C68.4879 30.6966 68.2497 30.5363 67.979 30.4719C67.7083 30.4075 67.4236 30.4435 67.1777 30.573C66.3931 30.9457 66.0576 32.1114 66.0351 32.9002C66.024 33.1734 66.4548 33.2066 66.4582 32.9306L66.4544 32.9293Z" fill="#FFAB5C"/>
</svg>
