<svg width="110" height="68" viewBox="0 0 110 68" fill="none" xmlns="http://www.w3.org/2000/svg">
<path opacity="0.15" d="M27.9279 52.3091C22.1024 46.5662 19.517 38.0633 19.8232 29.9129C20.0047 25.0093 21.1946 20.0646 23.8537 15.9367C26.5128 11.8089 30.7439 8.57604 35.582 7.71388C40.4201 6.85171 45.7966 8.61493 48.7237 12.5616C49.7971 14.0605 50.5933 15.7387 51.0747 17.5168C53.1531 24.745 51.3645 32.769 47.1753 39.0154C42.986 45.2618 36.5952 49.8212 29.6402 52.7382C32.7428 51.5531 35.9271 50.3473 39.2519 50.3064C42.5768 50.2655 46.1238 51.6255 47.7752 54.4979C49.8007 57.9954 48.1901 62.9211 44.7132 64.9575C41.2362 66.9939 36.493 66.2804 33.4154 63.6533C30.3378 61.0262 28.8918 56.7991 27.9279 52.3091Z" fill="#82AF6C"/>
<path d="M15.5579 43.1927C15.3462 38.7436 13.898 34.44 11.3752 30.7634C10.0687 28.8864 8.28072 27.0927 6.01314 26.9277C5.46533 26.874 4.91264 26.9503 4.40018 27.1501C3.88771 27.35 3.42994 27.6678 3.06406 28.0778C2.71284 28.5 2.51653 29.0293 2.50756 29.5782C2.49858 30.1272 2.67749 30.6629 3.01471 31.0971C3.74562 31.9156 5.27146 31.9017 5.8519 30.9712M14.1903 43.1899C12.9665 39.8981 10.8366 37.017 8.04569 34.878C6.61262 33.778 4.8053 32.8403 3.02527 33.2524C2.59508 33.3383 2.19078 33.5225 1.84422 33.7908C1.49765 34.059 1.21829 34.4039 1.028 34.7983C0.859528 35.1954 0.834892 35.6388 0.958406 36.0523C1.08192 36.4658 1.34585 36.8238 1.70483 37.0645C2.4659 37.5086 3.62703 37.1413 3.85474 36.3136M33.2522 54.7424C41.3641 62.1182 51.9306 67.4442 62.9054 66.9446C68.5693 66.682 74.0319 64.9033 79.5106 63.4447C84.4385 62.1313 89.4684 61.0584 94.5723 61.0032C99.6762 60.948 104.876 61.9666 109.237 64.5698M31.522 52.9401C26.6388 48.5411 24.225 42.0443 22.7888 35.6281C21.4238 29.5741 20.79 23.1574 22.6229 17.2316C23.9047 13.1157 26.314 9.44025 29.5788 6.6198C30.9613 5.38809 32.5473 4.40471 34.2665 3.7133C39.6847 1.64664 46.1677 3.84382 49.9912 8.20426C53.8146 12.5647 55.2058 18.6757 54.7031 24.4423C54.2291 29.8842 52.2038 35.0754 48.8665 39.4026C44.3978 45.1601 37.9143 48.9246 31.522 52.9401ZM31.4153 52.9165C35.1949 56.711 39.6973 59.9057 44.8073 61.5337C49.9173 63.1618 55.674 63.1034 60.4727 60.7304C61.6997 60.1713 62.7946 59.3601 63.6858 58.3498C65.876 55.7032 65.5985 51.5469 63.5085 48.7971C61.4186 46.0473 57.9382 44.6377 54.5046 44.4495C51.071 44.2613 47.66 45.1694 44.4292 46.3521C39.8548 48.0392 35.4886 50.2416 31.4153 52.9165ZM31.5977 52.5924C38.7351 41.6007 42.6788 28.1407 40.4466 15.2253C39.6674 10.6943 37.9294 5.99692 34.1635 3.33955C30.7728 0.948057 26.126 0.657893 22.2782 2.21111C18.4305 3.76433 15.4025 7.00705 13.6801 10.7742C11.9576 14.5414 11.4723 18.7924 11.8251 22.918C12.3552 29.1024 14.7212 35.0708 18.2516 40.1848C21.7532 45.2312 26.3059 49.4638 31.5977 52.5924ZM31.6803 52.4699C34.0374 56.335 38.9208 57.9008 43.4409 58.1034C49.3939 58.3446 55.5026 56.6126 60.2056 52.9476C61.8857 51.6364 63.4146 50.0354 64.1904 48.0518C64.7913 46.3934 64.8424 44.5857 64.3361 42.895C63.8299 41.2043 62.793 39.72 61.3783 38.6607C59.4505 37.3694 57.1304 36.7937 54.8224 37.034C52.5315 37.2823 50.3106 37.9691 48.2812 39.0569C42.1697 42.1193 37.2791 47.1557 31.6803 52.4699ZM31.1252 52.6739C26.779 49.2352 22.3408 45.7464 17.2107 43.6988C16.4081 43.3172 15.5251 43.1349 14.637 43.1674C13.7601 43.2544 12.8676 43.8258 12.6796 44.6878C12.4479 45.7501 13.2986 46.7273 14.1494 47.4093C19.0093 51.2854 25.5747 52.0625 31.7603 52.6926C31.4221 52.747 31.1111 52.9105 30.875 53.1582C30.6389 53.4058 30.4907 53.7238 30.4532 54.0637C30.2462 55.3667 31.4822 60.006 35.5794 62.0294C35.907 62.2424 36.3057 62.3171 36.6881 62.237C36.9125 62.1321 37.0939 61.9532 37.2018 61.7305C37.3097 61.5078 37.3377 61.2548 37.2809 61.0139C37.1562 60.532 36.916 60.0874 36.581 59.7185C34.6362 57.1887 33.094 54.2289 31.1252 52.6739Z" stroke="#82AF6C" stroke-miterlimit="10"/>
</svg>
