<svg width="164" height="201" viewBox="0 0 164 201" fill="none" xmlns="http://www.w3.org/2000/svg">
<path opacity="0.15" d="M127.776 191.205C139.721 190.101 148.51 179.528 147.406 167.589C146.303 155.65 135.725 146.866 123.78 147.97C111.835 149.074 103.047 159.647 104.15 171.587C105.254 183.526 115.831 192.309 127.776 191.205Z" fill="#3EB2CB"/>
<path opacity="0.15" d="M80.2826 96.3717C98.0779 94.7271 111.171 78.9747 109.527 61.1877C107.883 43.4008 92.1249 30.3149 74.3296 31.9596C56.5343 33.6042 43.441 49.3567 45.0849 67.1436C46.7288 84.9305 62.4874 98.0164 80.2826 96.3717Z" fill="#3EB2CB"/>
<path d="M87.3118 151.812L87.5191 151.357H87.5191L87.3118 151.812ZM61.6819 40.621L61.5624 41.1065L61.6458 41.127L61.7311 41.1185L61.6819 40.621ZM62.1383 24.1736L62.1872 23.676L62.187 23.676L62.1383 24.1736ZM57.0411 90.448L57.4642 90.1815L57.0647 89.5474L56.6326 90.1597L57.0411 90.448ZM55.9835 110.408L55.996 109.908L55.9959 109.908L55.9835 110.408ZM79.752 80.131L79.3979 79.778C79.358 79.818 79.3252 79.8645 79.3008 79.9154L79.752 80.131ZM92.7761 90.1844L92.3602 89.9068L92.36 89.9071L92.7761 90.1844ZM38.8226 51.1166L39.1475 51.4967L39.3328 51.3383L39.3221 51.0947L38.8226 51.1166ZM23.4511 40.1321L23.8519 40.431L23.8519 40.431L23.4511 40.1321ZM81.979 54.8076L81.4923 54.9221C81.5052 54.9773 81.5275 55.0298 81.5581 55.0775L81.979 54.8076ZM97.3971 49.0533L96.9421 49.2606L96.9422 49.2608L97.3971 49.0533ZM36.5634 75.9932L37.0575 75.9168L37.0204 75.6765L36.8083 75.5573L36.5634 75.9932ZM19.1204 83.2473L18.6551 83.4303L18.6551 83.4304L19.1204 83.2473ZM48.7298 42.4232L48.972 41.9857L48.359 41.6464L48.2374 42.3364L48.7298 42.4232ZM73.6025 44.1289L73.784 44.5949L73.7859 44.5941L73.6025 44.1289ZM78.869 35.3173L78.514 34.9652L78.5115 34.9677L78.869 35.3173ZM84.3978 67.4921L84.7309 67.1193L84.7162 67.1061L84.7005 67.0942L84.3978 67.4921ZM94.0753 66.2373L94.113 65.7388L94.093 65.7373L94.0729 65.7374L94.0753 66.2373ZM70.1424 87.9468L70.6393 88.0028L70.6397 87.9986L70.1424 87.9468ZM75.9966 92.2379L76.3425 91.8768L76.3157 91.8511L76.2854 91.8297L75.9966 92.2379ZM44.0555 86.3978L44.2825 86.8434L44.2872 86.8409L44.0555 86.3978ZM44.3855 92.7612L44.8731 92.8718L44.8795 92.8437L44.8825 92.815L44.3855 92.7612ZM31.7416 62.7389L31.5089 63.1814L31.5089 63.1814L31.7416 62.7389ZM23.8652 64.7438L23.9296 65.2397L23.9694 65.2345L24.0079 65.223L23.8652 64.7438ZM127.299 166.777L126.812 166.663L126.017 170.061L127.734 167.023L127.299 166.777ZM132.912 146.356L132.56 146.71C132.71 146.86 132.939 146.898 133.13 146.806C133.321 146.714 133.433 146.511 133.409 146.301L132.912 146.356ZM127.775 135.809L127.512 135.384L127.512 135.384L127.775 135.809ZM137.225 147.506L136.885 147.139C136.73 147.284 136.682 147.511 136.767 147.705C136.852 147.899 137.05 148.019 137.261 148.004L137.225 147.506ZM148.001 142.866L148.478 142.716L148.478 142.716L148.001 142.866ZM120.926 186.646L121.327 186.346C121.199 186.176 120.979 186.105 120.777 186.169C120.574 186.232 120.434 186.417 120.427 186.629L120.926 186.646ZM124.484 197.823L124.284 197.365L124.284 197.365L124.484 197.823ZM116.824 184.885L117.108 185.296C117.283 185.176 117.362 184.958 117.307 184.754C117.251 184.549 117.072 184.402 116.861 184.386L116.824 184.885ZM105.49 187.921L105.984 187.842L105.984 187.842L105.49 187.921ZM142.599 181.475L142.484 180.988C142.277 181.037 142.124 181.211 142.102 181.422C142.08 181.633 142.193 181.835 142.385 181.926L142.599 181.475ZM154.283 182.664L154.783 182.665L154.783 182.662L154.283 182.664ZM139.026 184.524L139.511 184.401C139.459 184.196 139.283 184.045 139.072 184.026C138.861 184.006 138.66 184.122 138.572 184.315L139.026 184.524ZM137.906 196.196L138.005 195.706L138.004 195.706L137.906 196.196ZM106.15 172.224L106.639 172.329C106.683 172.122 106.592 171.909 106.411 171.798C106.231 171.687 106 171.703 105.835 171.836L106.15 172.224ZM100.051 182.243L100.266 181.792L100.266 181.792L100.051 182.243ZM105.141 167.762L104.983 168.236C105.185 168.303 105.406 168.236 105.536 168.068C105.666 167.9 105.676 167.669 105.561 167.491L105.141 167.762ZM95.8954 160.54L95.5351 160.194L95.5351 160.194L95.8954 160.54ZM147.614 160.548L147.154 160.354C147.071 160.549 147.121 160.775 147.278 160.918C147.435 161.061 147.664 161.089 147.851 160.988L147.614 160.548ZM155.477 151.844L155.772 151.44L155.772 151.44L155.477 151.844ZM148.157 164.979L148.369 164.526C148.177 164.436 147.949 164.477 147.801 164.628C147.652 164.779 147.615 165.008 147.708 165.198L148.157 164.979ZM156.488 173.237L156.171 172.85L156.171 172.85L156.488 173.237ZM110.861 150.276L110.932 150.771C111.142 150.741 111.31 150.581 111.351 150.373C111.393 150.165 111.298 149.953 111.114 149.845L110.861 150.276ZM99.3235 148.023L99.8218 148.064L99.8222 148.059L99.3235 148.023ZM114.349 147.315L113.852 147.374C113.877 147.584 114.032 147.756 114.239 147.803C114.446 147.85 114.66 147.761 114.772 147.581L114.349 147.315ZM116.974 135.882L117.135 135.409L117.135 135.409L116.974 135.882ZM127.189 166.885L127.67 167.02L128.614 163.659L126.765 166.62L127.189 166.885ZM127.33 166.774L127.475 167.253L130.817 166.236L127.324 166.274L127.33 166.774ZM127.356 166.62L127.195 166.147L123.887 167.268L127.377 167.12L127.356 166.62ZM127.248 165.941L127.59 165.576L125.045 163.187L126.818 166.195L127.248 165.941ZM127.115 165.989L126.784 166.364L129.402 168.671L127.537 165.722L127.115 165.989ZM127.819 166.152C120.742 160.276 114.353 158.275 107.882 156.889C101.408 155.502 94.9409 154.738 87.5191 151.357L87.1045 152.267C94.656 155.707 101.291 156.5 107.672 157.867C114.056 159.234 120.273 161.186 127.18 166.921L127.819 166.152ZM87.5191 151.357C73.8302 145.121 54.4287 130.078 52.8651 106.398L51.8673 106.464C53.4669 130.689 73.2818 145.97 87.1045 152.267L87.5191 151.357ZM49.1934 42.6554C41.0875 11.3817 17.6834 1.38191 0.546679 0.248161L0.480665 1.24598C17.2944 2.35836 40.2524 12.1454 48.2254 42.9063L49.1934 42.6554ZM57.5537 90.4283C55.74 79.2637 57.95 72.0592 60.1018 65.011C62.2621 57.935 64.3689 51.0032 62.1722 40.5271L61.1935 40.7323C63.3351 50.9458 61.2975 57.6697 59.1454 64.719C56.9848 71.796 54.7143 79.186 56.5666 90.5886L57.5537 90.4283ZM38.4461 51.6274C46.1278 54.6005 52.3165 59.9413 58.6464 65.4883C64.9558 71.0173 71.4019 76.7476 79.5361 80.3401L79.9401 79.4254C71.9701 75.9054 65.6373 70.2849 59.3054 64.7362C52.994 59.2054 46.6791 53.7416 38.8071 50.6948L38.4461 51.6274ZM36.5525 76.6185C44.9084 74.9676 53.7119 69.6678 61.6725 64.8138C65.6692 62.3767 69.4537 60.0508 72.8975 58.3174C76.3517 56.5787 79.3954 55.4725 81.9155 55.417L81.8935 54.4173C79.138 54.4779 75.9258 55.6735 72.4479 57.4241C68.9595 59.18 65.1355 61.5309 61.1519 63.96C53.1516 68.8382 44.5061 74.0277 36.3587 75.6374L36.5525 76.6185ZM61.8013 40.1355C58.1884 39.2468 56.3252 35.2449 56.409 31.3826C56.4505 29.4724 56.974 27.6864 57.9314 26.4402C58.8726 25.2149 60.2441 24.4906 62.0896 24.6712L62.187 23.676C59.976 23.4595 58.276 24.35 57.1383 25.831C56.0168 27.291 55.454 29.3026 55.4093 31.3609C55.3208 35.4357 57.2858 40.0546 61.5624 41.1065L61.8013 40.1355ZM62.0894 24.6712C64.6521 24.923 66.049 25.9827 66.7329 27.3571C67.4353 28.7686 67.4403 30.6185 66.9744 32.5266C66.5108 34.4253 65.5973 36.3104 64.5601 37.7382C64.0419 38.4517 63.5019 39.0383 62.9846 39.4534C62.4597 39.8745 61.9981 40.0872 61.6326 40.1234L61.7311 41.1185C62.3703 41.0552 63.0133 40.7124 63.6104 40.2334C64.2149 39.7484 64.814 39.0903 65.3692 38.3259C66.479 36.7981 67.45 34.7948 67.9459 32.7638C68.4395 30.7422 68.4789 28.6211 67.6282 26.9116C66.7591 25.1651 65.0153 23.9538 62.1872 23.676L62.0894 24.6712ZM56.6181 90.7145C59.2951 94.9639 60.3382 99.8816 60.065 103.697C59.9282 105.607 59.4646 107.201 58.7505 108.293C58.0458 109.37 57.1187 109.937 55.996 109.908L55.9709 110.908C57.5164 110.947 58.7391 110.137 59.5873 108.84C60.426 107.558 60.9184 105.78 61.0624 103.769C61.3508 99.74 60.2545 94.6106 57.4642 90.1815L56.6181 90.7145ZM55.9959 109.908C55.1416 109.887 54.5216 109.644 54.0676 109.263C53.609 108.877 53.2777 108.314 53.0685 107.584C52.6451 106.104 52.7545 104.052 53.196 101.818C53.6345 99.5996 54.3871 97.2662 55.1907 95.2604C55.9973 93.2469 56.8412 91.5985 57.4497 90.7363L56.6326 90.1597C55.9579 91.1158 55.0799 92.848 54.2624 94.8885C53.4419 96.9366 52.6683 99.3306 52.215 101.624C51.7647 103.902 51.6169 106.146 52.1072 107.859C52.3549 108.724 52.7733 109.481 53.4241 110.028C54.0796 110.579 54.9291 110.882 55.971 110.908L55.9959 109.908ZM79.3008 79.9154C77.402 83.8903 79.7344 88.335 82.9465 90.8455C84.5691 92.1136 86.4838 92.9511 88.3251 93.0069C90.1928 93.0634 91.9594 92.3109 93.1921 90.4617L92.36 89.9071C91.3311 91.4505 89.901 92.0541 88.3554 92.0073C86.7834 91.9597 85.0681 91.2345 83.5623 90.0576C80.5175 87.6779 78.5996 83.7033 80.2032 80.3465L79.3008 79.9154ZM93.1919 90.462C94.7695 88.0986 94.9366 85.9829 94.1343 84.2051C93.3492 82.4652 91.6811 81.1536 89.8026 80.2564C87.9153 79.3549 85.7486 78.8385 83.8627 78.7302C82.9192 78.6761 82.0303 78.7232 81.2721 78.8839C80.5234 79.0427 79.851 79.3233 79.3979 79.778L80.1062 80.4839C80.3649 80.2243 80.8213 80.0018 81.4796 79.8622C82.1284 79.7246 82.9246 79.678 83.8054 79.7286C85.5681 79.8297 87.607 80.3159 89.3716 81.1587C91.1448 82.0057 92.5747 83.1802 93.2228 84.6164C93.8539 86.0147 93.7896 87.7654 92.3602 89.9068L93.1919 90.462ZM39.3221 51.0947C39.0964 45.9526 36.07 41.8292 32.6288 39.6289C30.9079 38.5286 29.0532 37.8895 27.3581 37.8644C25.6522 37.8392 24.0892 38.44 23.0503 39.8332L23.8519 40.431C24.6607 39.3464 25.8885 38.8428 27.3433 38.8643C28.8088 38.886 30.4845 39.4448 32.0901 40.4714C35.3021 42.5251 38.1138 46.3718 38.3231 51.1385L39.3221 51.0947ZM23.0503 39.8332C22.2772 40.8696 21.8841 41.9011 21.8298 42.911C21.7755 43.921 22.0624 44.8669 22.5788 45.728C23.6006 47.4318 25.541 48.8405 27.6836 49.8941C29.8384 50.9537 32.2654 51.6873 34.3419 52.0038C35.3798 52.162 36.3461 52.2185 37.1566 52.1527C37.9469 52.0885 38.6732 51.902 39.1475 51.4967L38.4978 50.7365C38.2686 50.9323 37.8056 51.0967 37.0757 51.156C36.366 51.2136 35.4813 51.1659 34.4926 51.0152C32.5159 50.7139 30.1871 50.0108 28.1249 48.9967C26.0506 47.9767 24.3128 46.675 23.4364 45.2137C23.0037 44.4921 22.7866 43.7418 22.8284 42.9647C22.8702 42.1873 23.1734 41.3408 23.8519 40.431L23.0503 39.8332ZM81.5581 55.0775C83.9351 58.7848 88.9441 59.1494 92.7731 57.7471C94.7073 57.0387 96.4296 55.8552 97.4485 54.3213C98.4821 52.7653 98.7742 50.8682 97.8521 48.8459L96.9422 49.2608C97.7118 50.9487 97.4705 52.4809 96.6155 53.768C95.7459 55.0772 94.2243 56.1507 92.4292 56.8081C88.7993 58.1375 84.4076 57.669 82.3999 54.5378L81.5581 55.0775ZM97.8521 48.846C96.673 46.258 94.9619 44.999 93.0275 44.7417C91.1341 44.4898 89.1396 45.2141 87.3863 46.3361C85.6248 47.4633 84.0436 49.0312 82.9571 50.5762C82.4136 51.3491 81.9848 52.1291 81.7215 52.858C81.4616 53.5779 81.3453 54.2972 81.4923 54.9221L82.4657 54.6931C82.3817 54.336 82.4335 53.8306 82.6621 53.1977C82.8874 52.5738 83.2677 51.873 83.7751 51.1514C84.7905 49.7075 86.2786 48.2322 87.9253 47.1784C89.5801 46.1194 91.3324 45.525 92.8957 45.7329C94.418 45.9355 95.8735 46.915 96.9421 49.2606L97.8521 48.846ZM36.8083 75.5573C32.3202 73.0352 27.2195 73.4285 23.5342 75.189C21.6913 76.0695 20.1695 77.307 19.254 78.7331C18.3326 80.1684 18.0188 81.8129 18.6551 83.4303L19.5857 83.0642C19.0903 81.8051 19.31 80.497 20.0955 79.2734C20.8869 78.0406 22.2457 76.9128 23.9653 76.0913C27.4051 74.4481 32.1576 74.0909 36.3184 76.4291L36.8083 75.5573ZM18.6551 83.4304C19.1278 84.6312 19.7969 85.5072 20.6263 86.0844C21.4559 86.6617 22.4109 86.916 23.4148 86.9312C25.4015 86.9614 27.6226 86.058 29.6488 84.796C31.6864 83.5268 33.5906 81.8554 34.9551 80.2613C35.637 79.4645 36.1948 78.6747 36.5662 77.9526C36.9284 77.2484 37.1528 76.5335 37.0575 75.9168L36.0693 76.0696C36.1151 76.3665 36.0113 76.8452 35.677 77.4952C35.3519 78.1272 34.845 78.8521 34.1954 79.611C32.8967 81.1283 31.0702 82.7325 29.1201 83.9471C27.1586 85.1689 25.1348 85.9573 23.43 85.9314C22.5882 85.9186 21.8358 85.7078 21.1976 85.2636C20.5592 84.8194 20.0002 84.1173 19.5857 83.0641L18.6551 83.4304ZM48.7298 42.4232C48.4876 42.8606 48.4878 42.8607 48.4881 42.8609C48.4882 42.861 48.4885 42.8611 48.4888 42.8613C48.4894 42.8616 48.4902 42.862 48.4911 42.8626C48.4931 42.8636 48.4957 42.8651 48.4991 42.8669C48.5058 42.8706 48.5155 42.8758 48.528 42.8826C48.5531 42.8961 48.5897 42.9155 48.6374 42.9404C48.7329 42.9902 48.8729 43.0617 49.0549 43.1503C49.4187 43.3276 49.9501 43.5737 50.6268 43.8526C51.9797 44.4102 53.9165 45.1 56.2585 45.6319C60.9391 46.6951 67.2658 47.1335 73.784 44.5949L73.4211 43.663C67.1474 46.1065 61.0377 45.692 56.48 44.6568C54.2027 44.1395 52.3198 43.4687 51.0078 42.928C50.3521 42.6578 49.8397 42.4204 49.4929 42.2513C49.3195 42.1669 49.1875 42.0995 49.0998 42.0537C49.0559 42.0308 49.0231 42.0134 49.0016 42.0019C48.9909 41.9961 48.9831 41.9918 48.9781 41.9891C48.9756 41.9878 48.9739 41.9868 48.9728 41.9862C48.9723 41.986 48.972 41.9858 48.9719 41.9857C48.9718 41.9856 48.9718 41.9857 48.9718 41.9856C48.9718 41.9857 48.972 41.9857 48.7298 42.4232ZM73.7859 44.5941C77.657 43.0681 80.1539 41.5468 81.6613 40.1459C83.1614 38.7518 83.7446 37.412 83.597 36.2745C83.4474 35.1223 82.5721 34.3587 81.5714 34.1054C80.5686 33.8515 79.3839 34.088 78.514 34.9652L79.224 35.6694C79.8261 35.0623 80.6396 34.9011 81.3259 35.0748C82.0143 35.2491 82.519 35.7384 82.6053 36.4032C82.6935 37.0826 82.3682 38.1238 80.9805 39.4134C79.6001 40.6964 77.2299 42.1616 73.4192 43.6638L73.7859 44.5941ZM78.869 35.3173C78.5115 34.9677 78.5112 34.968 78.5109 34.9683C78.5107 34.9685 78.5103 34.9689 78.51 34.9693C78.5092 34.97 78.5082 34.971 78.507 34.9723C78.5046 34.9748 78.5012 34.9783 78.4969 34.9828C78.4884 34.9917 78.4762 35.0045 78.4605 35.0211C78.4293 35.0543 78.3842 35.1028 78.327 35.1661C78.2126 35.2928 78.0495 35.4787 77.8507 35.72C77.4531 36.2024 76.9117 36.9073 76.3305 37.8034C75.1694 39.5935 73.8407 42.1599 73.1897 45.2508C72.5376 48.3473 72.5669 51.967 74.1212 55.8437C75.6744 59.7176 78.7367 63.8139 84.0951 67.8901L84.7005 67.0942C79.4531 63.1025 76.5214 59.143 75.0493 55.4715C73.5784 51.8026 73.5512 48.3871 74.1683 45.4569C74.7866 42.521 76.0528 40.0691 77.1694 38.3476C77.727 37.488 78.2452 36.8137 78.6224 36.3559C78.8109 36.1272 78.9641 35.9527 79.0691 35.8365C79.1215 35.7784 79.162 35.7349 79.1887 35.7064C79.2021 35.6922 79.2121 35.6818 79.2185 35.6751C79.2216 35.6718 79.2239 35.6695 79.2253 35.6681C79.2259 35.6674 79.2264 35.6669 79.2266 35.6667C79.2267 35.6666 79.2267 35.6666 79.2267 35.6666C79.2266 35.6667 79.2265 35.6668 78.869 35.3173ZM84.0647 67.865C87.2031 70.6689 89.8478 72.0652 91.9673 72.5313C94.0943 72.999 95.7214 72.5309 96.7178 71.5691C97.7049 70.6163 98.011 69.2278 97.5684 68.0302C97.1183 66.8123 95.9313 65.8764 94.113 65.7388L94.0376 66.7359C95.5277 66.8487 96.3361 67.5805 96.6304 68.3768C96.9322 69.1935 96.7317 70.1658 96.0233 70.8496C95.3241 71.5246 94.0666 71.9691 92.1821 71.5546C90.29 71.1385 87.7961 69.8578 84.7309 67.1193L84.0647 67.865ZM94.0753 66.2373C94.0729 65.7374 94.0726 65.7374 94.0722 65.7374C94.0719 65.7374 94.0714 65.7374 94.0709 65.7374C94.0699 65.7374 94.0686 65.7374 94.067 65.7374C94.0637 65.7374 94.0591 65.7375 94.0532 65.7375C94.0415 65.7377 94.0245 65.738 94.0026 65.7384C93.9588 65.7393 93.8949 65.741 93.8123 65.7441C93.6471 65.7504 93.4069 65.7624 93.1016 65.7854C92.4913 65.8315 91.6202 65.9216 90.5694 66.0981C88.4695 66.4508 85.6412 67.1501 82.7369 68.5389C76.9083 71.3262 70.7914 76.8883 69.6451 87.895L70.6397 87.9986C71.7435 77.3999 77.593 72.1072 83.1683 69.4411C85.966 68.1032 88.6991 67.4262 90.735 67.0843C91.7521 66.9134 92.5926 66.8267 93.1768 66.7826C93.4688 66.7606 93.6966 66.7492 93.8502 66.7434C93.9269 66.7405 93.9851 66.739 94.0234 66.7382C94.0426 66.7378 94.0568 66.7376 94.0659 66.7375C94.0705 66.7374 94.0737 66.7374 94.0757 66.7374C94.0767 66.7373 94.0773 66.7373 94.0777 66.7373C94.0778 66.7373 94.0778 66.7373 94.0779 66.7373C94.0778 66.7373 94.0777 66.7373 94.0753 66.2373ZM69.6456 87.8908C69.1317 92.4516 69.6048 95.457 70.5939 97.2834C71.0923 98.2037 71.7278 98.8345 72.4401 99.1966C73.1532 99.5591 73.9132 99.6365 74.6293 99.4981C76.046 99.2244 77.2931 98.1098 77.7769 96.6711C78.2727 95.1965 77.9575 93.4237 76.3425 91.8768L75.6508 92.599C77.0077 93.8987 77.192 95.2728 76.829 96.3524C76.454 97.4678 75.4841 98.3145 74.4396 98.5163C73.9252 98.6157 73.3935 98.5594 72.8932 98.3051C72.3921 98.0504 71.8925 97.5814 71.4732 96.8072C70.6269 95.2444 70.1346 92.4819 70.6393 88.0028L69.6456 87.8908ZM76.2854 91.8297C72.8685 89.4127 68.6407 85.8825 63.355 84.0012C58.0248 82.104 51.6248 81.8759 43.8239 85.9547L44.2872 86.8409C51.8369 82.8935 57.9471 83.1378 63.0197 84.9433C68.1367 86.7646 72.2042 90.1676 75.7079 92.6461L76.2854 91.8297ZM43.8286 85.9523C40.2048 87.7981 38.1958 89.7748 37.3202 91.6043C36.4355 93.4525 36.7206 95.1403 37.6596 96.2515C38.5845 97.3461 40.1099 97.8295 41.5621 97.3362C43.0254 96.8392 44.3005 95.3973 44.8731 92.8718L43.8978 92.6507C43.3762 94.9516 42.2768 96.0373 41.2405 96.3894C40.193 96.7452 39.0935 96.3991 38.4234 95.6061C37.7673 94.8296 37.4872 93.5715 38.2222 92.036C38.9662 90.4817 40.7617 88.6367 44.2825 86.8433L43.8286 85.9523ZM44.8825 92.815C45.3536 88.4646 46.6184 83.1357 45.5178 77.7947C44.4024 72.3816 40.8857 66.9819 31.9743 62.2963L31.5089 63.1814C40.2091 67.756 43.4947 72.9315 44.5384 77.9965C45.597 83.1336 44.378 88.1858 43.8884 92.7074L44.8825 92.815ZM31.9744 62.2964C28.3751 60.4036 25.7221 59.5941 23.8349 59.4727C21.9537 59.3517 20.7109 59.9185 20.1851 60.9302C19.6725 61.9166 19.9636 63.1046 20.6538 63.9552C21.358 64.823 22.5307 65.4216 23.9296 65.2397L23.8007 64.248C22.7759 64.3813 21.9357 63.9479 21.4303 63.3251C20.911 62.6851 20.7957 61.924 21.0725 61.3914C21.3361 60.8841 22.0785 60.3618 23.7708 60.4707C25.4571 60.5791 27.9658 61.3182 31.5089 63.1814L31.9744 62.2964ZM24.0079 65.223C23.867 65.265 45.5347 63.4372 49.2222 42.5099L48.2374 42.3364C44.6833 62.5064 23.9066 64.2098 23.7224 64.2646L24.0079 65.223ZM127.299 166.777C127.786 166.891 127.786 166.891 127.786 166.891C127.786 166.89 127.786 166.89 127.786 166.889C127.786 166.888 127.787 166.887 127.787 166.885C127.788 166.881 127.79 166.874 127.792 166.866C127.795 166.85 127.801 166.825 127.809 166.792C127.824 166.727 127.847 166.63 127.878 166.503C127.938 166.249 128.028 165.877 128.144 165.404C128.376 164.457 128.713 163.105 129.133 161.487C129.973 158.25 131.144 153.951 132.472 149.695C133.8 145.434 135.279 141.236 136.732 138.193C137.46 136.667 138.168 135.463 138.828 134.687C139.52 133.875 140.009 133.703 140.326 133.786L140.58 132.819C139.643 132.573 138.78 133.201 138.067 134.039C137.321 134.914 136.57 136.212 135.83 137.762C134.345 140.872 132.849 145.125 131.517 149.397C130.183 153.674 129.007 157.991 128.165 161.236C127.743 162.859 127.405 164.215 127.173 165.166C127.056 165.641 126.966 166.015 126.905 166.27C126.875 166.398 126.851 166.496 126.836 166.562C126.828 166.595 126.822 166.62 126.818 166.637C126.816 166.646 126.815 166.652 126.814 166.657C126.813 166.659 126.813 166.66 126.812 166.661C126.812 166.662 126.812 166.662 126.812 166.663C126.812 166.663 126.812 166.663 127.299 166.777ZM140.326 133.786C140.478 133.826 140.591 133.915 140.679 134.105C140.777 134.316 140.837 134.644 140.829 135.11C140.814 136.042 140.533 137.35 140.038 138.939C139.051 142.103 137.263 146.22 135.307 150.318C133.353 154.41 131.242 158.464 129.619 161.496C128.808 163.011 128.118 164.271 127.632 165.151C127.389 165.591 127.197 165.936 127.065 166.172C127 166.289 126.949 166.379 126.915 166.44C126.898 166.47 126.885 166.493 126.876 166.508C126.872 166.516 126.869 166.522 126.867 166.525C126.866 166.527 126.865 166.529 126.864 166.53C126.864 166.53 126.864 166.53 126.864 166.531C126.864 166.531 126.864 166.531 127.299 166.777C127.734 167.023 127.734 167.023 127.734 167.023C127.735 167.022 127.735 167.022 127.735 167.021C127.736 167.02 127.736 167.019 127.738 167.017C127.74 167.013 127.743 167.007 127.748 166.999C127.756 166.984 127.769 166.96 127.787 166.93C127.821 166.869 127.872 166.778 127.938 166.66C128.07 166.423 128.264 166.076 128.508 165.634C128.996 164.751 129.687 163.488 130.501 161.968C132.128 158.929 134.247 154.86 136.209 150.749C138.169 146.642 139.983 142.473 140.992 139.237C141.495 137.626 141.811 136.206 141.829 135.127C141.838 134.589 141.774 134.09 141.586 133.685C141.389 133.26 141.056 132.944 140.58 132.819L140.326 133.786ZM132.912 146.356C133.265 146.001 133.265 146.001 133.265 146.001C133.265 146.001 133.265 146.001 133.265 146.001C133.265 146.001 133.264 146.001 133.264 146C133.263 145.999 133.262 145.998 133.26 145.996C133.256 145.992 133.25 145.986 133.242 145.979C133.227 145.963 133.204 145.94 133.174 145.91C133.114 145.848 133.026 145.758 132.914 145.642C132.691 145.41 132.376 145.075 132.007 144.667C131.269 143.849 130.325 142.742 129.487 141.575C128.643 140.399 127.936 139.201 127.636 138.197C127.487 137.696 127.452 137.284 127.519 136.965C127.581 136.665 127.737 136.422 128.039 136.234L127.512 135.384C126.972 135.719 126.657 136.198 126.54 136.761C126.427 137.304 126.503 137.896 126.678 138.482C127.026 139.651 127.814 140.959 128.675 142.158C129.542 143.367 130.513 144.504 131.265 145.337C131.641 145.754 131.964 146.096 132.193 146.335C132.307 146.454 132.399 146.547 132.461 146.611C132.493 146.643 132.517 146.668 132.534 146.684C132.542 146.693 132.548 146.699 132.553 146.703C132.555 146.706 132.557 146.707 132.558 146.708C132.558 146.709 132.559 146.709 132.559 146.71C132.559 146.71 132.56 146.71 132.56 146.71C132.56 146.71 132.56 146.71 132.912 146.356ZM128.039 136.234C128.398 136.012 128.672 135.999 128.903 136.076C129.16 136.162 129.444 136.385 129.742 136.785C130.339 137.588 130.846 138.902 131.253 140.355C131.657 141.792 131.948 143.306 132.138 144.465C132.233 145.044 132.302 145.532 132.348 145.874C132.371 146.046 132.388 146.181 132.399 146.272C132.405 146.318 132.409 146.353 132.412 146.377C132.413 146.388 132.414 146.397 132.415 146.403C132.415 146.406 132.415 146.408 132.415 146.409C132.415 146.41 132.415 146.41 132.415 146.411C132.415 146.411 132.415 146.411 132.415 146.411C132.415 146.411 132.415 146.411 132.912 146.356C133.409 146.301 133.409 146.3 133.409 146.3C133.409 146.3 133.409 146.3 133.409 146.3C133.409 146.299 133.409 146.299 133.409 146.298C133.409 146.296 133.409 146.293 133.408 146.29C133.407 146.284 133.406 146.274 133.405 146.261C133.402 146.236 133.398 146.199 133.392 146.152C133.38 146.056 133.363 145.918 133.339 145.742C133.293 145.391 133.222 144.893 133.125 144.303C132.931 143.126 132.634 141.572 132.216 140.085C131.803 138.613 131.258 137.147 130.544 136.188C130.186 135.707 129.75 135.304 129.219 135.127C128.662 134.942 128.081 135.032 127.512 135.384L128.039 136.234ZM137.225 147.506C137.261 148.004 137.261 148.004 137.261 148.004C137.262 148.004 137.262 148.004 137.262 148.004C137.263 148.004 137.263 148.004 137.264 148.004C137.266 148.004 137.268 148.004 137.271 148.004C137.277 148.003 137.286 148.002 137.298 148.002C137.322 148 137.356 147.997 137.401 147.993C137.49 147.986 137.62 147.975 137.784 147.959C138.113 147.928 138.581 147.879 139.139 147.809C140.252 147.668 141.73 147.44 143.176 147.09C144.61 146.744 146.061 146.266 147.088 145.608C147.603 145.277 148.047 144.879 148.316 144.394C148.595 143.891 148.668 143.322 148.478 142.716L147.524 143.015C147.631 143.355 147.59 143.641 147.442 143.909C147.283 144.195 146.988 144.484 146.548 144.766C145.666 145.332 144.349 145.778 142.941 146.118C141.544 146.456 140.106 146.678 139.013 146.817C138.468 146.886 138.01 146.933 137.69 146.964C137.53 146.979 137.404 146.99 137.318 146.997C137.276 147 137.243 147.003 137.221 147.004C137.211 147.005 137.202 147.006 137.197 147.006C137.195 147.007 137.193 147.007 137.191 147.007C137.191 147.007 137.19 147.007 137.19 147.007C137.19 147.007 137.19 147.007 137.19 147.007C137.19 147.007 137.19 147.007 137.225 147.506ZM148.478 142.716C148.278 142.077 147.896 141.63 147.353 141.407C146.836 141.194 146.242 141.215 145.657 141.346C144.491 141.607 143.12 142.362 141.847 143.208C140.56 144.062 139.32 145.045 138.405 145.812C137.946 146.196 137.567 146.526 137.303 146.762C137.17 146.88 137.066 146.973 136.995 147.038C136.96 147.07 136.933 147.095 136.914 147.113C136.905 147.121 136.898 147.128 136.893 147.132C136.89 147.134 136.889 147.136 136.887 147.137C136.887 147.138 136.886 147.138 136.886 147.139C136.886 147.139 136.885 147.139 136.885 147.139C136.885 147.139 136.885 147.139 137.225 147.506C137.566 147.872 137.566 147.872 137.566 147.872C137.566 147.872 137.566 147.872 137.566 147.872C137.566 147.871 137.567 147.871 137.567 147.871C137.568 147.87 137.57 147.868 137.572 147.866C137.576 147.862 137.583 147.856 137.591 147.848C137.609 147.832 137.635 147.808 137.669 147.777C137.737 147.715 137.838 147.624 137.967 147.509C138.226 147.279 138.597 146.955 139.046 146.578C139.947 145.824 141.156 144.867 142.4 144.041C143.657 143.206 144.899 142.54 145.876 142.322C146.362 142.213 146.723 142.229 146.973 142.332C147.198 142.424 147.398 142.613 147.524 143.015L148.478 142.716ZM120.926 186.646C120.526 186.945 120.526 186.945 120.526 186.945C120.526 186.946 120.526 186.946 120.526 186.946C120.527 186.946 120.527 186.946 120.527 186.947C120.528 186.948 120.529 186.949 120.531 186.951C120.534 186.956 120.539 186.962 120.545 186.971C120.558 186.988 120.578 187.015 120.603 187.049C120.654 187.118 120.728 187.221 120.821 187.352C121.008 187.614 121.272 187.99 121.577 188.447C122.189 189.363 122.963 190.595 123.623 191.871C124.289 193.157 124.815 194.445 124.966 195.481C125.041 195.998 125.016 196.411 124.904 196.717C124.799 197.005 124.61 197.223 124.284 197.365L124.683 198.282C125.265 198.028 125.646 197.6 125.843 197.06C126.034 196.539 126.043 195.943 125.955 195.338C125.78 194.13 125.19 192.722 124.512 191.412C123.828 190.091 123.032 188.825 122.409 187.892C122.097 187.425 121.827 187.04 121.635 186.771C121.539 186.636 121.463 186.531 121.41 186.458C121.383 186.422 121.363 186.394 121.349 186.376C121.342 186.366 121.336 186.359 121.333 186.354C121.331 186.351 121.329 186.349 121.328 186.348C121.328 186.347 121.327 186.347 121.327 186.347C121.327 186.346 121.327 186.346 121.327 186.346C121.327 186.346 121.327 186.346 120.926 186.646ZM124.284 197.365C123.897 197.534 123.624 197.506 123.407 197.397C123.165 197.276 122.916 197.014 122.68 196.575C122.205 195.695 121.894 194.321 121.7 192.825C121.509 191.344 121.44 189.803 121.42 188.629C121.409 188.042 121.411 187.549 121.415 187.204C121.417 187.031 121.42 186.895 121.422 186.802C121.423 186.756 121.424 186.721 121.425 186.697C121.425 186.686 121.426 186.677 121.426 186.671C121.426 186.668 121.426 186.666 121.426 186.665C121.426 186.664 121.426 186.663 121.426 186.663C121.426 186.663 121.426 186.663 121.426 186.663C121.426 186.663 121.426 186.663 120.926 186.646C120.427 186.629 120.427 186.629 120.427 186.629C120.427 186.629 120.427 186.629 120.427 186.629C120.427 186.63 120.427 186.631 120.427 186.631C120.427 186.633 120.426 186.636 120.426 186.639C120.426 186.646 120.426 186.655 120.425 186.668C120.425 186.693 120.424 186.73 120.423 186.778C120.42 186.874 120.417 187.014 120.415 187.191C120.411 187.545 120.409 188.048 120.42 188.646C120.441 189.84 120.511 191.421 120.709 192.953C120.905 194.469 121.233 195.998 121.8 197.05C122.084 197.578 122.458 198.039 122.957 198.291C123.482 198.554 124.07 198.549 124.683 198.282L124.284 197.365ZM116.824 184.885C116.861 184.386 116.861 184.386 116.86 184.386C116.86 184.386 116.86 184.386 116.86 184.386C116.859 184.386 116.859 184.386 116.858 184.386C116.856 184.386 116.854 184.386 116.851 184.385C116.845 184.385 116.836 184.384 116.824 184.383C116.8 184.382 116.766 184.38 116.721 184.377C116.632 184.371 116.501 184.363 116.336 184.355C116.006 184.339 115.536 184.319 114.974 184.309C113.853 184.287 112.357 184.3 110.875 184.437C109.406 184.573 107.901 184.836 106.79 185.339C106.232 185.592 105.735 185.922 105.399 186.364C105.051 186.821 104.896 187.373 104.997 188L105.984 187.842C105.928 187.49 106.009 187.213 106.195 186.969C106.393 186.709 106.727 186.466 107.202 186.25C108.157 185.818 109.525 185.566 110.968 185.433C112.398 185.3 113.854 185.287 114.955 185.308C115.505 185.319 115.965 185.338 116.286 185.354C116.447 185.362 116.573 185.369 116.659 185.375C116.701 185.377 116.734 185.38 116.756 185.381C116.767 185.382 116.775 185.382 116.78 185.383C116.783 185.383 116.785 185.383 116.786 185.383C116.786 185.383 116.787 185.383 116.787 185.383C116.787 185.383 116.787 185.383 116.787 185.383C116.787 185.383 116.787 185.383 116.824 184.885ZM104.997 188C105.102 188.66 105.415 189.158 105.92 189.457C106.401 189.742 106.991 189.807 107.589 189.762C108.781 189.672 110.246 189.123 111.628 188.47C113.025 187.81 114.395 187.016 115.412 186.39C115.921 186.077 116.344 185.804 116.64 185.609C116.788 185.512 116.904 185.434 116.984 185.381C117.024 185.354 117.054 185.333 117.075 185.319C117.086 185.311 117.094 185.306 117.099 185.302C117.102 185.3 117.104 185.299 117.105 185.298C117.106 185.297 117.107 185.297 117.107 185.297C117.107 185.297 117.108 185.297 117.108 185.296C117.108 185.296 117.108 185.296 116.824 184.885C116.54 184.473 116.54 184.473 116.54 184.473C116.54 184.473 116.54 184.473 116.54 184.473C116.54 184.473 116.539 184.474 116.539 184.474C116.538 184.475 116.536 184.476 116.533 184.478C116.529 184.481 116.521 184.486 116.512 184.493C116.492 184.506 116.463 184.526 116.425 184.552C116.348 184.603 116.235 184.679 116.09 184.774C115.801 184.964 115.387 185.231 114.888 185.539C113.887 186.155 112.552 186.928 111.201 187.565C109.837 188.21 108.511 188.689 107.514 188.765C107.017 188.802 106.662 188.734 106.43 188.597C106.221 188.473 106.051 188.258 105.984 187.842L104.997 188ZM142.599 181.475C142.715 181.961 142.715 181.961 142.715 181.961C142.715 181.961 142.715 181.961 142.715 181.961C142.716 181.961 142.716 181.961 142.717 181.961C142.718 181.961 142.72 181.96 142.722 181.96C142.727 181.958 142.735 181.957 142.746 181.954C142.767 181.949 142.799 181.942 142.841 181.932C142.924 181.913 143.048 181.886 143.205 181.852C143.52 181.785 143.97 181.693 144.511 181.595C145.595 181.399 147.034 181.18 148.468 181.082C149.914 180.984 151.305 181.014 152.319 181.289C152.824 181.426 153.194 181.613 153.432 181.839C153.656 182.05 153.782 182.311 153.783 182.667L154.783 182.662C154.78 182.027 154.537 181.507 154.119 181.112C153.716 180.731 153.172 180.484 152.581 180.324C151.402 180.004 149.874 179.985 148.4 180.085C146.916 180.185 145.437 180.412 144.333 180.611C143.78 180.712 143.32 180.805 142.996 180.874C142.835 180.909 142.707 180.937 142.62 180.957C142.576 180.967 142.543 180.975 142.52 180.98C142.508 180.983 142.499 180.985 142.493 180.986C142.49 180.987 142.488 180.987 142.486 180.988C142.486 180.988 142.485 180.988 142.485 180.988C142.484 180.988 142.484 180.988 142.484 180.988C142.484 180.988 142.484 180.988 142.599 181.475ZM153.783 182.664C153.783 183.085 153.648 183.324 153.46 183.481C153.251 183.654 152.91 183.778 152.413 183.82C151.414 183.905 150.028 183.643 148.578 183.225C147.142 182.81 145.701 182.26 144.615 181.812C144.073 181.588 143.621 181.39 143.306 181.249C143.148 181.178 143.024 181.121 142.941 181.082C142.899 181.063 142.867 181.048 142.845 181.038C142.835 181.033 142.827 181.029 142.821 181.027C142.819 181.026 142.817 181.025 142.816 181.024C142.815 181.024 142.815 181.024 142.814 181.023C142.814 181.023 142.814 181.023 142.814 181.023C142.814 181.023 142.814 181.023 142.599 181.475C142.385 181.926 142.385 181.926 142.385 181.927C142.385 181.927 142.385 181.927 142.386 181.927C142.386 181.927 142.387 181.927 142.387 181.928C142.389 181.928 142.391 181.93 142.394 181.931C142.4 181.934 142.409 181.938 142.42 181.943C142.443 181.954 142.477 181.97 142.521 181.99C142.608 182.03 142.735 182.089 142.897 182.161C143.22 182.306 143.68 182.508 144.233 182.736C145.337 183.192 146.816 183.757 148.3 184.185C149.77 184.609 151.305 184.918 152.497 184.816C153.095 184.766 153.668 184.607 154.099 184.25C154.551 183.875 154.782 183.334 154.783 182.665L153.783 182.664ZM139.026 184.524C138.572 184.315 138.572 184.315 138.572 184.315C138.572 184.315 138.572 184.315 138.572 184.316C138.571 184.316 138.571 184.317 138.571 184.317C138.57 184.319 138.569 184.321 138.568 184.324C138.565 184.33 138.561 184.338 138.557 184.349C138.547 184.37 138.533 184.401 138.514 184.442C138.478 184.524 138.425 184.643 138.36 184.795C138.229 185.099 138.046 185.532 137.84 186.055C137.427 187.098 136.916 188.503 136.526 189.938C136.139 191.362 135.859 192.862 135.942 194.079C135.984 194.689 136.119 195.27 136.415 195.739C136.722 196.225 137.186 196.562 137.808 196.686L138.004 195.706C137.655 195.636 137.424 195.463 137.261 195.205C137.087 194.929 136.976 194.532 136.94 194.011C136.869 192.966 137.112 191.597 137.491 190.2C137.867 188.814 138.365 187.447 138.77 186.422C138.972 185.911 139.15 185.487 139.278 185.192C139.341 185.044 139.393 184.928 139.427 184.85C139.445 184.811 139.458 184.781 139.467 184.761C139.472 184.751 139.475 184.744 139.477 184.739C139.479 184.737 139.479 184.735 139.48 184.734C139.48 184.733 139.48 184.733 139.48 184.733C139.48 184.733 139.481 184.732 139.481 184.732C139.481 184.732 139.481 184.732 139.026 184.524ZM137.807 196.686C138.463 196.818 139.04 196.7 139.497 196.332C139.933 195.981 140.201 195.451 140.368 194.876C140.701 193.728 140.698 192.164 140.57 190.642C140.44 189.103 140.175 187.543 139.944 186.372C139.828 185.785 139.72 185.294 139.641 184.949C139.602 184.776 139.569 184.64 139.547 184.547C139.535 184.5 139.527 184.464 139.521 184.44C139.518 184.427 139.515 184.418 139.514 184.412C139.513 184.408 139.512 184.406 139.512 184.404C139.512 184.403 139.511 184.403 139.511 184.402C139.511 184.402 139.511 184.402 139.511 184.402C139.511 184.401 139.511 184.401 139.026 184.524C138.541 184.646 138.541 184.646 138.541 184.646C138.541 184.646 138.541 184.646 138.541 184.646C138.542 184.646 138.542 184.647 138.542 184.648C138.542 184.649 138.543 184.651 138.543 184.654C138.545 184.659 138.547 184.668 138.55 184.679C138.555 184.702 138.564 184.737 138.575 184.782C138.596 184.871 138.628 185.004 138.666 185.172C138.743 185.509 138.849 185.991 138.963 186.566C139.19 187.718 139.448 189.238 139.574 190.726C139.7 192.229 139.686 193.637 139.407 194.597C139.268 195.075 139.081 195.383 138.87 195.553C138.681 195.705 138.419 195.789 138.005 195.706L137.807 196.686ZM106.15 172.224C105.661 172.119 105.661 172.119 105.661 172.119C105.661 172.119 105.661 172.12 105.661 172.12C105.661 172.12 105.661 172.12 105.661 172.121C105.66 172.122 105.66 172.124 105.659 172.127C105.658 172.132 105.657 172.14 105.654 172.15C105.65 172.172 105.642 172.204 105.633 172.245C105.614 172.329 105.586 172.452 105.548 172.608C105.474 172.921 105.362 173.368 105.218 173.898C104.929 174.96 104.508 176.353 103.978 177.688C103.445 179.034 102.819 180.276 102.136 181.07C101.795 181.466 101.467 181.718 101.162 181.835C100.876 181.944 100.588 181.945 100.266 181.792L99.8365 182.695C100.41 182.967 100.983 182.974 101.52 182.769C102.038 182.57 102.495 182.186 102.894 181.722C103.689 180.798 104.364 179.428 104.908 178.057C105.456 176.674 105.888 175.243 106.183 174.161C106.33 173.619 106.444 173.162 106.521 172.841C106.559 172.68 106.589 172.553 106.608 172.466C106.618 172.422 106.626 172.389 106.631 172.366C106.633 172.354 106.635 172.345 106.637 172.339C106.637 172.336 106.638 172.334 106.638 172.332C106.638 172.331 106.638 172.331 106.638 172.33C106.639 172.33 106.639 172.33 106.639 172.33C106.639 172.33 106.639 172.329 106.15 172.224ZM100.266 181.792C99.8844 181.61 99.7256 181.386 99.6654 181.151C99.5984 180.889 99.6327 180.53 99.8083 180.064C100.161 179.128 100.993 177.991 101.995 176.863C102.987 175.747 104.104 174.684 104.977 173.898C105.413 173.505 105.786 173.183 106.049 172.959C106.181 172.848 106.286 172.76 106.357 172.701C106.393 172.672 106.42 172.65 106.438 172.635C106.447 172.627 106.454 172.622 106.458 172.618C106.461 172.616 106.462 172.615 106.463 172.614C106.464 172.613 106.464 172.613 106.465 172.613C106.465 172.613 106.465 172.613 106.465 172.613C106.465 172.613 106.465 172.613 106.15 172.224C105.835 171.836 105.835 171.836 105.835 171.836C105.835 171.836 105.834 171.837 105.834 171.837C105.834 171.837 105.833 171.837 105.833 171.838C105.831 171.839 105.829 171.841 105.827 171.843C105.822 171.847 105.814 171.853 105.804 171.861C105.785 171.877 105.756 171.901 105.719 171.931C105.645 171.993 105.538 172.082 105.403 172.197C105.133 172.426 104.752 172.755 104.308 173.155C103.421 173.954 102.274 175.045 101.248 176.199C100.233 177.342 99.2937 178.593 98.8725 179.711C98.6612 180.272 98.558 180.857 98.6966 181.399C98.842 181.967 99.2321 182.408 99.8366 182.695L100.266 181.792ZM105.141 167.762C105.561 167.491 105.561 167.491 105.561 167.491C105.561 167.49 105.561 167.49 105.561 167.49C105.561 167.49 105.56 167.489 105.56 167.488C105.559 167.487 105.558 167.485 105.556 167.482C105.552 167.477 105.548 167.47 105.541 167.46C105.528 167.44 105.509 167.411 105.485 167.374C105.435 167.299 105.363 167.191 105.27 167.054C105.085 166.78 104.817 166.393 104.488 165.938C103.83 165.03 102.92 163.843 101.919 162.743C100.926 161.652 99.8107 160.609 98.7395 160.024C98.2024 159.731 97.6394 159.533 97.0846 159.53C96.5095 159.528 95.9754 159.736 95.5351 160.194L96.2557 160.887C96.5028 160.63 96.7732 160.529 97.0797 160.53C97.4064 160.532 97.802 160.652 98.2606 160.902C99.1807 161.404 100.205 162.345 101.179 163.416C102.146 164.479 103.032 165.633 103.678 166.525C104.001 166.97 104.262 167.348 104.443 167.615C104.533 167.748 104.603 167.853 104.65 167.925C104.674 167.96 104.692 167.988 104.703 168.006C104.709 168.015 104.714 168.022 104.717 168.026C104.718 168.029 104.719 168.03 104.72 168.031C104.72 168.032 104.72 168.032 104.721 168.032C104.721 168.033 104.721 168.033 104.721 168.033C104.721 168.033 104.721 168.033 105.141 167.762ZM95.5351 160.194C95.0712 160.676 94.862 161.226 94.927 161.809C94.989 162.365 95.2922 162.875 95.6881 163.326C96.4773 164.223 97.7977 165.062 99.1511 165.773C100.519 166.491 101.977 167.107 103.089 167.541C103.646 167.759 104.118 167.932 104.452 168.051C104.618 168.111 104.751 168.157 104.841 168.188C104.887 168.204 104.922 168.216 104.946 168.224C104.958 168.228 104.967 168.231 104.973 168.233C104.976 168.234 104.979 168.235 104.981 168.235C104.981 168.236 104.982 168.236 104.983 168.236C104.983 168.236 104.983 168.236 104.983 168.236C104.983 168.236 104.983 168.236 105.141 167.762C105.299 167.287 105.299 167.287 105.299 167.287C105.299 167.287 105.298 167.287 105.298 167.287C105.298 167.287 105.298 167.287 105.297 167.287C105.296 167.286 105.294 167.286 105.291 167.285C105.285 167.283 105.277 167.28 105.266 167.276C105.243 167.269 105.21 167.257 105.166 167.242C105.079 167.212 104.95 167.168 104.788 167.109C104.462 166.993 103.999 166.824 103.453 166.61C102.359 166.182 100.938 165.582 99.616 164.888C98.2798 164.186 97.0997 163.417 96.439 162.665C96.11 162.291 95.9509 161.967 95.9209 161.698C95.8939 161.457 95.9632 161.191 96.2557 160.887L95.5351 160.194ZM147.614 160.548C148.075 160.743 148.075 160.743 148.075 160.743C148.075 160.743 148.075 160.743 148.075 160.742C148.075 160.742 148.075 160.742 148.076 160.741C148.076 160.74 148.077 160.738 148.078 160.736C148.08 160.731 148.083 160.723 148.087 160.713C148.096 160.693 148.109 160.663 148.126 160.624C148.16 160.546 148.211 160.43 148.277 160.283C148.409 159.99 148.601 159.572 148.842 159.078C149.325 158.089 149.999 156.799 150.768 155.587C151.544 154.364 152.391 153.261 153.211 152.608C153.619 152.283 153.988 152.096 154.31 152.038C154.611 151.984 154.895 152.037 155.182 152.247L155.772 151.44C155.26 151.065 154.698 150.952 154.132 151.054C153.586 151.153 153.066 151.445 152.588 151.826C151.633 152.586 150.714 153.805 149.924 155.051C149.127 156.307 148.435 157.632 147.944 158.64C147.697 159.145 147.501 159.572 147.365 159.873C147.297 160.024 147.245 160.143 147.209 160.225C147.191 160.266 147.177 160.298 147.168 160.32C147.164 160.33 147.16 160.339 147.158 160.344C147.156 160.347 147.155 160.349 147.155 160.351C147.154 160.352 147.154 160.352 147.154 160.353C147.154 160.353 147.154 160.353 147.154 160.353C147.154 160.353 147.154 160.354 147.614 160.548ZM155.182 152.247C155.522 152.497 155.637 152.746 155.652 152.989C155.669 153.26 155.568 153.606 155.308 154.032C154.787 154.885 153.757 155.846 152.562 156.767C151.379 157.678 150.083 158.514 149.079 159.123C148.578 159.428 148.151 159.674 147.85 159.845C147.7 159.93 147.581 159.996 147.5 160.041C147.46 160.063 147.429 160.08 147.408 160.091C147.397 160.097 147.39 160.101 147.385 160.104C147.382 160.105 147.38 160.106 147.379 160.107C147.378 160.107 147.378 160.108 147.378 160.108C147.378 160.108 147.378 160.108 147.377 160.108C147.377 160.108 147.377 160.108 147.614 160.548C147.851 160.988 147.851 160.988 147.851 160.988C147.852 160.988 147.852 160.988 147.852 160.988C147.852 160.988 147.853 160.987 147.854 160.987C147.855 160.986 147.858 160.985 147.86 160.983C147.866 160.98 147.875 160.976 147.886 160.97C147.908 160.958 147.941 160.94 147.983 160.917C148.067 160.87 148.189 160.802 148.343 160.715C148.651 160.54 149.087 160.289 149.598 159.978C150.618 159.359 151.949 158.502 153.172 157.559C154.383 156.627 155.539 155.573 156.162 154.553C156.474 154.041 156.685 153.486 156.65 152.927C156.613 152.341 156.312 151.836 155.772 151.44L155.182 152.247ZM148.157 164.979C147.708 165.198 147.708 165.198 147.708 165.199C147.708 165.199 147.708 165.199 147.708 165.199C147.709 165.199 147.709 165.2 147.709 165.201C147.71 165.202 147.711 165.204 147.712 165.207C147.715 165.213 147.719 165.221 147.724 165.231C147.735 165.252 147.75 165.283 147.77 165.323C147.811 165.403 147.87 165.52 147.946 165.666C148.098 165.96 148.318 166.375 148.592 166.866C149.138 167.845 149.903 169.13 150.768 170.34C151.626 171.541 152.611 172.708 153.605 173.414C154.104 173.768 154.639 174.031 155.19 174.099C155.76 174.17 156.315 174.026 156.805 173.623L156.171 172.85C155.896 173.076 155.616 173.144 155.312 173.107C154.989 173.067 154.61 172.901 154.184 172.598C153.33 171.992 152.423 170.937 151.581 169.759C150.746 168.59 150.002 167.34 149.465 166.378C149.197 165.898 148.982 165.492 148.834 165.206C148.76 165.064 148.702 164.951 148.664 164.874C148.645 164.836 148.63 164.807 148.62 164.787C148.616 164.778 148.612 164.77 148.61 164.765C148.608 164.763 148.608 164.761 148.607 164.76C148.607 164.76 148.607 164.759 148.606 164.759C148.606 164.759 148.606 164.759 148.606 164.759C148.606 164.759 148.606 164.759 148.157 164.979ZM156.805 173.623C157.323 173.199 157.596 172.678 157.601 172.091C157.605 171.531 157.365 170.988 157.025 170.495C156.347 169.51 155.134 168.522 153.873 167.657C152.6 166.783 151.223 166.001 150.17 165.438C149.642 165.157 149.193 164.929 148.876 164.772C148.717 164.693 148.591 164.632 148.505 164.59C148.461 164.569 148.428 164.553 148.405 164.543C148.394 164.537 148.385 164.533 148.379 164.53C148.376 164.529 148.374 164.528 148.372 164.527C148.371 164.527 148.371 164.526 148.37 164.526C148.37 164.526 148.37 164.526 148.37 164.526C148.37 164.526 148.369 164.526 148.157 164.979C147.945 165.431 147.945 165.431 147.945 165.431C147.945 165.431 147.945 165.431 147.945 165.431C147.946 165.432 147.946 165.432 147.947 165.432C147.948 165.433 147.95 165.433 147.952 165.435C147.958 165.437 147.966 165.441 147.976 165.446C147.998 165.456 148.029 165.471 148.071 165.491C148.154 165.531 148.277 165.591 148.432 165.668C148.742 165.821 149.181 166.044 149.699 166.321C150.736 166.874 152.076 167.637 153.308 168.482C154.552 169.335 155.634 170.238 156.201 171.062C156.484 171.472 156.603 171.812 156.601 172.083C156.599 172.326 156.499 172.582 156.171 172.85L156.805 173.623ZM110.861 150.276C110.79 149.781 110.79 149.781 110.79 149.781C110.79 149.781 110.79 149.781 110.79 149.781C110.79 149.781 110.789 149.781 110.789 149.781C110.787 149.782 110.785 149.782 110.783 149.782C110.778 149.783 110.769 149.784 110.759 149.786C110.737 149.788 110.705 149.793 110.662 149.799C110.577 149.81 110.452 149.826 110.293 149.845C109.973 149.883 109.516 149.933 108.969 149.981C107.872 150.078 106.419 150.165 104.982 150.131C103.534 150.097 102.149 149.939 101.163 149.573C100.672 149.39 100.319 149.17 100.101 148.923C99.8953 148.691 99.7926 148.419 99.8218 148.064L98.8252 147.982C98.7731 148.615 98.9701 149.154 99.3514 149.585C99.7196 150.002 100.24 150.297 100.815 150.51C101.962 150.936 103.482 151.096 104.958 151.131C106.446 151.166 107.939 151.076 109.056 150.978C109.616 150.928 110.083 150.877 110.411 150.838C110.575 150.818 110.705 150.802 110.793 150.79C110.838 150.784 110.872 150.779 110.895 150.776C110.907 150.775 110.916 150.773 110.922 150.772C110.925 150.772 110.927 150.772 110.929 150.771C110.93 150.771 110.93 150.771 110.931 150.771C110.931 150.771 110.931 150.771 110.931 150.771C110.932 150.771 110.932 150.771 110.861 150.276ZM99.8222 148.059C99.8526 147.639 100.003 147.416 100.196 147.281C100.413 147.129 100.758 147.037 101.256 147.04C102.255 147.047 103.615 147.434 105.029 147.985C106.428 148.529 107.823 149.209 108.871 149.756C109.395 150.029 109.83 150.267 110.134 150.437C110.286 150.522 110.405 150.59 110.486 150.637C110.526 150.66 110.557 150.678 110.577 150.689C110.588 150.695 110.595 150.7 110.6 150.703C110.603 150.704 110.605 150.705 110.606 150.706C110.606 150.707 110.607 150.707 110.607 150.707C110.607 150.707 110.607 150.707 110.607 150.707C110.607 150.707 110.607 150.707 110.861 150.276C111.114 149.845 111.114 149.845 111.114 149.845C111.114 149.845 111.114 149.845 111.114 149.845C111.113 149.844 111.113 149.844 111.112 149.844C111.11 149.843 111.108 149.841 111.105 149.84C111.1 149.836 111.091 149.832 111.08 149.825C111.058 149.812 111.026 149.794 110.984 149.77C110.9 149.721 110.778 149.652 110.622 149.565C110.311 149.391 109.867 149.147 109.334 148.869C108.268 148.314 106.838 147.615 105.392 147.053C103.96 146.496 102.456 146.048 101.262 146.04C100.664 146.036 100.08 146.142 99.623 146.461C99.1422 146.798 98.873 147.32 98.8248 147.987L99.8222 148.059ZM114.349 147.315C114.772 147.581 114.772 147.581 114.772 147.581C114.773 147.581 114.773 147.581 114.773 147.58C114.773 147.58 114.773 147.579 114.774 147.579C114.775 147.577 114.776 147.575 114.778 147.573C114.781 147.567 114.786 147.56 114.792 147.55C114.804 147.53 114.822 147.5 114.846 147.462C114.893 147.386 114.96 147.275 115.045 147.133C115.214 146.849 115.451 146.443 115.724 145.952C116.268 144.971 116.957 143.644 117.529 142.272C118.097 140.91 118.569 139.458 118.645 138.24C118.683 137.63 118.624 137.036 118.392 136.532C118.151 136.01 117.736 135.614 117.135 135.409L116.812 136.355C117.149 136.47 117.355 136.672 117.484 136.951C117.621 137.248 117.679 137.657 117.647 138.178C117.582 139.224 117.164 140.551 116.606 141.887C116.054 143.212 115.384 144.504 114.849 145.466C114.583 145.947 114.351 146.344 114.186 146.62C114.104 146.759 114.038 146.867 113.993 146.94C113.971 146.976 113.954 147.004 113.942 147.022C113.937 147.032 113.932 147.038 113.929 147.043C113.928 147.045 113.927 147.047 113.926 147.048C113.926 147.048 113.926 147.049 113.926 147.049C113.926 147.049 113.926 147.049 113.925 147.049C113.925 147.049 113.926 147.049 114.349 147.315ZM117.135 135.409C116.501 135.193 115.915 135.237 115.414 135.543C114.936 135.835 114.602 136.325 114.362 136.875C113.884 137.97 113.683 139.521 113.612 141.048C113.541 142.591 113.602 144.172 113.679 145.363C113.718 145.96 113.761 146.461 113.794 146.814C113.811 146.99 113.826 147.129 113.836 147.225C113.841 147.272 113.845 147.309 113.848 147.334C113.849 147.347 113.85 147.356 113.851 147.363C113.851 147.366 113.852 147.369 113.852 147.371C113.852 147.371 113.852 147.372 113.852 147.373C113.852 147.373 113.852 147.373 113.852 147.373C113.852 147.373 113.852 147.374 114.349 147.315C114.846 147.257 114.846 147.257 114.846 147.257C114.846 147.257 114.845 147.257 114.845 147.257C114.845 147.256 114.845 147.256 114.845 147.255C114.845 147.254 114.845 147.252 114.845 147.249C114.844 147.243 114.843 147.234 114.842 147.223C114.839 147.199 114.835 147.164 114.83 147.118C114.82 147.026 114.806 146.891 114.79 146.719C114.757 146.375 114.715 145.884 114.677 145.299C114.601 144.126 114.543 142.586 114.611 141.094C114.681 139.587 114.878 138.192 115.279 137.275C115.478 136.819 115.704 136.537 115.935 136.396C116.143 136.269 116.413 136.219 116.813 136.355L117.135 135.409ZM127.189 166.885C126.707 166.75 126.707 166.75 126.707 166.75C126.707 166.75 126.707 166.751 126.707 166.751C126.707 166.752 126.706 166.754 126.706 166.756C126.704 166.76 126.703 166.766 126.7 166.774C126.696 166.791 126.689 166.815 126.68 166.847C126.661 166.912 126.634 167.008 126.598 167.134C126.527 167.384 126.421 167.752 126.284 168.22C126.011 169.156 125.615 170.492 125.124 172.09C124.143 175.286 122.783 179.53 121.27 183.724C119.755 187.923 118.093 192.052 116.508 195.029C115.713 196.521 114.954 197.694 114.26 198.439C113.533 199.221 113.037 199.371 112.724 199.274L112.428 200.229C113.353 200.516 114.243 199.926 114.992 199.12C115.775 198.279 116.583 197.015 117.39 195.499C119.01 192.457 120.691 188.273 122.21 184.064C123.731 179.849 125.096 175.589 126.08 172.383C126.572 170.78 126.97 169.44 127.244 168.5C127.381 168.031 127.488 167.661 127.56 167.409C127.596 167.282 127.623 167.185 127.642 167.12C127.651 167.087 127.658 167.062 127.663 167.046C127.665 167.037 127.667 167.031 127.668 167.027C127.669 167.025 127.669 167.023 127.67 167.022C127.67 167.021 127.67 167.021 127.67 167.021C127.67 167.02 127.67 167.02 127.189 166.885ZM112.724 199.274C112.574 199.227 112.466 199.133 112.386 198.939C112.298 198.724 112.252 198.395 112.28 197.929C112.337 196.998 112.674 195.703 113.239 194.138C114.364 191.02 116.332 186.985 118.466 182.977C120.597 178.974 122.884 175.017 124.639 172.06C125.516 170.581 126.26 169.353 126.784 168.495C127.046 168.066 127.254 167.729 127.395 167.5C127.466 167.386 127.521 167.298 127.557 167.239C127.576 167.209 127.59 167.187 127.599 167.172C127.604 167.165 127.607 167.159 127.609 167.155C127.611 167.154 127.611 167.152 127.612 167.151C127.612 167.151 127.612 167.15 127.613 167.15C127.613 167.15 127.613 167.15 127.189 166.885C126.765 166.62 126.765 166.62 126.764 166.621C126.764 166.621 126.764 166.621 126.764 166.622C126.763 166.623 126.762 166.624 126.761 166.626C126.758 166.63 126.755 166.636 126.75 166.643C126.741 166.659 126.727 166.681 126.708 166.711C126.671 166.771 126.616 166.859 126.545 166.974C126.402 167.205 126.194 167.543 125.931 167.974C125.405 168.835 124.659 170.067 123.779 171.549C122.02 174.514 119.724 178.486 117.583 182.507C115.445 186.524 113.449 190.61 112.299 193.798C111.726 195.386 111.348 196.791 111.282 197.868C111.25 198.405 111.292 198.906 111.461 199.319C111.639 199.753 111.958 200.083 112.428 200.229L112.724 199.274ZM127.33 166.774C127.184 166.296 127.184 166.296 127.184 166.296C127.184 166.296 127.183 166.296 127.183 166.296C127.182 166.297 127.18 166.297 127.178 166.298C127.174 166.299 127.168 166.301 127.16 166.303C127.144 166.308 127.119 166.315 127.087 166.325C127.023 166.345 126.927 166.373 126.802 166.411C126.552 166.486 126.185 166.595 125.717 166.732C124.781 167.006 123.442 167.392 121.83 167.84C118.607 168.736 114.297 169.878 109.947 170.864C105.593 171.851 101.218 172.676 97.8582 172.945C96.1733 173.08 94.7777 173.072 93.7775 172.89C92.7289 172.699 92.3393 172.362 92.2542 172.048L91.2889 172.309C91.542 173.245 92.5172 173.677 93.5981 173.874C94.7274 174.08 96.226 174.079 97.9381 173.942C101.372 173.667 105.803 172.829 110.168 171.839C114.539 170.849 118.866 169.702 122.098 168.804C123.714 168.354 125.058 167.967 125.998 167.691C126.468 167.554 126.837 167.444 127.089 167.369C127.214 167.331 127.311 167.302 127.376 167.283C127.409 167.273 127.433 167.265 127.45 167.26C127.458 167.258 127.465 167.256 127.469 167.255C127.471 167.254 127.473 167.253 127.474 167.253C127.474 167.253 127.475 167.253 127.475 167.253C127.475 167.253 127.475 167.253 127.33 166.774ZM92.2542 172.048C92.2135 171.897 92.2347 171.755 92.3565 171.582C92.4912 171.391 92.7456 171.175 93.1543 170.947C93.9699 170.494 95.2438 170.08 96.8675 169.712C100.101 168.979 104.559 168.462 109.083 168.099C113.602 167.737 118.165 167.531 121.6 167.415C123.318 167.357 124.752 167.322 125.757 167.301C126.259 167.291 126.654 167.284 126.923 167.28C127.058 167.278 127.161 167.276 127.231 167.275C127.265 167.275 127.292 167.275 127.309 167.274C127.318 167.274 127.324 167.274 127.329 167.274C127.331 167.274 127.333 167.274 127.334 167.274C127.334 167.274 127.335 167.274 127.335 167.274C127.335 167.274 127.335 167.274 127.33 166.774C127.324 166.274 127.324 166.274 127.324 166.274C127.324 166.274 127.323 166.274 127.323 166.274C127.321 166.274 127.32 166.274 127.317 166.274C127.313 166.274 127.306 166.274 127.297 166.275C127.279 166.275 127.252 166.275 127.217 166.276C127.147 166.276 127.043 166.278 126.908 166.28C126.637 166.284 126.24 166.291 125.736 166.301C124.728 166.322 123.289 166.358 121.567 166.416C118.123 166.532 113.543 166.739 109.004 167.103C104.47 167.466 99.9531 167.987 96.6465 168.737C95 169.11 93.6121 169.548 92.668 170.074C92.1969 170.336 91.797 170.641 91.5396 171.005C91.2693 171.388 91.1606 171.834 91.2889 172.309L92.2542 172.048ZM127.356 166.62C127.516 167.094 127.516 167.094 127.516 167.094C127.517 167.094 127.517 167.094 127.518 167.093C127.519 167.093 127.52 167.093 127.522 167.092C127.526 167.091 127.532 167.089 127.54 167.086C127.556 167.08 127.58 167.072 127.612 167.062C127.676 167.04 127.771 167.008 127.894 166.967C128.142 166.885 128.505 166.764 128.969 166.612C129.895 166.309 131.221 165.881 132.818 165.383C136.011 164.386 140.281 163.109 144.598 161.988C148.919 160.865 153.266 159.903 156.619 159.528C158.3 159.34 159.697 159.304 160.705 159.455C161.761 159.613 162.165 159.937 162.262 160.25L163.217 159.954C162.931 159.029 161.941 158.628 160.852 158.466C159.715 158.296 158.216 158.343 156.508 158.534C153.082 158.917 148.679 159.894 144.346 161.02C140.009 162.147 135.721 163.429 132.52 164.428C130.918 164.928 129.588 165.357 128.658 165.662C128.192 165.814 127.827 165.935 127.578 166.018C127.453 166.06 127.358 166.092 127.293 166.114C127.261 166.125 127.237 166.133 127.22 166.138C127.212 166.141 127.206 166.143 127.202 166.145C127.2 166.145 127.198 166.146 127.197 166.146C127.196 166.146 127.196 166.147 127.196 166.147C127.195 166.147 127.195 166.147 127.356 166.62ZM162.262 160.25C162.308 160.399 162.292 160.542 162.177 160.717C162.05 160.911 161.804 161.135 161.403 161.375C160.604 161.854 159.344 162.307 157.733 162.726C154.524 163.56 150.082 164.217 145.568 164.722C141.059 165.226 136.501 165.576 133.068 165.799C131.352 165.911 129.918 165.992 128.913 166.044C128.411 166.07 128.016 166.089 127.746 166.102C127.612 166.108 127.509 166.113 127.439 166.116C127.405 166.118 127.378 166.119 127.361 166.12C127.352 166.12 127.345 166.12 127.341 166.121C127.339 166.121 127.337 166.121 127.336 166.121C127.335 166.121 127.335 166.121 127.335 166.121C127.335 166.121 127.334 166.121 127.356 166.62C127.377 167.12 127.377 167.12 127.377 167.12C127.378 167.12 127.378 167.12 127.379 167.12C127.38 167.12 127.382 167.12 127.384 167.12C127.388 167.119 127.395 167.119 127.404 167.119C127.422 167.118 127.449 167.117 127.484 167.115C127.554 167.112 127.658 167.107 127.793 167.101C128.064 167.088 128.461 167.069 128.965 167.043C129.973 166.99 131.412 166.91 133.133 166.797C136.574 166.573 141.149 166.222 145.679 165.715C150.203 165.21 154.703 164.547 157.984 163.694C159.618 163.269 160.991 162.788 161.917 162.233C162.379 161.956 162.769 161.639 163.013 161.266C163.271 160.874 163.363 160.424 163.217 159.954L162.262 160.25ZM127.248 165.941C126.906 166.305 126.906 166.306 126.906 166.306C126.907 166.306 126.907 166.306 126.907 166.306C126.908 166.307 126.909 166.308 126.911 166.31C126.914 166.313 126.918 166.317 126.925 166.323C126.937 166.334 126.955 166.352 126.98 166.375C127.029 166.421 127.101 166.49 127.196 166.579C127.385 166.759 127.663 167.023 128.015 167.36C128.719 168.035 129.72 169.003 130.911 170.176C133.294 172.523 136.43 175.689 139.451 178.969C142.476 182.252 145.37 185.632 147.278 188.412C148.235 189.806 148.924 191.021 149.264 191.98C149.622 192.985 149.525 193.494 149.294 193.726L150.004 194.43C150.687 193.743 150.575 192.682 150.207 191.645C149.822 190.563 149.075 189.263 148.103 187.846C146.153 185.006 143.219 181.582 140.186 178.291C137.151 174.996 134.002 171.817 131.613 169.464C130.418 168.287 129.413 167.315 128.707 166.638C128.353 166.299 128.075 166.034 127.884 165.854C127.789 165.763 127.715 165.694 127.666 165.647C127.641 165.624 127.622 165.606 127.61 165.595C127.603 165.589 127.599 165.584 127.595 165.581C127.594 165.58 127.593 165.578 127.592 165.578C127.591 165.577 127.591 165.577 127.591 165.577C127.591 165.576 127.59 165.576 127.248 165.941ZM149.294 193.726C149.184 193.837 149.05 193.89 148.841 193.87C148.61 193.849 148.296 193.737 147.895 193.497C147.096 193.017 146.104 192.119 144.976 190.895C142.73 188.457 140.06 184.849 137.491 181.106C134.925 177.368 132.472 173.513 130.66 170.591C129.754 169.131 129.008 167.904 128.489 167.043C128.23 166.612 128.027 166.273 127.889 166.042C127.82 165.926 127.768 165.837 127.732 165.777C127.715 165.747 127.701 165.725 127.692 165.71C127.688 165.702 127.685 165.696 127.682 165.693C127.681 165.691 127.68 165.689 127.68 165.688C127.68 165.688 127.679 165.688 127.679 165.687C127.679 165.687 127.679 165.687 127.248 165.941C126.818 166.195 126.818 166.195 126.818 166.195C126.818 166.195 126.818 166.196 126.818 166.196C126.819 166.197 126.82 166.199 126.821 166.201C126.823 166.205 126.827 166.211 126.831 166.218C126.841 166.234 126.854 166.257 126.872 166.287C126.908 166.347 126.961 166.437 127.03 166.553C127.169 166.786 127.372 167.127 127.633 167.559C128.153 168.423 128.901 169.654 129.81 171.118C131.627 174.047 134.089 177.916 136.667 181.672C139.241 185.423 141.944 189.08 144.24 191.573C145.384 192.814 146.455 193.798 147.381 194.354C147.842 194.631 148.306 194.826 148.75 194.866C149.217 194.909 149.658 194.779 150.004 194.43L149.294 193.726ZM127.115 165.989C127.445 165.614 127.445 165.614 127.445 165.614C127.445 165.613 127.444 165.613 127.444 165.613C127.443 165.612 127.442 165.611 127.44 165.61C127.437 165.607 127.432 165.603 127.426 165.597C127.413 165.586 127.394 165.569 127.369 165.547C127.319 165.502 127.244 165.436 127.147 165.349C126.952 165.176 126.666 164.921 126.304 164.595C125.579 163.943 124.547 163.007 123.32 161.872C120.864 159.601 117.63 156.535 114.507 153.353C111.38 150.167 108.38 146.879 106.385 144.16C105.385 142.796 104.658 141.604 104.287 140.655C103.898 139.662 103.979 139.15 104.202 138.91L103.47 138.228C102.81 138.938 102.955 139.995 103.356 141.02C103.774 142.09 104.562 143.366 105.579 144.751C107.617 147.53 110.658 150.859 113.793 154.053C116.931 157.251 120.179 160.329 122.641 162.606C123.872 163.744 124.907 164.684 125.635 165.338C125.999 165.666 126.286 165.922 126.482 166.096C126.58 166.184 126.655 166.25 126.706 166.295C126.732 166.318 126.751 166.335 126.764 166.347C126.771 166.352 126.776 166.357 126.779 166.36C126.781 166.361 126.782 166.362 126.783 166.363C126.783 166.363 126.784 166.364 126.784 166.364C126.784 166.364 126.784 166.364 127.115 165.989ZM104.202 138.91C104.309 138.795 104.441 138.738 104.651 138.75C104.883 138.764 105.2 138.866 105.608 139.094C106.421 139.548 107.442 140.414 108.608 141.602C110.93 143.968 113.712 147.49 116.398 151.151C119.081 154.807 121.654 158.584 123.558 161.447C124.51 162.879 125.294 164.082 125.839 164.926C126.112 165.349 126.326 165.681 126.471 165.908C126.543 166.022 126.599 166.109 126.636 166.168C126.654 166.197 126.669 166.219 126.678 166.234C126.683 166.241 126.686 166.247 126.689 166.251C126.69 166.253 126.691 166.254 126.691 166.255C126.691 166.255 126.692 166.256 126.692 166.256C126.692 166.256 126.692 166.256 127.115 165.989C127.537 165.722 127.537 165.722 127.537 165.721C127.537 165.721 127.537 165.721 127.536 165.72C127.536 165.719 127.535 165.718 127.533 165.716C127.531 165.712 127.527 165.706 127.523 165.699C127.513 165.683 127.499 165.661 127.48 165.631C127.442 165.572 127.386 165.484 127.313 165.37C127.167 165.142 126.953 164.808 126.679 164.384C126.132 163.536 125.345 162.33 124.391 160.894C122.482 158.023 119.899 154.233 117.204 150.559C114.513 146.891 111.696 143.321 109.322 140.901C108.139 139.697 107.038 138.747 106.095 138.221C105.625 137.958 105.155 137.779 104.71 137.752C104.242 137.725 103.805 137.868 103.47 138.228L104.202 138.91Z" fill="#3EB2CB"/>
</svg>
