<svg width="152" height="203" viewBox="0 0 152 203" fill="none" xmlns="http://www.w3.org/2000/svg">
<path opacity="0.15" d="M52.0381 64.3651C48.4093 61.3862 43.6037 59.4526 39.0105 60.4136C34.4172 61.3746 30.4838 65.9171 31.287 70.5419C31.7654 73.3133 33.779 75.6355 36.1684 77.0941C41.6934 80.4447 49.0296 79.5574 54.6131 76.3052C60.1965 73.0531 64.307 67.7934 67.826 62.3758C70.4164 58.3874 72.7886 54.1949 74.0685 49.6199C75.3484 45.045 75.4693 40.015 73.6401 35.6326C72.1626 32.1022 69.1371 28.949 65.3378 28.4841C62.1485 28.0965 58.9418 29.6852 56.7743 32.0557C54.6069 34.4263 53.3404 37.4921 52.4733 40.5839C50.8776 40.6546 49.3241 41.1181 47.9503 41.9332C46.5766 42.7483 45.4251 43.8899 44.598 45.2568C43.7709 46.6237 43.2937 48.1736 43.2088 49.7691C43.1238 51.3646 43.4337 52.9565 44.1109 54.4035C45.9488 58.3188 50.2115 60.7014 52.0381 64.3651Z" fill="#82AF6C"/>
<path opacity="0.15" d="M112.484 174.285C111.196 159 118.704 143.309 131.394 134.729C133.115 133.563 135.28 132.491 137.19 133.316C139.963 134.518 139.838 138.546 138.659 141.33C138.255 142.274 137.775 143.249 137.887 144.27C137.988 145.124 138.488 145.869 138.922 146.61C140.061 148.581 140.76 150.775 140.973 153.042C141.186 155.308 140.907 157.594 140.155 159.743C139.403 161.891 138.196 163.852 136.616 165.491C135.036 167.13 133.122 168.408 131.002 169.238C133.964 168.923 136.824 171.086 137.926 173.863C139.029 176.64 138.74 179.777 137.826 182.613C136.912 185.448 135.357 188.143 132.877 189.756C128.632 192.499 122.645 191.143 118.975 187.683C115.264 184.149 112.958 179.389 112.484 174.285Z" fill="#82AF6C"/>
<path d="M60.0375 72.2157C64.3991 71.5536 68.3586 69.145 71.5158 66.0555C91.4464 46.5572 86.2066 23.1838 79.425 15.703C75.7607 11.6591 69.6645 9.93412 64.4809 11.6491C59.2972 13.364 55.3987 18.5267 55.3548 23.9886C51.3375 24.3034 47.8759 27.2913 46.1329 30.9234C44.3898 34.5554 44.1373 38.7352 44.4654 42.7495C44.9869 49.1097 46.8694 55.2833 49.9854 60.8517C51.6695 63.8673 53.7637 66.7248 56.5975 68.7084C57.682 69.4682 59.1674 70.0788 60.2829 69.361C61.8184 68.3639 61.1439 65.9412 60.0252 64.4893C56.1671 59.514 49.4349 57.6036 43.1317 57.4579C30.7542 57.1641 27.4751 64.3851 26.8604 69.3928C26.2249 74.7281 30.554 79.7571 35.7649 81.0475C40.9758 82.338 46.4767 80.81 51.4256 78.7246C53.0302 78.0516 54.6399 77.2977 55.8944 76.1005C57.1488 74.9033 58.0085 73.1635 57.7633 71.4409C57.4968 69.5833 56.0457 68.1421 54.5924 66.9523C50.812 63.8507 46.397 61.4174 41.6006 60.481C36.8041 59.5446 31.6074 60.2038 27.4843 62.831C24.54 64.705 22.179 67.6398 21.4661 71.0564C20.7533 74.473 21.8956 78.3327 24.6608 80.4595C27.426 82.5862 31.3034 82.3421 34.0912 80.3993M77.3951 71.9834C80.2349 69.9898 83.5394 68.7599 86.9913 68.4119C88.0033 68.2713 89.0327 68.323 90.0255 68.5646C90.5204 68.6911 90.9843 68.9177 91.3885 69.2303C91.7927 69.5428 92.1287 69.9349 92.3758 70.3822C92.5224 70.6379 92.6039 70.9258 92.613 71.2204C92.6221 71.515 92.5587 71.8073 92.4282 72.0716C92.3551 72.1965 92.2565 72.3046 92.139 72.3889C92.0215 72.4732 91.8875 72.5318 91.7459 72.5611C91.6042 72.5903 91.458 72.5894 91.3167 72.5585C91.1754 72.5276 91.0422 72.4675 90.9256 72.3818C90.7505 72.1716 90.6626 71.9022 90.68 71.6291C90.6975 71.3559 90.819 71.0999 91.0195 70.9137C91.4397 70.5551 91.972 70.3548 92.5243 70.3476M78.3064 74.0624C80.8994 73.344 83.6431 73.3776 86.2177 74.1594C87.391 74.5202 88.6425 75.1737 88.9688 76.3534C89.1123 76.8803 88.9579 77.5841 88.4091 77.6961C88.2821 77.7106 88.1535 77.6949 88.0337 77.6503C87.9139 77.6057 87.8063 77.5335 87.7196 77.4395C87.6329 77.3456 87.5697 77.2324 87.5349 77.1094C87.5002 76.9864 87.4949 76.8569 87.5196 76.7314C87.5871 76.4795 87.7349 76.2566 87.9405 76.0963C88.1461 75.936 88.3984 75.8471 88.659 75.8431M113.089 176.487C112.489 174.2 110.108 170.827 107.679 171.273C107.404 171.337 107.145 171.459 106.92 171.629C106.695 171.8 106.508 172.015 106.371 172.263C106.234 172.51 106.151 172.783 106.126 173.065C106.102 173.346 106.136 173.63 106.228 173.897C107.071 176.074 109.673 176.87 111.455 178.381C113.127 179.793 114.069 181.863 114.963 183.866C117.327 189.169 119.736 194.612 120.129 200.406C120.181 201.139 119.965 202.134 119.215 202.145C119.049 202.13 118.887 202.081 118.739 202.003C118.591 201.924 118.459 201.818 118.353 201.689C116.368 199.605 116.352 196.375 116.589 193.507C116.825 190.638 116.73 187.668 115.433 185.024M113.13 175.832C112.881 180.64 114.891 185.433 118.169 188.962C121.447 192.49 125.913 194.793 130.596 195.89C134.18 196.74 138.032 196.895 141.567 195.795C145.101 194.694 148.302 192.261 149.823 188.869C151.843 184.395 150.536 178.809 147.287 175.092C144.037 171.375 139.473 169.525 134.57 168.996M108.178 171.161C106.036 168.199 105.544 164.368 105.576 160.734C105.609 157.1 106.005 153.434 105.345 149.857C105.152 148.818 104.834 147.737 104.05 147.02C103.266 146.303 101.884 146.152 101.204 146.954C100.523 147.757 101.129 149.321 102.228 149.439C102.495 149.444 102.76 149.383 102.997 149.259C103.234 149.135 103.436 148.954 103.585 148.731C103.733 148.508 103.823 148.252 103.846 147.985C103.869 147.719 103.824 147.451 103.716 147.206M106.608 171.529C105.572 170.788 104.704 169.836 104.061 168.737C103.417 167.637 103.013 166.415 102.875 165.148C102.63 162.837 103.297 160.539 103.488 158.223C103.679 155.906 103.249 153.279 101.398 151.879C101.173 151.681 100.907 151.533 100.62 151.447C100.332 151.36 100.029 151.337 99.732 151.379C99.4608 151.441 99.2152 151.585 99.0289 151.791C98.8427 151.998 98.7248 152.257 98.6916 152.533C98.6584 152.809 98.7114 153.089 98.8434 153.333C98.9754 153.578 99.1798 153.776 99.4287 153.9C99.6776 154.024 99.9588 154.068 100.234 154.026C100.508 153.983 100.763 153.857 100.964 153.664C101.164 153.471 101.3 153.221 101.352 152.948C101.404 152.675 101.371 152.392 101.256 152.139M118.514 192.576C113.002 178.153 86.3333 169.036 72.9847 161.784C54.8721 151.953 27.8181 120.956 55.7677 77.7347M45.206 47.8638C40.2727 15.7562 17.921 3.40729 0.927734 0.539062M57.6003 73.1285C62.7715 70.9494 68.4239 70.1662 73.9925 70.8571C75.0645 70.9923 76.1807 71.1999 77.0506 71.8499C77.9205 72.5 78.4622 73.6996 78.0357 74.6976C77.4764 75.9953 75.7546 76.2226 74.3449 76.1832C69.3797 76.0538 64.4762 75.0356 59.5006 75.0544C54.5251 75.0732 49.2738 76.3114 45.8516 79.9106C45.268 80.4609 44.8379 81.1538 44.6034 81.921C44.4927 82.3057 44.4952 82.7142 44.6104 83.0976C44.7257 83.481 44.9489 83.8231 45.2533 84.0829C46.0832 84.6877 47.2446 84.37 48.1911 83.9697C52.5047 82.1302 56.2551 78.9921 57.6003 73.1285ZM40.0889 72.4747C40.8584 72.6237 41.6472 72.6443 42.4234 72.5358C43.314 72.3877 44.118 71.9147 44.6804 71.2082C44.8623 70.9511 44.985 70.6569 45.0398 70.3467C45.0946 70.0365 45.08 69.7181 44.9971 69.4142C44.6449 68.1219 43.3491 67.3917 41.9336 66.9974C40.9512 66.6916 39.9045 66.656 38.9035 66.8941C37.8053 67.1809 36.6487 67.9837 36.2359 68.9548C36.1095 69.238 36.0571 69.5486 36.0834 69.8575C36.1097 70.1665 36.214 70.4638 36.3864 70.7215C36.7419 71.1896 37.214 71.5563 37.7556 71.7847C38.4924 72.1356 39.2798 72.3684 40.0889 72.4747ZM113.039 176.037C109.064 168.455 108.902 158.931 112.12 150.986C113.924 146.537 116.939 142.247 121.423 140.53C122.406 140.112 123.48 139.951 124.543 140.064C125.269 140.188 125.959 140.468 126.565 140.886C128.65 142.279 129.732 144.853 129.8 147.356C129.867 149.859 129.042 152.29 127.971 154.572C126.144 158.417 123.589 161.873 120.449 164.747C120.087 165.129 119.642 165.421 119.148 165.602C118.899 165.69 118.63 165.697 118.377 165.623C118.124 165.549 117.9 165.398 117.737 165.19C117.625 164.949 117.569 164.684 117.576 164.418C117.582 164.151 117.65 163.89 117.773 163.654C118.693 161.282 120.546 159.411 122.447 157.721C124.162 156.2 126.066 154.717 128.315 154.287C129.032 154.116 129.784 154.171 130.469 154.446C130.937 154.7 131.328 155.077 131.6 155.536C131.872 155.994 132.014 156.518 132.013 157.051C131.995 158.118 131.674 159.157 131.088 160.048C127.789 165.427 116.33 167.913 113.039 176.037ZM113.021 176.037C106.452 166.348 105.75 153.328 109.938 142.4C112.176 136.558 115.663 131.289 119.121 126.077L129.544 110.362C129.703 110.117 129.914 109.911 130.162 109.758C130.41 109.605 130.69 109.509 130.98 109.476C132.498 109.346 132.914 111.12 132.992 112.472C133.191 115.78 133.606 119.148 135.048 122.13C136.402 124.928 138.595 127.215 140.581 129.591C143.825 133.452 146.724 137.79 147.807 142.718C148.89 147.646 147.871 153.261 144.221 156.742C146.676 158.92 146.157 163.178 143.878 165.538C141.598 167.899 138.16 168.718 134.867 168.967C131.573 169.216 128.265 169.007 125.079 169.779C120.75 170.796 117.044 173.566 113.021 176.037Z" stroke="#82AF6C" stroke-miterlimit="10"/>
</svg>
