<svg width="50" height="50" viewBox="0 0 50 50" fill="none" xmlns="http://www.w3.org/2000/svg">
<circle cx="25" cy="25" r="25" fill="white"/>
<path d="M24.5 16C21.9219 16 21.5978 16.0119 20.5848 16.057C19.5719 16.1045 18.8819 16.2636 18.2775 16.4987C17.6435 16.7372 17.0692 17.1113 16.5948 17.5948C16.1116 18.0695 15.7376 18.6437 15.4987 19.2775C15.2636 19.8807 15.1033 20.5719 15.057 21.5812C15.0119 22.5966 15 22.9196 15 25.5012C15 28.0804 15.0119 28.4034 15.057 29.4164C15.1045 30.4281 15.2636 31.1181 15.4987 31.7225C15.7422 32.3471 16.0664 32.8767 16.5948 33.4052C17.1221 33.9336 17.6517 34.259 18.2763 34.5012C18.8819 34.7364 19.5707 34.8967 20.5824 34.943C21.5966 34.9881 21.9196 35 24.5 35C27.0804 35 27.4023 34.9881 28.4164 34.943C29.4269 34.8955 30.1193 34.7364 30.7237 34.5012C31.3573 34.2627 31.9312 33.8886 32.4052 33.4052C32.9336 32.8767 33.2578 32.3471 33.5012 31.7225C33.7352 31.1181 33.8955 30.4281 33.943 29.4164C33.9881 28.4034 34 28.0804 34 25.5C34 22.9196 33.9881 22.5966 33.943 21.5824C33.8955 20.5719 33.7352 19.8807 33.5012 19.2775C33.2625 18.6436 32.8884 18.0694 32.4052 17.5948C31.9309 17.1111 31.3566 16.737 30.7225 16.4987C30.1169 16.2636 29.4257 16.1033 28.4152 16.057C27.4011 16.0119 27.0793 16 24.4976 16H24.5012H24.5ZM23.6486 17.7124H24.5012C27.0377 17.7124 27.3381 17.7207 28.3392 17.767C29.2654 17.8086 29.7689 17.9641 30.1038 18.0936C30.5468 18.2657 30.8638 18.4724 31.1963 18.8049C31.5288 19.1374 31.7343 19.4533 31.9064 19.8974C32.0371 20.2311 32.1914 20.7346 32.233 21.6608C32.2793 22.6619 32.2888 22.9623 32.2888 25.4976C32.2888 28.0329 32.2793 28.3346 32.233 29.3356C32.1914 30.2619 32.0359 30.7642 31.9064 31.0991C31.7541 31.5116 31.511 31.8845 31.1951 32.1904C30.8626 32.5229 30.5468 32.7283 30.1026 32.9005C29.7701 33.0311 29.2666 33.1855 28.3392 33.2283C27.3381 33.2734 27.0377 33.2841 24.5012 33.2841C21.9647 33.2841 21.6631 33.2734 20.662 33.2283C19.7358 33.1855 19.2334 33.0311 18.8986 32.9005C18.4859 32.7484 18.1126 32.5057 17.8061 32.1904C17.4899 31.884 17.2464 31.5107 17.0936 31.0979C16.9641 30.7642 16.8086 30.2607 16.767 29.3344C16.7219 28.3334 16.7124 28.0329 16.7124 25.4952C16.7124 22.9587 16.7219 22.6595 16.767 21.6584C16.8098 20.7322 16.9641 20.2287 17.0948 19.8938C17.2669 19.4509 17.4736 19.1338 17.8061 18.8013C18.1386 18.4688 18.4544 18.2634 18.8986 18.0912C19.2334 17.9606 19.7358 17.8062 20.662 17.7634C21.5384 17.7231 21.878 17.7112 23.6486 17.71V17.7124ZM29.5718 19.2894C29.4221 19.2894 29.2739 19.3189 29.1356 19.3762C28.9972 19.4334 28.8716 19.5174 28.7657 19.6233C28.6599 19.7291 28.5759 19.8548 28.5186 19.9931C28.4613 20.1314 28.4318 20.2797 28.4318 20.4294C28.4318 20.5791 28.4613 20.7273 28.5186 20.8656C28.5759 21.0039 28.6599 21.1296 28.7657 21.2355C28.8716 21.3413 28.9972 21.4253 29.1356 21.4826C29.2739 21.5399 29.4221 21.5694 29.5718 21.5694C29.8742 21.5694 30.1641 21.4493 30.3779 21.2355C30.5917 21.0217 30.7118 20.7317 30.7118 20.4294C30.7118 20.127 30.5917 19.8371 30.3779 19.6233C30.1641 19.4095 29.8742 19.2894 29.5718 19.2894ZM24.5012 20.6217C23.8541 20.6117 23.2114 20.7304 22.6107 20.971C22.0099 21.2117 21.463 21.5695 21.0018 22.0235C20.5406 22.4775 20.1744 23.0188 19.9244 23.6157C19.6744 24.2127 19.5456 24.8534 19.5456 25.5006C19.5456 26.1478 19.6744 26.7885 19.9244 27.3854C20.1744 27.9824 20.5406 28.5236 21.0018 28.9777C21.463 29.4317 22.0099 29.7895 22.6107 30.0301C23.2114 30.2708 23.8541 30.3895 24.5012 30.3794C25.782 30.3595 27.0035 29.8366 27.9022 28.9239C28.8008 28.0111 29.3045 26.7815 29.3045 25.5006C29.3045 24.2197 28.8008 22.9901 27.9022 22.0773C27.0035 21.1645 25.782 20.6417 24.5012 20.6217ZM24.5012 22.3329C25.3411 22.3329 26.1467 22.6666 26.7406 23.2605C27.3346 23.8545 27.6683 24.66 27.6683 25.5C27.6683 26.34 27.3346 27.1455 26.7406 27.7395C26.1467 28.3334 25.3411 28.6671 24.5012 28.6671C23.6612 28.6671 22.8557 28.3334 22.2617 27.7395C21.6678 27.1455 21.3341 26.34 21.3341 25.5C21.3341 24.66 21.6678 23.8545 22.2617 23.2605C22.8557 22.6666 23.6612 22.3329 24.5012 22.3329Z" fill="#455D7B"/>
</svg>
