<svg width="50" height="50" viewBox="0 0 50 50" fill="none" xmlns="http://www.w3.org/2000/svg">
<circle cx="25" cy="25" r="25" fill="white"/>
<path d="M26.2774 22.1372C26.2774 22.9051 26.2774 23.673 26.2774 24.441C26.2772 24.5646 26.2852 24.6882 26.3015 24.8107C26.3736 25.3253 26.6728 25.4867 27.0561 25.156C27.471 24.8019 27.8489 24.4028 28.1832 23.9654C29.132 22.7034 29.8626 21.2986 30.4685 19.8269C30.7057 19.2515 31.072 18.9836 31.6703 19.0008C32.3806 19.0213 33.0916 19.0008 33.8026 19.0074C33.9205 19.0084 34.038 19.0229 34.153 19.0504C34.4623 19.1238 34.6236 19.315 34.5591 19.6344C34.4879 20.0044 34.3745 20.3642 34.2213 20.7059C33.6058 22.0453 32.812 23.2742 32.0182 24.5025C31.7888 24.8552 31.5607 25.2111 31.3338 25.57C31.158 25.8458 31.1744 26.1216 31.3825 26.3637C31.7374 26.7725 32.1118 27.1627 32.4717 27.5662C33.2852 28.4769 34.1024 29.3857 34.7191 30.4612C34.8429 30.6705 34.9313 30.9005 34.9803 31.1411C35.0727 31.6346 34.8361 31.9646 34.356 31.9778C33.4648 32.0023 32.5704 32.0162 31.6804 31.9666C31.4198 31.952 31.1238 31.7589 30.9258 31.5585C30.325 30.9513 29.7873 30.2727 29.1801 29.6754C28.6741 29.182 28.113 28.7541 27.5596 28.3195C27.33 28.1396 27.0434 28.0847 26.7499 28.1132C26.4565 28.1416 26.3331 28.2454 26.3141 28.5543C26.2876 28.9902 26.285 29.4281 26.2787 29.8653C26.2724 30.3025 26.2819 30.7251 26.2718 31.153C26.2616 31.581 26.1105 31.8211 25.7025 31.8773C25.1592 31.952 24.5994 32.0056 24.0579 31.954C22.266 31.786 20.7619 30.9308 19.4197 29.7184C18.2881 28.6959 17.4588 27.4207 16.6682 26.117C15.6732 24.4806 14.8124 22.7729 14.2646 20.911C14.1635 20.5652 14.0815 20.2136 14.0192 19.858C13.9306 19.356 14.1507 19.0332 14.6359 19.0193C15.5037 18.9942 16.3734 19.0034 17.2412 19.0193C17.5872 19.0252 17.8358 19.2329 17.9661 19.5676C18.2267 20.237 18.4582 20.9196 18.7346 21.5816C19.3501 23.0573 20.0522 24.4846 21.0718 25.7102C21.2323 25.9028 21.4175 26.0713 21.6221 26.2109C21.9965 26.4669 22.2793 26.3121 22.3261 25.8451C22.3356 25.6886 22.3375 25.5316 22.3318 25.3749C22.3318 24.2597 22.3261 23.1446 22.3349 22.0301C22.3413 21.3078 22.1452 20.6682 21.6904 20.1206C21.6544 20.0776 21.6202 20.0313 21.5879 19.9843C21.4538 19.7859 21.3628 19.5815 21.481 19.3427C21.5993 19.104 21.8093 19.0061 22.0674 19.0067C23.2439 19.0067 24.421 19.0067 25.5975 19.0067C26.0403 19.0067 26.2566 19.2144 26.2635 19.6827C26.2756 20.5002 26.2635 21.3177 26.2635 22.1352L26.2774 22.1372Z" fill="#455D7B"/>
</svg>
