<svg width="50" height="50" viewBox="0 0 50 50" fill="none" xmlns="http://www.w3.org/2000/svg">
<circle cx="25" cy="25" r="25" fill="white"/>
<path d="M24.5805 16H24.7195C26.004 16.0051 32.5122 16.0558 34.267 16.5663C34.7975 16.7221 35.2809 17.0259 35.6689 17.4471C36.0569 17.8684 36.3359 18.3924 36.4781 18.9669C36.6359 19.6093 36.7469 20.4596 36.8219 21.337L36.8375 21.5129L36.8719 21.9524L36.8844 22.1282C36.9859 23.6734 36.9984 25.1205 37 25.4366V25.5634C36.9984 25.8914 36.9844 27.4365 36.8719 29.0459L36.8594 29.2234L36.8453 29.3992C36.7672 30.3662 36.6515 31.3265 36.4781 32.0331C36.3364 32.6078 36.0575 33.1321 35.6694 33.5534C35.2814 33.9748 34.7977 34.2783 34.267 34.4337C32.4544 34.9611 25.5649 34.9983 24.6102 35H24.3883C23.9054 35 21.9084 34.9899 19.8146 34.9121L19.5489 34.9019L19.413 34.8952L18.8786 34.8715C17.1441 34.7887 15.4924 34.6551 14.7314 34.432C14.2009 34.2768 13.7174 33.9735 13.3293 33.5525C12.9413 33.1314 12.6623 32.6075 12.5203 32.0331C12.3469 31.3281 12.2313 30.3662 12.1531 29.3992L12.1281 29.0459C12.051 27.9004 12.0083 26.7525 12 25.604V25.396C12.0031 25.0326 12.0156 23.7765 12.1 22.3902L12.1109 22.2161L12.1156 22.1282L12.1281 21.9524L12.1625 21.5129L12.1781 21.337C12.2531 20.4596 12.3641 19.6076 12.5219 18.9669C12.6636 18.3922 12.9425 17.8679 13.3306 17.4466C13.7186 17.0252 14.2023 16.7217 14.733 16.5663C15.494 16.3466 17.1456 16.2113 18.8801 16.1268L19.1458 16.115L19.5489 16.0997L19.8161 16.0879C21.3033 16.0361 22.791 16.0074 24.2789 16.0017H24.5805V16ZM22.0006 21.4266V29.5717L28.4963 25.5008L22.0006 21.4266Z" fill="#455D7B"/>
</svg>
