<svg width="100" height="100" viewBox="0 0 100 100" fill="none" xmlns="http://www.w3.org/2000/svg">
<path fill-rule="evenodd" clip-rule="evenodd" d="M50 100C77.6142 100 100 77.6142 100 50C100 22.3858 77.6142 0 50 0C22.3858 0 0 22.3858 0 50C0 77.6142 22.3858 100 50 100ZM19.9249 49.8735C19.9249 32.2983 34.1002 18 51.5376 18C68.9749 18 83.1503 32.2983 83.1503 49.8735C83.1503 67.4487 68.9641 81.7361 51.5376 81.7361C34.111 81.7361 19.9249 67.4378 19.9249 49.8735ZM21.9623 49.8735C21.9623 66.3127 35.2381 79.6825 51.5376 79.6825C67.837 79.6825 81.1128 66.3127 81.1128 49.8735C81.1128 33.4343 67.8478 20.0645 51.5376 20.0645C35.2273 20.0645 21.9623 33.4343 21.9623 49.8735ZM29.3209 49.8735C29.3209 37.5304 39.2805 27.4812 51.5376 27.4812C63.7946 27.4812 73.7542 37.5195 73.7542 49.8735C73.7542 62.2276 63.7946 72.2659 51.5376 72.2659C39.2805 72.2659 29.3209 62.2166 29.3209 49.8735ZM31.3583 49.8845C31.3583 61.0915 40.4076 70.2123 51.5376 70.2123C62.6676 70.2123 71.7168 61.0915 71.7168 49.8845C71.7168 38.6774 62.6676 29.5457 51.5376 29.5457C40.4076 29.5457 31.3583 38.6774 31.3583 49.8845ZM45.3602 39.7041C43.0085 39.7041 41.0903 41.6375 41.0903 44.0078C41.0903 46.3781 43.0085 48.3115 45.3602 48.3115C47.7119 48.3115 49.6301 46.3781 49.6301 44.0078C49.6301 41.6375 47.7119 39.7041 45.3602 39.7041ZM45.3602 46.2471C44.1356 46.2471 43.1386 45.2421 43.1386 44.0078C43.1386 42.7735 44.1356 41.7686 45.3602 41.7686C46.5848 41.7686 47.5819 42.7735 47.5819 44.0078C47.5819 45.2421 46.5848 46.2471 45.3602 46.2471ZM53.445 44.0078C53.445 41.6375 55.3632 39.7041 57.7149 39.7041C60.0775 39.7041 61.9848 41.6375 61.9848 44.0078C61.9848 46.3781 60.0666 48.3115 57.7149 48.3115C55.3632 48.3115 53.445 46.3781 53.445 44.0078ZM55.4932 44.0078C55.4932 45.2421 56.4903 46.2471 57.7149 46.2471C58.9504 46.2471 59.9366 45.2421 59.9366 44.0078C59.9366 42.7735 58.9395 41.7686 57.7149 41.7686C56.4903 41.7686 55.4932 42.7735 55.4932 44.0078ZM45.3602 51.4355C43.0085 51.4355 41.0903 53.3689 41.0903 55.7393C41.0903 58.1096 43.0085 60.043 45.3602 60.043C47.7119 60.043 49.6301 58.1096 49.6301 55.7393C49.6193 53.3689 47.7119 51.4355 45.3602 51.4355ZM45.3602 57.9785C44.1356 57.9785 43.1386 56.9736 43.1386 55.7393C43.1386 54.5049 44.1356 53.5 45.3602 53.5C46.5848 53.5 47.5819 54.5049 47.5819 55.7393C47.5819 56.9736 46.5848 57.9785 45.3602 57.9785ZM53.445 55.7393C53.445 53.3689 55.3632 51.4355 57.7149 51.4355C60.0775 51.4355 61.9848 53.3689 61.9848 55.7393C61.9848 58.1096 60.0666 60.043 57.7149 60.043C55.3632 60.043 53.445 58.1096 53.445 55.7393ZM55.4932 55.7393C55.4932 56.9736 56.4903 57.9785 57.7149 57.9785C58.9504 57.9785 59.9366 56.9736 59.9366 55.7393C59.9366 54.5049 58.9395 53.5 57.7149 53.5C56.4903 53.5 55.4932 54.5049 55.4932 55.7393Z" fill="#B5846B"/>
</svg>
