<svg width="100" height="100" viewBox="0 0 100 100" fill="none" xmlns="http://www.w3.org/2000/svg">
<path fill-rule="evenodd" clip-rule="evenodd" d="M50 100C77.6142 100 100 77.6142 100 50C100 22.3858 77.6142 0 50 0C22.3858 0 0 22.3858 0 50C0 77.6142 22.3858 100 50 100ZM86.9786 64.74L91.7906 69.6C91.9791 69.79 92.0783 70.03 92.0783 70.31C92.0783 70.59 91.9692 70.85 91.7807 71.04L84.6669 78.2101C84.4685 78.4001 84.2105 78.5001 83.9525 78.5001C83.6946 78.5001 83.4366 78.41 83.2382 78.2101L78.3965 73.33L75.1918 71.06V78.5301C75.1918 79.1001 74.7354 79.55 74.1798 79.55H22.5579C22.0023 79.55 21.5459 79.1001 21.5459 78.5301V20.02C21.5459 19.45 22.0023 19 22.5579 19H74.1798C74.7354 19 75.1918 19.45 75.1918 20.02V54.17L79.468 54.62C79.7656 54.65 80.0236 54.8 80.1923 55.04L86.9786 64.74ZM23.5699 77.5001H73.1579V69.61L68.8023 66.52C68.5642 66.35 68.4055 66.09 68.3757 65.79L67.2049 54.56C67.2049 54.55 67.2099 54.5425 67.2149 54.535C67.2175 54.5311 67.2201 54.5272 67.222 54.5229C67.2237 54.519 67.2248 54.5148 67.2248 54.51C67.2149 54.23 67.2942 53.94 67.5026 53.73C67.7209 53.51 68.0086 53.44 68.2864 53.46C68.2917 53.4654 68.297 53.4621 68.3038 53.458C68.3098 53.4544 68.3168 53.45 68.3261 53.45L73.1678 53.96V21.04H23.5699V77.5001ZM69.5365 57.22L70.36 65.12L78.9422 71.22L84.8554 65.26L78.8033 56.6L70.9652 55.77L76.2931 61.13C77.4142 60.64 78.704 60.64 79.6267 61.55C80.2022 62.14 80.5296 62.92 80.5296 63.75C80.5296 64.58 80.2121 65.36 79.6267 65.95C79.0314 66.55 78.2377 66.85 77.4539 66.85C76.6602 66.85 75.8764 66.55 75.2712 65.95C74.3485 65.02 74.3584 63.72 74.8545 62.58L69.5365 57.22ZM77.444 62.69C77.1761 62.69 76.9082 62.79 76.6999 63C76.2832 63.42 76.2832 64.09 76.6999 64.5C77.1067 64.91 77.7813 64.91 78.1881 64.5C78.3865 64.3 78.4957 64.04 78.4957 63.75C78.4957 63.46 78.3865 63.2 78.1881 63C77.9897 62.79 77.7218 62.69 77.444 62.69ZM80.4899 72.55L83.9525 76.04L89.6376 70.32L86.175 66.82L80.4899 72.55ZM62.8593 40.42L59.8134 57.39L64.3971 65.47C64.5757 65.79 64.5757 66.18 64.3971 66.49C64.2186 66.81 63.8812 67 63.524 67H33.2139C32.8567 67 32.5194 66.81 32.3408 66.49C32.1622 66.18 32.1622 65.79 32.3408 65.47L36.9344 57.39L33.8687 40.36C33.7298 39.76 33.8786 39.09 34.2953 38.57C34.3945 38.45 34.593 38.31 34.7716 38.23C35.0196 38.03 35.4165 37.77 35.9621 37.77H36.736V29.73C36.736 29.16 37.1924 28.71 37.748 28.71C38.3036 28.71 38.76 29.16 38.76 29.73V37.77H40.6252C43.5025 37.77 46.2309 38.81 48.3739 40.71C50.517 38.81 53.2454 37.77 56.1226 37.77H57.9978V29.73C57.9978 29.16 58.4542 28.71 59.0098 28.71C59.5654 28.71 60.0218 29.16 60.0218 29.73V37.77H60.7956C61.3413 37.77 61.7283 38.03 61.9862 38.23C62.1747 38.33 62.393 38.48 62.4922 38.62C62.8692 39.09 63.0181 39.77 62.8593 40.42ZM38.8791 58.08L34.97 64.95H61.7779L57.8688 58.08C57.7497 57.88 57.71 57.63 57.7497 57.39L60.9048 39.97C60.8849 39.96 60.875 39.95 60.8552 39.94L60.6468 39.77L59.0494 39.78C59.0395 39.78 59.0321 39.785 59.0246 39.79C59.0172 39.795 59.0098 39.8 58.9998 39.8C58.9899 39.8 58.9825 39.795 58.975 39.79C58.9676 39.785 58.9602 39.78 58.9502 39.78L56.1226 39.8C53.5827 39.8 51.1817 40.78 49.3661 42.56C48.8204 43.1 47.9473 43.11 47.3818 42.56C45.5661 40.78 43.1751 39.8 40.6352 39.8H35.9721C35.9667 39.8054 35.9613 39.8101 35.9559 39.8145C35.9513 39.8181 35.9468 39.8216 35.9423 39.825L35.9356 39.83C35.9307 39.8339 35.9257 39.8378 35.9207 39.8423C35.918 39.8447 35.9152 39.8472 35.9125 39.85L38.9981 57.39C39.0378 57.63 38.9981 57.87 38.8791 58.08Z" fill="#B5846B"/>
</svg>
