<svg width="100" height="100" viewBox="0 0 100 100" fill="none" xmlns="http://www.w3.org/2000/svg">
<path fill-rule="evenodd" clip-rule="evenodd" d="M50 100C77.6142 100 100 77.6142 100 50C100 22.3858 77.6142 0 50 0C22.3858 0 0 22.3858 0 50C0 77.6142 22.3858 100 50 100ZM63.4149 45.1701C67.0758 49.3301 71.0385 55.3301 71.1592 59.6701C71.1692 59.8101 71.2396 63.1701 71.1089 65.1101C70.9278 67.4301 68.6951 69.9201 65.2554 70.0801H52.1204V74.4201C59.2008 74.6301 65.1448 78.1401 66.7339 83.3001C66.8244 83.6101 66.764 83.9501 66.573 84.2101C66.3819 84.4701 66.0701 84.6201 65.7482 84.6201H36.4307C36.1089 84.6201 35.7971 84.4701 35.606 84.2101C35.4048 83.9601 35.3445 83.6101 35.4451 83.3101C37.0945 77.9501 42.9379 74.4101 50.0586 74.3801V70.0801H36.9738C33.4939 69.9201 31.2511 67.4301 31.0801 65.1101C30.9449 63.3708 30.9955 60.4901 31.0075 59.8118C31.0089 59.7335 31.0097 59.6846 31.0097 59.6701C31.1304 55.3301 35.093 49.3301 38.754 45.1701C38.8344 45.0701 39.0758 44.51 38.7238 43.87L33.0011 33.72C31.7741 30.99 31.6635 28.46 32.6591 26.68C33.2022 25.71 34.3488 24.48 36.7123 24.17C40.2827 23.57 43.0284 22.69 45.0399 21.46C46.0255 20.36 46.5385 18.9 46.5988 16.99C46.6189 16.44 47.0715 16 47.6247 16H54.5543C55.1074 16 55.56 16.44 55.5801 16.99C55.6405 18.89 56.1534 20.36 57.139 21.46C59.1505 22.69 61.8962 23.57 65.4968 24.18C67.8301 24.48 68.9767 25.71 69.5198 26.68C70.5155 28.46 70.4048 30.99 69.2181 33.63L63.4451 43.87C63.0931 44.51 63.3344 45.0701 63.4149 45.1701ZM34.4494 27.67C33.7755 28.86 33.9264 30.78 34.8316 32.8L40.5241 42.88C40.6527 43.1175 40.7142 43.3467 40.7775 43.5827C40.7835 43.6051 40.7895 43.6275 40.7956 43.65H61.3732C61.3829 43.6157 61.3924 43.5812 61.4019 43.5466C61.4617 43.3287 61.5233 43.1044 61.6448 42.88L67.3876 32.71C68.2525 30.78 68.4034 28.86 67.7296 27.67C67.2669 26.85 66.4221 26.35 65.1951 26.19C61.2123 25.52 58.1951 24.52 55.9321 23.1C55.8617 23.06 55.7913 23 55.731 22.94C54.5341 21.67 53.8201 20.02 53.5988 18.03H48.5801C48.3589 20.02 47.6347 21.67 46.4479 22.94C46.3876 23 46.3273 23.06 46.2468 23.1C43.9839 24.52 40.9666 25.53 37.014 26.18C35.7568 26.35 34.912 26.85 34.4494 27.67ZM37.9393 82.5801H64.2094C62.208 78.8101 56.9982 76.3201 51.1046 76.3801C51.0773 76.3733 51.0546 76.3757 51.0334 76.378C51.0234 76.3791 51.0137 76.3801 51.004 76.3801C50.9436 76.3801 50.9135 76.3801 50.8632 76.3701H50.7727C50.7465 76.3759 50.7246 76.385 50.7028 76.3941C50.6489 76.4164 50.5955 76.4386 50.481 76.4101H50.139C44.5169 76.4101 39.8402 78.8201 37.9393 82.5801ZM65.1951 68.0401C67.448 67.9301 68.9365 66.3801 69.0471 64.9501C69.1719 63.3549 69.1229 60.6053 69.1101 59.8888C69.1085 59.7968 69.1074 59.7383 69.1074 59.7201C69.0069 56.1601 65.3962 50.5201 61.8661 46.5001C61.7051 46.3201 61.5543 46.0201 61.4336 45.6901H40.7453C40.6146 46.0301 40.4637 46.3201 40.3028 46.5101C36.7726 50.5201 33.162 56.1601 33.0614 59.7201C33.0614 59.721 33.0613 59.7292 33.061 59.744C33.0545 60.0501 32.9875 63.2049 33.1218 64.9501C33.2324 66.3901 34.7209 67.9401 37.0241 68.0401H65.1951Z" fill="#B5846B"/>
</svg>
