<svg width="100" height="100" viewBox="0 0 100 100" fill="none" xmlns="http://www.w3.org/2000/svg">
<path fill-rule="evenodd" clip-rule="evenodd" d="M50 100C77.6142 100 100 77.6142 100 50C100 22.3858 77.6142 0 50 0C22.3858 0 0 22.3858 0 50C0 77.6142 22.3858 100 50 100ZM74.898 63.6242H75.9596C77.9439 63.6242 79.5611 65.2542 79.5611 67.2642V75.6542C79.5611 77.6542 77.9439 79.2842 75.9596 79.2842H26.1533C24.169 79.2842 22.5518 77.6542 22.5518 75.6542V67.2642C22.5518 65.2642 24.169 63.6342 26.1533 63.6342H26.8875C27.4133 57.6442 31.253 52.3841 36.9579 49.0741L29.5365 33.6841C29.5217 33.6841 29.5093 33.6866 29.4969 33.6891C29.4845 33.6916 29.4721 33.6941 29.4572 33.6941C27.9491 33.6941 26.4708 32.9941 25.5183 31.6741C23.9507 29.4941 24.4369 26.4441 26.5998 24.8541C28.7627 23.2841 31.7987 23.7641 33.3663 25.9441C34.9438 28.1241 34.4576 31.1741 32.2947 32.7641V32.7741C32.1168 32.9011 31.9278 32.9835 31.736 33.0671C31.6711 33.0954 31.6059 33.1238 31.5407 33.1541L38.7735 48.1441C42.0774 46.5541 45.8476 45.5941 49.8857 45.4541V27.6341C48.7249 27.3741 47.6831 26.7541 46.9787 25.7641C46.2147 24.7041 45.9071 23.4141 46.1155 22.1241C46.3238 20.8341 47.0084 19.7041 48.0601 18.9341C49.1118 18.1641 50.3917 17.8541 51.6716 18.0641C52.9514 18.2741 54.0726 18.9641 54.8266 20.0241C56.3942 22.2041 55.9081 25.2641 53.7452 26.8441C53.1896 27.2541 52.5546 27.4741 51.9097 27.6141V45.4441C55.9478 45.5841 59.718 46.5541 63.0218 48.1341L70.3142 32.9941C69.7387 32.6641 69.1831 32.2541 68.7664 31.6741C67.1988 29.4941 67.685 26.4341 69.8479 24.8541C70.8996 24.0841 72.1795 23.7741 73.4593 23.9841C74.7392 24.1941 75.8604 24.8841 76.6144 25.9441C78.1919 28.1241 77.7058 31.1741 75.5429 32.7641V32.7741C74.6896 33.3941 73.6875 33.6941 72.7053 33.6941C72.6318 33.6941 72.5582 33.6689 72.4847 33.6437C72.4193 33.6213 72.354 33.5988 72.2886 33.5941L64.8276 49.0641C70.5325 52.3741 74.3721 57.6342 74.898 63.6242ZM72.7053 25.9641C72.11 25.9641 71.5346 26.1441 71.0484 26.5041C69.7884 27.4241 69.5105 29.2041 70.4233 30.4741C71.3361 31.7441 73.1022 32.0241 74.3622 31.1041C75.6123 30.1841 75.9 28.4041 74.9873 27.1341C74.5507 26.5241 73.8959 26.1141 73.1518 25.9941C73.0029 25.9741 72.8541 25.9641 72.7053 25.9641ZM27.8003 26.5041C26.5502 27.4241 26.2624 29.2041 27.1752 30.4741C28.088 31.7441 29.854 32.0341 31.124 31.1041C32.3741 30.1841 32.6618 28.4041 31.7491 27.1341C31.1934 26.3741 30.3303 25.9641 29.4572 25.9641C28.8817 25.9641 28.3063 26.1341 27.8003 26.5041ZM49.2408 20.5941C48.6356 21.0341 48.2288 21.6941 48.1097 22.4441C47.9907 23.2041 48.1693 23.9441 48.6157 24.5641C49.0523 25.1741 49.7071 25.5841 50.4512 25.7041C51.2052 25.8241 51.9494 25.6441 52.5546 25.1941C53.8047 24.2741 54.0924 22.5041 53.1796 21.2241C52.7431 20.6141 52.0883 20.2041 51.3442 20.0841C51.1953 20.0641 51.0465 20.0541 50.8977 20.0541C50.3024 20.0541 49.7269 20.2341 49.2408 20.5941ZM49.8857 54.0942V47.4841C38.8132 47.9041 29.7052 54.8642 28.842 63.6242H72.9533C72.0902 54.8542 62.9822 47.8941 51.9097 47.4841V54.0942C51.9097 54.6642 51.4533 55.1142 50.8977 55.1142C50.3421 55.1142 49.8857 54.6642 49.8857 54.0942ZM24.8932 75.6342C24.8932 76.5142 25.5977 77.2242 26.4708 77.2242H75.652C76.5251 77.2242 77.2295 76.5142 77.2295 75.6342V67.2442C77.2295 66.3642 76.5152 65.6542 75.652 65.6542H26.4708C25.5977 65.6542 24.8932 66.3642 24.8932 67.2442V75.6342Z" fill="#B5846B"/>
</svg>
