<svg width="100" height="100" viewBox="0 0 100 100" fill="none" xmlns="http://www.w3.org/2000/svg">
<path fill-rule="evenodd" clip-rule="evenodd" d="M50 100C77.6142 100 100 77.6142 100 50C100 22.3858 77.6142 0 50 0C22.3858 0 0 22.3858 0 50C0 77.6142 22.3858 100 50 100ZM83.3074 32.05H82.7944V31.03C82.7944 30.56 82.4726 30.15 82.01 30.04L76.8907 28.82V28.09C76.8907 27.52 76.4281 27.07 75.8648 27.07H66.3706V18.02C66.3706 17.45 65.9079 17 65.3447 17C64.7815 17 64.3189 17.45 64.3189 18.02V27.08H27.3778V23.25C27.3778 22.68 26.9151 22.23 26.3519 22.23C25.7887 22.23 25.326 22.68 25.326 23.25V27.08H22.2485C21.6852 27.08 21.2226 27.53 21.2226 28.1V49.91C21.2226 50.48 21.6852 50.93 22.2485 50.93H25.326V58.46C25.326 59.03 25.7887 59.48 26.3519 59.48C26.9151 59.48 27.3778 59.03 27.3778 58.46V50.93H29.2987C29.6306 50.93 29.9525 50.77 30.1436 50.49L35.7355 42.51H54.8246V60.88H19.9453C19.3821 60.88 18.9194 61.33 18.9194 61.9V74.02C18.9194 74.59 19.3821 75.04 19.9453 75.04H81.7786C82.3419 75.04 82.8045 74.59 82.8045 74.02V64.07C82.8045 63.66 82.5631 63.3 82.191 63.14L76.9108 60.85V53.49L82.0703 52.04C82.5128 51.92 82.8146 51.51 82.8146 51.06V49.53H83.3275C83.8907 49.53 84.3533 49.08 84.3533 48.51V33.07C84.3433 32.51 83.8806 32.05 83.3074 32.05ZM80.7427 64.74V73H20.9712V62.92H55.8605C56.4237 62.92 56.8864 62.47 56.8864 61.9V41.49C56.8864 40.92 56.4237 40.47 55.8605 40.47H35.2025C34.8706 40.47 34.5487 40.63 34.3577 40.91L28.7657 48.89H23.2743V29.12H74.839V61.52C74.839 61.93 75.0804 62.29 75.4525 62.45L80.7427 64.74ZM80.7427 50.28L76.8907 51.36V30.92L80.7427 31.84V50.28ZM65.6766 37.28C62.8806 37.28 60.6077 39.54 60.6077 42.32C60.6077 45.09 62.8806 47.36 65.6766 47.36C68.4726 47.36 70.7355 45.1 70.7355 42.32C70.7355 39.55 68.4625 37.28 65.6766 37.28ZM65.6766 45.32C64.0171 45.32 62.6594 43.97 62.6594 42.32C62.6594 40.67 64.0071 39.32 65.6766 39.32C67.3361 39.32 68.6939 40.67 68.6939 42.32C68.6838 43.97 67.3361 45.32 65.6766 45.32ZM60.6077 53.93C60.6077 51.15 62.8806 48.89 65.6766 48.89C68.4625 48.89 70.7355 51.16 70.7355 53.93C70.7355 56.7 68.4726 58.97 65.6766 58.97C62.8806 58.97 60.6077 56.71 60.6077 53.93ZM62.6594 53.93C62.6594 55.58 64.0171 56.93 65.6766 56.93C67.3361 56.93 68.6838 55.58 68.6939 53.93C68.6939 52.28 67.3361 50.93 65.6766 50.93C64.0071 50.93 62.6594 52.28 62.6594 53.93Z" fill="#B5846B"/>
</svg>
