<svg width="100" height="100" viewBox="0 0 100 100" fill="none" xmlns="http://www.w3.org/2000/svg">
<path fill-rule="evenodd" clip-rule="evenodd" d="M50 100C77.6142 100 100 77.6142 100 50C100 22.3858 77.6142 0 50 0C22.3858 0 0 22.3858 0 50C0 77.6142 22.3858 100 50 100ZM68.7019 83.321H35.6905C35.1884 83.321 34.7565 82.961 34.6661 82.461L31.0277 61.729C31.0032 61.6407 30.9902 61.5476 30.9902 61.451C30.9902 61.0018 31.2674 60.6245 31.6632 60.4773C32.5848 59.9414 36.7508 57.2427 37.1769 52.331C37.5886 47.621 34.4452 43.101 29.5442 41.351C29.525 41.344 29.506 41.3364 29.4872 41.3284C29.2068 41.2098 28.9879 40.9725 28.897 40.6774L24.6131 27.391C24.4423 26.861 24.7235 26.291 25.2458 26.101L56.0075 15.061C56.3188 14.951 56.6603 14.991 56.9415 15.171C57.2127 15.361 57.3834 15.661 57.3934 15.991C57.6646 21.901 62.1137 26.921 67.9788 27.911L68.8826 28.061C69.3848 28.141 69.7463 28.581 69.7463 29.081V61.4282L69.7466 61.451L69.7463 61.4742V82.281C69.7463 82.851 69.2844 83.321 68.7019 83.321ZM36.5642 81.251L33.2808 62.491H36.1925C36.775 62.491 37.237 62.031 37.237 61.451C37.237 60.8711 36.765 60.4111 36.1925 60.4111H35.1807C36.9298 58.7914 38.9421 56.1692 39.2558 52.511C39.6253 48.2127 37.5755 44.0616 34.0221 41.4109H34.0535C34.6259 41.4109 35.0979 40.9509 35.0979 40.371C35.0979 39.791 34.6259 39.3311 34.0535 39.3311H30.6587L26.9129 27.711L55.2088 17.5459C55.1989 17.606 55.1938 17.6677 55.1938 17.7306V21.9777C55.1938 22.5742 55.6477 23.0472 56.1982 23.0472C56.6001 23.0472 56.9454 22.7951 57.1063 22.4308C59.2339 26.3074 63.063 29.1756 67.6273 29.951L67.6674 29.961V39.3915C67.5573 39.3523 67.4388 39.3311 67.3157 39.3311H63.1579C62.5754 39.3311 62.1134 39.801 62.1134 40.371C62.1134 40.9509 62.5854 41.4109 63.1579 41.4109H67.3157C67.4395 41.4109 67.5578 41.3901 67.6674 41.3518V60.4111H65.2975C64.715 60.4111 64.253 60.8711 64.253 61.451C64.253 62.031 64.725 62.491 65.2975 62.491H67.6674V81.251H57.2026V77.3342C57.2026 76.7378 56.7583 76.2647 56.1982 76.2647C55.6381 76.2647 55.1938 76.7481 55.1938 77.3342V81.251H36.5642ZM56.1982 31.562C55.6477 31.562 55.1938 31.089 55.1938 30.4925V26.2351C55.1938 25.649 55.6381 25.1657 56.1982 25.1657C56.7583 25.1657 57.2026 25.6387 57.2026 26.2351V30.4925C57.1929 31.089 56.7487 31.562 56.1982 31.562ZM54.8423 41.4109H59.0001C59.5826 41.4109 60.0446 40.9509 60.0446 40.371C60.0446 39.791 59.5726 39.3311 59.0001 39.3311H57.1524C57.1833 39.2292 57.2008 39.1205 57.2026 39.0073V34.7499C57.2026 34.1535 56.7583 33.6805 56.1982 33.6805C55.6381 33.6805 55.1938 34.1638 55.1938 34.7499V39.0073C55.1938 39.1205 55.2101 39.2292 55.2404 39.3311H54.8423C54.2598 39.3311 53.7979 39.801 53.7979 40.371C53.7979 40.9509 54.2699 41.4109 54.8423 41.4109ZM46.5268 41.4109H50.6846C51.267 41.4109 51.729 40.9509 51.729 40.371C51.729 39.791 51.257 39.3311 50.6846 39.3311H46.5268C45.9443 39.3311 45.4823 39.801 45.4823 40.371C45.4823 40.9509 45.9543 41.4109 46.5268 41.4109ZM42.369 41.4109H38.2112C37.6388 41.4109 37.1668 40.9509 37.1668 40.371C37.1668 39.801 37.6287 39.3311 38.2112 39.3311H42.369C42.9415 39.3311 43.4135 39.791 43.4135 40.371C43.4135 40.9509 42.9415 41.4109 42.369 41.4109ZM56.1982 74.1463C55.6477 74.1463 55.1938 73.6733 55.1938 73.0768V68.8194C55.1938 68.2333 55.6381 67.7499 56.1982 67.7499C56.7583 67.7499 57.2026 68.223 57.2026 68.8194V73.0768C57.1929 73.663 56.7487 74.1463 56.1982 74.1463ZM55.1938 64.562C55.1938 65.1585 55.6477 65.6315 56.1982 65.6315C56.7487 65.6315 57.1929 65.1482 57.2026 64.562V62.491H61.1497C61.7221 62.491 62.1942 62.031 62.1942 61.451C62.1942 60.8711 61.7221 60.4111 61.1497 60.4111H57.2026V60.3046C57.2026 59.7082 56.7583 59.2351 56.1982 59.2351C55.6381 59.2351 55.1938 59.7185 55.1938 60.3046V64.562ZM56.1982 57.1167C55.6477 57.1167 55.1938 56.6437 55.1938 56.0472V51.7898C55.1938 51.2037 55.6381 50.7203 56.1982 50.7203C56.7583 50.7203 57.2026 51.1934 57.2026 51.7898V56.0472C57.1929 56.6334 56.7487 57.1167 56.1982 57.1167ZM55.1938 47.5221C55.1938 48.1186 55.6477 48.5916 56.1982 48.5916C56.7487 48.5916 57.1929 48.1186 57.2026 47.5221V43.2647C57.2026 42.6683 56.7583 42.1953 56.1982 42.1953C55.6381 42.1953 55.1938 42.6786 55.1938 43.2647V47.5221ZM52.834 62.491H48.6761C48.1036 62.491 47.6316 62.031 47.6316 61.451C47.6316 60.8711 48.0936 60.4111 48.6761 60.4111H52.834C53.4064 60.4111 53.8784 60.8711 53.8784 61.451C53.8784 62.031 53.4064 62.491 52.834 62.491ZM40.3604 62.491H44.5182C45.0907 62.491 45.5627 62.031 45.5627 61.451C45.5627 60.8711 45.0907 60.4111 44.5182 60.4111H40.3604C39.7779 60.4111 39.3159 60.8711 39.3159 61.451C39.3159 62.031 39.7879 62.491 40.3604 62.491Z" fill="#B5846B"/>
</svg>
