<svg width="21" height="20" viewBox="0 0 21 20" fill="none" xmlns="http://www.w3.org/2000/svg">
<path d="M10.0575 18.75C7.72348 18.75 5.4851 17.8281 3.83473 16.1872C2.18435 14.5462 1.25718 12.3206 1.25718 10C1.25718 7.67936 2.18435 5.45376 3.83473 3.81282C5.4851 2.17187 7.72348 1.25 10.0575 1.25C12.3914 1.25 14.6298 2.17187 16.2802 3.81282C17.9306 5.45376 18.8577 7.67936 18.8577 10C18.8577 12.3206 17.9306 14.5462 16.2802 16.1872C14.6298 17.8281 12.3914 18.75 10.0575 18.75ZM10.0575 20C12.7249 20 15.283 18.9464 17.1692 17.0711C19.0553 15.1957 20.1149 12.6522 20.1149 10C20.1149 7.34784 19.0553 4.8043 17.1692 2.92893C15.283 1.05357 12.7249 0 10.0575 0C7.39006 0 4.8319 1.05357 2.94576 2.92893C1.05962 4.8043 0 7.34784 0 10C0 12.6522 1.05962 15.1957 2.94576 17.0711C4.8319 18.9464 7.39006 20 10.0575 20Z" fill="#3D3D3D"/>
<path d="M6.60646 7.2325C6.60474 7.27287 6.61134 7.31316 6.62586 7.3509C6.64038 7.38863 6.66251 7.42302 6.69089 7.45194C6.71927 7.48085 6.7533 7.5037 6.79088 7.51906C6.82847 7.53442 6.86881 7.54197 6.90944 7.54125H7.94662C8.12011 7.54125 8.2584 7.4 8.28103 7.22875C8.39418 6.40875 8.95991 5.81125 9.96817 5.81125C10.8306 5.81125 11.6201 6.24 11.6201 7.27125C11.6201 8.065 11.1499 8.43 10.4069 8.985C9.56084 9.59625 8.89077 10.31 8.93854 11.4688L8.94231 11.74C8.94363 11.822 8.97732 11.9002 9.03612 11.9577C9.09492 12.0153 9.17411 12.0475 9.25661 12.0475H10.2762C10.3595 12.0475 10.4395 12.0146 10.4984 11.956C10.5574 11.8974 10.5905 11.8179 10.5905 11.735V11.6038C10.5905 10.7063 10.9337 10.445 11.8602 9.74625C12.6259 9.1675 13.4242 8.525 13.4242 7.17625C13.4242 5.2875 11.82 4.375 10.0637 4.375C8.47087 4.375 6.7259 5.1125 6.60646 7.2325ZM8.5639 14.4362C8.5639 15.1025 9.0982 15.595 9.83365 15.595C10.5993 15.595 11.126 15.1025 11.126 14.4362C11.126 13.7463 10.598 13.2613 9.8324 13.2613C9.0982 13.2613 8.5639 13.7463 8.5639 14.4362Z" fill="#3D3D3D"/>
</svg>
