<svg width="21" height="20" viewBox="0 0 21 20" fill="none" xmlns="http://www.w3.org/2000/svg">
<g clip-path="url(#clip0_528_49)">
<path d="M14.7207 7.5C14.7207 8.49456 14.3256 9.44839 13.6224 10.1517C12.9191 10.8549 11.9653 11.25 10.9707 11.25C9.97614 11.25 9.02231 10.8549 8.31905 10.1517C7.61579 9.44839 7.2207 8.49456 7.2207 7.5C7.2207 6.50544 7.61579 5.55161 8.31905 4.84835C9.02231 4.14509 9.97614 3.75 10.9707 3.75C11.9653 3.75 12.9191 4.14509 13.6224 4.84835C14.3256 5.55161 14.7207 6.50544 14.7207 7.5Z" fill="#3D3D3D"/>
<path fill-rule="evenodd" clip-rule="evenodd" d="M0.970703 10C0.970703 7.34784 2.02427 4.8043 3.89964 2.92893C5.775 1.05357 8.31854 0 10.9707 0C13.6229 0 16.1664 1.05357 18.0418 2.92893C19.9171 4.8043 20.9707 7.34784 20.9707 10C20.9707 12.6522 19.9171 15.1957 18.0418 17.0711C16.1664 18.9464 13.6229 20 10.9707 20C8.31854 20 5.775 18.9464 3.89964 17.0711C2.02427 15.1957 0.970703 12.6522 0.970703 10ZM10.9707 1.25C9.32293 1.25009 7.70866 1.71545 6.31371 2.59253C4.91875 3.46962 3.79981 4.72276 3.08566 6.20774C2.37151 7.69272 2.09119 9.34917 2.27695 10.9864C2.46272 12.6237 3.10702 14.1753 4.1357 15.4625C5.0232 14.0325 6.97695 12.5 10.9707 12.5C14.9645 12.5 16.917 14.0312 17.8057 15.4625C18.8344 14.1753 19.4787 12.6237 19.6645 10.9864C19.8502 9.34917 19.5699 7.69272 18.8557 6.20774C18.1416 4.72276 17.0227 3.46962 15.6277 2.59253C14.2327 1.71545 12.6185 1.25009 10.9707 1.25Z" fill="#3D3D3D"/>
</g>
<defs>
<clipPath id="clip0_528_49">
<rect width="20" height="20" fill="white" transform="translate(0.970703)"/>
</clipPath>
</defs>
</svg>
